<svg id="logo_1" data-name="logo1" xmlns="http://www.w3.org/2000/svg" xmlns:xlink="http://www.w3.org/1999/xlink" viewBox="0 0 71.45 207.64">
<defs>
<style>

.logo_l{fill:none;}
.logo_g{clip-path:url(#clip-path);}
.logo_l{
    stroke:#D9D9D9;
    stroke-linecap:round;
    stroke-miterlimit:10;
    stroke-width:5px;
    fill:none;
	stroke-dasharray:1000;
	stroke-dashoffset:1000;
	animation: dr 4s linear forwards;
    }

@keyframes dr{
		0%{stroke-dashoffset:1000;}
		100%{stroke-dashoffset:0;}

	
	}

</style>
</defs>
<title>signlogo</title>
    <g class="logo_g">
        <path class="logo_l" d="M767.5,387.58s-21.31,40.78,11.23,28.61c13.23-4.95-3.37-42.92-11.16-30-8.55,14.17-13-31.08-13-31.08s8.07,50.76,16.87,30.46c1.81-4.17-10.24-33.76-10.24-33.76s33-16.93,8-4.13c-18.66,9.57-26.73,14.18-29.63,15.9a3.93,3.93,0,0,1-3.38.38c-3.37-1.14.54-5.27,18.08-19.76,23.09-19.06,18.38-17.34,18.38-17.34s-1.56-10.1-39.2,26.25" transform="translate(-730.89 -323.05)"/>
        <path class="logo_l" d="M778.89,417.41s25,27.47,11.83,39.67c0,0-28.58,12.5-11.52,24.66,5.29,3.77,10.11.31,12.55-.61,1.88-.72.37-1.92,1.35-1.06a1.82,1.82,0,0,1,.27,1.92l-12.54,26c-.55,1.21,0,3.13.86,3.23,6.69.77,25.42,3.51,15.12,9.3-12.42,7-11.28,12.24-13.88,1.77" transform="translate(-730.89 -323.05)"/>
    </g>
</svg>