<svg width="202" height="28" viewBox="0 0 202 28" fill="none" xmlns="http://www.w3.org/2000/svg">
<path d="M11.086 10.7265C11.1016 12.0703 11.1953 13.414 11.3672 14.7578C11.5391 16.1015 11.7657 17.4297 12.0469 18.7422C12.1094 19.039 12.0547 19.2812 11.8828 19.4687C11.7266 19.6719 11.5391 19.8047 11.3203 19.8672C11.1016 19.9297 10.8828 19.914 10.6641 19.8203C10.4453 19.7265 10.3047 19.5312 10.2422 19.2344C10.0547 18.3437 9.89066 17.4687 9.75003 16.6094C9.68753 16.6875 9.63284 16.7656 9.58597 16.8437C9.53909 16.9062 9.48441 16.9765 9.42191 17.0547C9.10941 17.4297 8.75003 17.7578 8.34378 18.039C7.93753 18.3047 7.50003 18.5156 7.03128 18.6719C6.57816 18.8125 6.10941 18.8906 5.62503 18.9062C5.14066 18.9219 4.66409 18.8672 4.19534 18.7422C3.36722 18.5078 2.73441 18.1015 2.29691 17.5234C1.85941 16.9453 1.54691 16.289 1.35941 15.5547C1.17191 14.8047 1.06253 14.0312 1.03128 13.2344C1.00003 12.4219 0.976593 11.6719 0.960968 10.9844C0.960968 10.6875 1.05472 10.4687 1.24222 10.3281C1.42972 10.1719 1.64066 10.0937 1.87503 10.0937C2.10941 10.0937 2.32034 10.1719 2.50784 10.3281C2.71097 10.4687 2.82034 10.6875 2.83597 10.9844C2.85159 11.6094 2.85941 12.2422 2.85941 12.8828C2.87503 13.5234 2.94534 14.125 3.07034 14.6875C3.13284 15 3.20316 15.2734 3.28128 15.5078C3.35941 15.7265 3.48441 15.9609 3.65628 16.2109C3.73441 16.3203 3.77347 16.3828 3.77347 16.3984C3.78909 16.414 3.81253 16.4297 3.84378 16.4453C4.07816 16.6328 4.23441 16.75 4.31253 16.7969C4.39066 16.8281 4.48441 16.8594 4.59378 16.8906C5.25003 17.0781 5.91409 17.0625 6.58597 16.8437C7.25784 16.6094 7.79691 16.1953 8.20316 15.6015C8.43753 15.2265 8.60941 14.8359 8.71878 14.4297C8.84378 14.0234 8.92972 13.6172 8.97659 13.2109C9.02347 12.789 9.05472 12.3672 9.07034 11.9453C9.10159 11.5078 9.14847 11.0781 9.21097 10.6562C9.21097 10.1875 9.32816 9.8828 9.56253 9.74217C9.81253 9.58592 10.0703 9.53123 10.336 9.57811C10.4922 9.62498 10.6172 9.67967 10.711 9.74217L10.8985 9.90623C11.0703 10.1875 11.1328 10.4609 11.086 10.7265ZM13.875 18.7656C14 18.0156 14.1407 17.2812 14.2969 16.5625C14.4688 15.8281 14.5938 15.0859 14.6719 14.3359C14.7344 13.6015 14.7422 12.8828 14.6953 12.1797C14.6641 11.4609 14.711 10.7344 14.836 9.99998C14.8672 9.74998 15.0078 9.56248 15.2578 9.43748C15.5235 9.31248 15.7657 9.28123 15.9844 9.34373C16.25 9.42186 16.4297 9.5703 16.5235 9.78905C16.6328 10.0078 16.6719 10.2422 16.6407 10.4922C16.5782 10.8515 16.5469 11.2187 16.5469 11.5937C16.5625 11.9687 16.5782 12.3437 16.5938 12.7187C16.5938 13.4375 16.5469 14.1562 16.4532 14.875C16.3594 15.625 16.2344 16.3594 16.0782 17.0781C15.9375 17.7969 15.8047 18.5234 15.6797 19.2578C15.6328 19.5078 15.4844 19.6953 15.2344 19.8203C14.9844 19.9453 14.75 19.9765 14.5313 19.914C14.2657 19.8359 14.0782 19.6875 13.9688 19.4687C13.8594 19.25 13.8282 19.0156 13.875 18.7656ZM15 7.98436C14.8907 7.95311 14.7813 7.90623 14.6719 7.84373C14.5625 7.76561 14.4844 7.67186 14.4375 7.56248C14.3907 7.43748 14.3516 7.32811 14.3203 7.23436C14.2891 7.14061 14.2735 7.03123 14.2735 6.90623C14.2735 6.76561 14.2969 6.62498 14.3438 6.48436C14.4063 6.20311 14.5313 5.99998 14.7188 5.87498C14.7813 5.78123 14.8672 5.71092 14.9766 5.66405C15.1485 5.55467 15.3438 5.49998 15.5625 5.49998C15.7813 5.48436 15.9766 5.53905 16.1485 5.66405C16.2266 5.72655 16.3047 5.79686 16.3828 5.87498C16.461 5.93748 16.5235 6.02342 16.5703 6.1328C16.6016 6.21092 16.6328 6.29686 16.6641 6.39061C16.711 6.48436 16.7266 6.57811 16.711 6.67186C16.6953 6.78123 16.6797 6.8828 16.6641 6.97655C16.6485 7.0703 16.6094 7.15623 16.5469 7.23436C16.4688 7.34373 16.4063 7.42186 16.3594 7.46873C16.3125 7.51561 16.2344 7.57811 16.125 7.65623C16.0625 7.71873 15.9688 7.76561 15.8438 7.79686C15.5157 7.98436 15.2344 8.04686 15 7.98436ZM24.9375 8.1953C25.4375 8.1328 25.961 8.11717 26.5078 8.14842C27.0547 8.16405 27.5782 8.2578 28.0782 8.42967C28.5782 8.58592 29.0313 8.82811 29.4375 9.15623C29.8438 9.48436 30.1563 9.91405 30.375 10.4453C30.5313 10.8203 30.6094 11.2031 30.6094 11.5937C30.625 11.9687 30.5703 12.3359 30.4453 12.6953C30.336 13.039 30.1641 13.375 29.9297 13.7031C29.711 14.0156 29.4532 14.3047 29.1563 14.5703C28.5157 15.1484 27.8125 15.6406 27.0469 16.0469C26.2813 16.4531 25.4766 16.7656 24.6328 16.9844C24.2735 17.0781 23.8985 17.164 23.5078 17.2422C23.1328 17.3047 22.75 17.3359 22.3594 17.3359C21.9688 17.3359 21.586 17.2969 21.211 17.2187C20.836 17.125 20.4844 16.9765 20.1563 16.7734C19.9219 16.6328 19.7813 16.4453 19.7344 16.2109C19.6407 15.9453 19.5391 15.6953 19.4297 15.4609C19.3203 15.2265 19.211 14.9844 19.1016 14.7344C19.0078 14.4844 18.9297 14.2344 18.8672 13.9844C18.8047 13.7344 18.7735 13.4765 18.7735 13.2109C18.7735 12.6797 18.8828 12.1797 19.1016 11.7109C19.336 11.2265 19.6485 10.8047 20.0391 10.4453C20.6953 9.8203 21.4532 9.3203 22.3125 8.9453C23.1719 8.5703 24.0469 8.3203 24.9375 8.1953ZM27.586 10.2109C27.1641 10.0547 26.711 9.97655 26.2266 9.97655C25.711 9.96092 25.1953 10.0156 24.6797 10.1406C24.1641 10.25 23.6719 10.4062 23.2032 10.6094C22.7657 10.7812 22.3125 11.0234 21.8438 11.3359C21.3907 11.6328 21.0547 12 20.836 12.4375C20.711 12.6719 20.6485 12.914 20.6485 13.164C20.6641 13.3984 20.7032 13.6406 20.7657 13.8906C20.8438 14.125 20.9375 14.3672 21.0469 14.6172C21.1719 14.8515 21.2813 15.0859 21.375 15.3203C21.625 15.3828 21.7813 15.414 21.8438 15.414C21.875 15.4297 21.9141 15.4375 21.961 15.4375C22.0078 15.4375 22.0469 15.4375 22.0782 15.4375C22.3907 15.4687 22.6719 15.4609 22.9219 15.414C23.0938 15.414 23.3125 15.3828 23.5782 15.3203C23.9844 15.2422 24.375 15.1406 24.75 15.0156C25.125 14.875 25.4688 14.7265 25.7813 14.5703C26.1407 14.3984 26.4922 14.2109 26.836 14.0078C27.1797 13.8047 27.4688 13.5937 27.7032 13.375C27.8594 13.2344 28.0078 13.0859 28.1485 12.9297C28.2266 12.8515 28.2813 12.789 28.3125 12.7422C28.3907 12.6328 28.4532 12.5547 28.5 12.5078C28.5469 12.4453 28.586 12.375 28.6172 12.2969C28.6797 12.1875 28.711 12.1015 28.711 12.039C28.7266 12.0078 28.7344 11.9687 28.7344 11.9219C28.75 11.875 28.7657 11.8359 28.7813 11.8047V11.5469C28.7657 11.4844 28.7578 11.4375 28.7578 11.4062C28.7578 11.375 28.75 11.3437 28.7344 11.3125C28.6875 11.2031 28.6407 11.125 28.5938 11.0781C28.5625 11.0156 28.5235 10.9531 28.4766 10.8906C28.4922 10.9062 28.4688 10.8828 28.4063 10.8203C28.3594 10.7578 28.3282 10.7187 28.3125 10.7031L28.125 10.5156C28.0469 10.4687 27.961 10.414 27.8672 10.3515C27.7735 10.289 27.6797 10.2422 27.586 10.2109ZM34.5938 25.75C34.6094 26.0469 34.5235 26.2656 34.336 26.4062C34.1641 26.5625 33.961 26.6406 33.7266 26.6406C33.4922 26.6406 33.2735 26.5625 33.0703 26.4062C32.8672 26.2656 32.7578 26.0469 32.7422 25.75C32.5703 23.25 32.4688 20.7578 32.4375 18.2734C32.4063 15.7734 32.336 13.2734 32.2266 10.7734C32.0078 10.4297 31.9922 10.1015 32.1797 9.78905C32.1641 9.61717 32.1485 9.46092 32.1328 9.3203C32.1328 9.16405 32.125 8.99998 32.1094 8.82811C32.0938 8.54686 32.1719 8.33592 32.3438 8.1953C32.5157 8.03905 32.711 7.95311 32.9297 7.93748C33.1641 7.92186 33.3828 7.98436 33.586 8.12498C33.7891 8.24998 33.9141 8.4453 33.961 8.71092C34.2266 8.58592 34.4766 8.46873 34.711 8.35936C34.961 8.24998 35.2188 8.14061 35.4844 8.03123C35.7032 7.93748 35.9453 7.85155 36.211 7.77342C36.4766 7.67967 36.75 7.60936 37.0313 7.56248C37.3125 7.51561 37.586 7.49217 37.8516 7.49217C38.1328 7.49217 38.3907 7.53905 38.625 7.6328C39.0938 7.8203 39.4766 8.10155 39.7735 8.47655C40.086 8.85155 40.3438 9.26561 40.5469 9.71873C40.7344 10.1562 40.9141 10.6015 41.086 11.0547C41.2578 11.4922 41.3516 11.9453 41.3672 12.414C41.3828 12.8984 41.3125 13.3515 41.1563 13.7734C41 14.1953 40.7813 14.5781 40.5 14.9219C40.2344 15.2656 39.9141 15.5703 39.5391 15.8359C39.1641 16.1015 38.7657 16.3281 38.3438 16.5156C37.8907 16.7187 37.4219 16.8984 36.9375 17.0547C36.4532 17.2109 35.961 17.3125 35.461 17.3594C35.2422 17.3906 35.0313 17.3828 34.8282 17.3359C34.6407 17.289 34.461 17.2265 34.2891 17.1484C34.3203 18.6015 34.3516 20.039 34.3828 21.4609C34.4297 22.8828 34.5 24.3125 34.5938 25.75ZM34.1016 10.7265C34.1328 11.4453 34.1563 12.164 34.1719 12.8828C34.1875 13.5859 34.211 14.2969 34.2422 15.0156C34.336 15.0781 34.4297 15.1406 34.5235 15.2031C34.6172 15.25 34.7188 15.3047 34.8282 15.3672C34.9532 15.4453 35.0547 15.4922 35.1328 15.5078C35.211 15.5078 35.336 15.4922 35.5078 15.4609C35.8516 15.3828 36.1953 15.3047 36.5391 15.2265C36.8828 15.1328 37.211 15.0078 37.5235 14.8515C37.8203 14.7109 38.1016 14.5625 38.3672 14.4062C38.6328 14.2344 38.875 14.0156 39.0938 13.75C39.2344 13.5781 39.3438 13.3828 39.4219 13.164C39.5 12.9297 39.5235 12.6797 39.4922 12.414C39.4766 12.1015 39.3985 11.7812 39.2578 11.4531C39.1328 11.125 39.0078 10.8203 38.8828 10.539C38.8047 10.3984 38.7266 10.2578 38.6485 10.1172C38.586 9.96092 38.5078 9.8203 38.4141 9.6953C38.2735 9.55467 38.1641 9.46873 38.086 9.43748C37.6485 9.40623 37.2657 9.42967 36.9375 9.5078C36.6094 9.58592 36.2813 9.6953 35.9532 9.83592C35.6407 9.96092 35.3282 10.1015 35.0157 10.2578C34.7032 10.414 34.3985 10.5703 34.1016 10.7265ZM43.5469 5.21873C43.7188 4.84373 43.9375 4.49217 44.2032 4.16405C44.4688 3.8203 44.7657 3.52342 45.0938 3.27342C45.4375 3.0078 45.8047 2.80467 46.1953 2.66405C46.586 2.5078 46.9922 2.42967 47.4141 2.42967C48.2578 2.4453 49.0469 2.66405 49.7813 3.08592C50.5157 3.5078 51.1328 4.05467 51.6328 4.72655C51.9922 5.21092 52.2188 5.71873 52.3125 6.24998C52.4219 6.78123 52.4766 7.34373 52.4766 7.93748C52.4922 8.89061 52.4375 9.85155 52.3125 10.8203C52.1875 11.789 52 12.7422 51.75 13.6797C51.6407 14.0859 51.5157 14.5 51.375 14.9219C51.2344 15.3437 51.0547 15.75 50.836 16.1406C50.6328 16.5312 50.3828 16.8906 50.086 17.2187C49.8047 17.5312 49.4688 17.789 49.0782 17.9922C48.375 18.3515 47.7344 18.4765 47.1563 18.3672C46.5938 18.2578 46.086 18 45.6328 17.5937C45.1953 17.1875 44.8125 16.6719 44.4844 16.0469C44.1563 15.4062 43.8828 14.75 43.6641 14.0781C43.4453 13.3906 43.2735 12.7187 43.1485 12.0625C43.0235 11.3906 42.9375 10.8203 42.8907 10.3515C42.8125 9.47655 42.8047 8.60155 42.8672 7.72655C42.9453 6.85155 43.1719 6.01561 43.5469 5.21873ZM50.5547 6.78905C50.4766 6.42967 50.2969 6.0703 50.0157 5.71092C49.75 5.35155 49.4297 5.04686 49.0547 4.79686C48.6797 4.54686 48.2735 4.3828 47.836 4.30467C47.4141 4.22655 47.0157 4.28905 46.6407 4.49217C46.125 4.77342 45.7266 5.14061 45.4453 5.59373C45.1797 6.04686 44.9844 6.54686 44.8594 7.09373C44.75 7.62498 44.6875 8.17967 44.6719 8.7578C44.6719 9.3203 44.6953 9.85155 44.7422 10.3515C44.8203 11.1484 44.9688 11.9844 45.1875 12.8594C45.4219 13.7344 45.75 14.5312 46.1719 15.25C46.2969 15.4375 46.3985 15.5937 46.4766 15.7187C46.5547 15.8281 46.6719 15.9531 46.8282 16.0937C46.9375 16.2031 47.0078 16.2734 47.0391 16.3047C47.086 16.3203 47.1094 16.3359 47.1094 16.3515L47.3438 16.4453C47.4688 16.4765 47.5469 16.5 47.5782 16.5156C47.6094 16.5156 47.6328 16.5156 47.6485 16.5156C47.7735 16.4844 47.8594 16.4687 47.9063 16.4687C48 16.4375 48.1094 16.3906 48.2344 16.3281C48.3594 16.2656 48.4844 16.1797 48.6094 16.0703L48.8203 15.8594C48.9141 15.7187 48.9766 15.6172 49.0078 15.5547C49.0547 15.4922 49.0938 15.4297 49.125 15.3672C49.1719 15.289 49.2188 15.2109 49.2657 15.1328C49.3125 15.039 49.3516 14.9531 49.3828 14.875C49.4297 14.7812 49.461 14.7187 49.4766 14.6875C49.4922 14.6406 49.5235 14.5547 49.5703 14.4297C49.7422 13.9765 49.8828 13.5234 49.9922 13.0703C50.1016 12.6172 50.1953 12.1562 50.2735 11.6875C50.3516 11.2344 50.4141 10.7812 50.461 10.3281C50.5235 9.87498 50.5703 9.41405 50.6016 8.9453C50.6016 8.72655 50.6016 8.51561 50.6016 8.31248C50.6172 8.09373 50.6172 7.87498 50.6016 7.65623C50.6016 7.56248 50.6016 7.47655 50.6016 7.39842C50.6016 7.30467 50.5938 7.21092 50.5782 7.11717C50.5782 7.08592 50.5703 7.03123 50.5547 6.95311C50.5547 6.87498 50.5547 6.8203 50.5547 6.78905ZM55.6641 18.9062C55.3985 18.8281 55.211 18.6797 55.1016 18.4609C55.0078 18.2422 54.9844 18.0078 55.0313 17.7578C55.2657 16.4922 55.4297 15.2265 55.5235 13.9609C55.6172 12.6953 55.6719 11.4297 55.6875 10.164C55.7032 8.8828 55.6953 7.60155 55.6641 6.3203C55.6485 5.03905 55.6407 3.76561 55.6407 2.49998C55.6407 2.20311 55.7344 1.98436 55.9219 1.84373C56.125 1.68748 56.3438 1.60936 56.5782 1.60936C56.8125 1.60936 57.0235 1.68748 57.211 1.84373C57.4141 1.98436 57.5157 2.20311 57.5157 2.49998C57.5157 3.81248 57.5235 5.1328 57.5391 6.46092C57.5703 7.77342 57.5703 9.08592 57.5391 10.3984C57.5235 11.7109 57.461 13.0234 57.3516 14.3359C57.2422 15.6484 57.0625 16.9531 56.8125 18.25C56.7657 18.5 56.6172 18.6875 56.3672 18.8125C56.1328 18.9375 55.8985 18.9687 55.6641 18.9062ZM69.7266 5.3828C69.6797 6.0703 69.5938 6.7578 69.4688 7.4453C69.3594 8.11717 69.3203 8.79686 69.3516 9.48436C69.3828 10.2344 69.4141 10.9844 69.4453 11.7344C69.4766 12.4844 69.4844 13.2422 69.4688 14.0078C69.4375 14.8047 69.4141 15.6015 69.3985 16.3984C69.3828 17.1953 69.3828 17.9922 69.3985 18.789C69.3985 19.0859 69.2969 19.3047 69.0938 19.4453C68.9063 19.6015 68.6953 19.6797 68.461 19.6797C68.2266 19.6797 68.0078 19.6015 67.8047 19.4453C67.6172 19.3047 67.5235 19.0859 67.5235 18.789C67.5078 17.664 67.5235 16.5469 67.5703 15.4375C67.6172 14.3281 67.6328 13.2109 67.6172 12.0859C66.5235 12.3984 65.3672 12.4531 64.1485 12.25C63.8672 12.2031 63.5703 12.1562 63.2578 12.1094C62.9453 12.0469 62.6407 11.9687 62.3438 11.875C62.0469 11.7812 61.7657 11.6562 61.5 11.5C61.2344 11.3437 61.0078 11.1406 60.8203 10.8906C60.6485 10.6406 60.5313 10.3594 60.4688 10.0469C60.4219 9.73436 60.4141 9.42186 60.4453 9.10936C60.4922 8.78123 60.5547 8.46092 60.6328 8.14842C60.7266 7.83592 60.8282 7.54686 60.9375 7.28123C61.2344 6.54686 61.5938 5.85155 62.0157 5.1953C62.4375 4.53905 62.9219 3.93748 63.4688 3.39061C63.875 2.98436 64.3203 2.62498 64.8047 2.31248C65.2891 1.99998 65.8047 1.7578 66.3516 1.58592C66.711 1.46092 67.086 1.39061 67.4766 1.37498C67.8672 1.35936 68.2266 1.45311 68.5547 1.65623C68.8672 1.84373 69.1094 2.08592 69.2813 2.3828C69.4532 2.66405 69.5703 2.97655 69.6328 3.3203C69.711 3.66405 69.75 4.01561 69.75 4.37498C69.75 4.71873 69.7422 5.05467 69.7266 5.3828ZM67.8985 4.86717C67.8985 4.71092 67.8985 4.55467 67.8985 4.39842C67.8985 4.24217 67.8907 4.08592 67.875 3.92967C67.8594 3.92967 67.8438 3.89061 67.8282 3.81248C67.8282 3.71873 67.8203 3.65623 67.8047 3.62498C67.7422 3.43748 67.6953 3.33592 67.6641 3.3203L67.336 3.24998C66.836 3.35936 66.3907 3.53123 66 3.76561C65.6094 3.99998 65.2422 4.28123 64.8985 4.60936C64.0078 5.48436 63.3125 6.47655 62.8125 7.58592C62.7032 7.8203 62.6016 8.06248 62.5078 8.31248C62.4297 8.56248 62.375 8.81248 62.3438 9.06248C62.3438 9.17186 62.336 9.28123 62.3203 9.39061C62.3203 9.48436 62.3282 9.57811 62.3438 9.67186L62.5313 9.92967C62.6875 9.99217 62.7891 10.0312 62.836 10.0469C62.8828 10.0625 62.9297 10.0781 62.9766 10.0937C63.5391 10.2344 64.1016 10.3515 64.6641 10.4453C65.6953 10.6172 66.6485 10.5234 67.5235 10.164C67.5078 9.92967 67.4922 9.6953 67.4766 9.46092C67.4766 9.21092 67.4844 8.96873 67.5 8.73436C67.5313 8.45311 67.5625 8.17186 67.5938 7.89061C67.625 7.60936 67.6563 7.33592 67.6875 7.0703C67.7344 6.71092 67.7735 6.35155 67.8047 5.99217C67.8516 5.61717 67.8828 5.24217 67.8985 4.86717ZM72.5391 5.21873C72.711 4.84373 72.9297 4.49217 73.1953 4.16405C73.461 3.8203 73.7578 3.52342 74.086 3.27342C74.4297 3.0078 74.7969 2.80467 75.1875 2.66405C75.5782 2.5078 75.9844 2.42967 76.4063 2.42967C77.25 2.4453 78.0391 2.66405 78.7735 3.08592C79.5078 3.5078 80.125 4.05467 80.625 4.72655C80.9844 5.21092 81.211 5.71873 81.3047 6.24998C81.4141 6.78123 81.4688 7.34373 81.4688 7.93748C81.4844 8.89061 81.4297 9.85155 81.3047 10.8203C81.1797 11.789 80.9922 12.7422 80.7422 13.6797C80.6328 14.0859 80.5078 14.5 80.3672 14.9219C80.2266 15.3437 80.0469 15.75 79.8282 16.1406C79.625 16.5312 79.375 16.8906 79.0782 17.2187C78.7969 17.5312 78.461 17.789 78.0703 17.9922C77.3672 18.3515 76.7266 18.4765 76.1485 18.3672C75.586 18.2578 75.0782 18 74.625 17.5937C74.1875 17.1875 73.8047 16.6719 73.4766 16.0469C73.1485 15.4062 72.875 14.75 72.6563 14.0781C72.4375 13.3906 72.2657 12.7187 72.1407 12.0625C72.0157 11.3906 71.9297 10.8203 71.8828 10.3515C71.8047 9.47655 71.7969 8.60155 71.8594 7.72655C71.9375 6.85155 72.1641 6.01561 72.5391 5.21873ZM79.5469 6.78905C79.4688 6.42967 79.2891 6.0703 79.0078 5.71092C78.7422 5.35155 78.4219 5.04686 78.0469 4.79686C77.6719 4.54686 77.2657 4.3828 76.8282 4.30467C76.4063 4.22655 76.0078 4.28905 75.6328 4.49217C75.1172 4.77342 74.7188 5.14061 74.4375 5.59373C74.1719 6.04686 73.9766 6.54686 73.8516 7.09373C73.7422 7.62498 73.6797 8.17967 73.6641 8.7578C73.6641 9.3203 73.6875 9.85155 73.7344 10.3515C73.8125 11.1484 73.961 11.9844 74.1797 12.8594C74.4141 13.7344 74.7422 14.5312 75.1641 15.25C75.2891 15.4375 75.3907 15.5937 75.4688 15.7187C75.5469 15.8281 75.6641 15.9531 75.8203 16.0937C75.9297 16.2031 76 16.2734 76.0313 16.3047C76.0782 16.3203 76.1016 16.3359 76.1016 16.3515L76.336 16.4453C76.461 16.4765 76.5391 16.5 76.5703 16.5156C76.6016 16.5156 76.625 16.5156 76.6407 16.5156C76.7657 16.4844 76.8516 16.4687 76.8985 16.4687C76.9922 16.4375 77.1016 16.3906 77.2266 16.3281C77.3516 16.2656 77.4766 16.1797 77.6016 16.0703L77.8125 15.8594C77.9063 15.7187 77.9688 15.6172 78 15.5547C78.0469 15.4922 78.086 15.4297 78.1172 15.3672C78.1641 15.289 78.211 15.2109 78.2578 15.1328C78.3047 15.039 78.3438 14.9531 78.375 14.875C78.4219 14.7812 78.4532 14.7187 78.4688 14.6875C78.4844 14.6406 78.5157 14.5547 78.5625 14.4297C78.7344 13.9765 78.875 13.5234 78.9844 13.0703C79.0938 12.6172 79.1875 12.1562 79.2657 11.6875C79.3438 11.2344 79.4063 10.7812 79.4532 10.3281C79.5157 9.87498 79.5625 9.41405 79.5938 8.9453C79.5938 8.72655 79.5938 8.51561 79.5938 8.31248C79.6094 8.09373 79.6094 7.87498 79.5938 7.65623C79.5938 7.56248 79.5938 7.47655 79.5938 7.39842C79.5938 7.30467 79.586 7.21092 79.5703 7.11717C79.5703 7.08592 79.5625 7.03123 79.5469 6.95311C79.5469 6.87498 79.5469 6.8203 79.5469 6.78905ZM83.7657 5.21873C83.9375 4.84373 84.1563 4.49217 84.4219 4.16405C84.6875 3.8203 84.9844 3.52342 85.3125 3.27342C85.6563 3.0078 86.0235 2.80467 86.4141 2.66405C86.8047 2.5078 87.211 2.42967 87.6328 2.42967C88.4766 2.4453 89.2657 2.66405 90 3.08592C90.7344 3.5078 91.3516 4.05467 91.8516 4.72655C92.211 5.21092 92.4375 5.71873 92.5313 6.24998C92.6407 6.78123 92.6953 7.34373 92.6953 7.93748C92.711 8.89061 92.6563 9.85155 92.5313 10.8203C92.4063 11.789 92.2188 12.7422 91.9688 13.6797C91.8594 14.0859 91.7344 14.5 91.5938 14.9219C91.4532 15.3437 91.2735 15.75 91.0547 16.1406C90.8516 16.5312 90.6016 16.8906 90.3047 17.2187C90.0235 17.5312 89.6875 17.789 89.2969 17.9922C88.5938 18.3515 87.9532 18.4765 87.375 18.3672C86.8125 18.2578 86.3047 18 85.8516 17.5937C85.4141 17.1875 85.0313 16.6719 84.7032 16.0469C84.375 15.4062 84.1016 14.75 83.8828 14.0781C83.6641 13.3906 83.4922 12.7187 83.3672 12.0625C83.2422 11.3906 83.1563 10.8203 83.1094 10.3515C83.0313 9.47655 83.0235 8.60155 83.086 7.72655C83.1641 6.85155 83.3907 6.01561 83.7657 5.21873ZM90.7735 6.78905C90.6953 6.42967 90.5157 6.0703 90.2344 5.71092C89.9688 5.35155 89.6485 5.04686 89.2735 4.79686C88.8985 4.54686 88.4922 4.3828 88.0547 4.30467C87.6328 4.22655 87.2344 4.28905 86.8594 4.49217C86.3438 4.77342 85.9453 5.14061 85.6641 5.59373C85.3985 6.04686 85.2032 6.54686 85.0782 7.09373C84.9688 7.62498 84.9063 8.17967 84.8907 8.7578C84.8907 9.3203 84.9141 9.85155 84.961 10.3515C85.0391 11.1484 85.1875 11.9844 85.4063 12.8594C85.6407 13.7344 85.9688 14.5312 86.3907 15.25C86.5157 15.4375 86.6172 15.5937 86.6953 15.7187C86.7735 15.8281 86.8907 15.9531 87.0469 16.0937C87.1563 16.2031 87.2266 16.2734 87.2578 16.3047C87.3047 16.3203 87.3282 16.3359 87.3282 16.3515L87.5625 16.4453C87.6875 16.4765 87.7657 16.5 87.7969 16.5156C87.8282 16.5156 87.8516 16.5156 87.8672 16.5156C87.9922 16.4844 88.0782 16.4687 88.125 16.4687C88.2188 16.4375 88.3282 16.3906 88.4532 16.3281C88.5782 16.2656 88.7032 16.1797 88.8282 16.0703L89.0391 15.8594C89.1328 15.7187 89.1953 15.6172 89.2266 15.5547C89.2735 15.4922 89.3125 15.4297 89.3438 15.3672C89.3907 15.289 89.4375 15.2109 89.4844 15.1328C89.5313 15.039 89.5703 14.9531 89.6016 14.875C89.6485 14.7812 89.6797 14.7187 89.6953 14.6875C89.711 14.6406 89.7422 14.5547 89.7891 14.4297C89.961 13.9765 90.1016 13.5234 90.211 13.0703C90.3203 12.6172 90.4141 12.1562 90.4922 11.6875C90.5703 11.2344 90.6328 10.7812 90.6797 10.3281C90.7422 9.87498 90.7891 9.41405 90.8203 8.9453C90.8203 8.72655 90.8203 8.51561 90.8203 8.31248C90.836 8.09373 90.836 7.87498 90.8203 7.65623C90.8203 7.56248 90.8203 7.47655 90.8203 7.39842C90.8203 7.30467 90.8125 7.21092 90.7969 7.11717C90.7969 7.08592 90.7891 7.03123 90.7735 6.95311C90.7735 6.87498 90.7735 6.8203 90.7735 6.78905ZM102.703 19.1875C102.156 19.2187 101.602 19.2265 101.039 19.2109C100.477 19.2109 99.9219 19.1562 99.375 19.0469C98.2344 18.8125 97.2344 18.3125 96.375 17.5469C95.5157 16.7812 94.9063 15.8437 94.5469 14.7344C94.0782 13.3125 93.8594 11.875 93.8907 10.4219C93.9375 8.96873 94.2891 7.56248 94.9453 6.20311C95.211 5.65623 95.5078 5.10155 95.836 4.53905C96.1641 3.97655 96.5547 3.49217 97.0078 3.08592C98.0078 2.17967 99.1719 1.6328 100.5 1.4453C100.859 1.39842 101.203 1.35936 101.531 1.32811C101.875 1.29686 102.219 1.29686 102.563 1.32811C102.828 1.34373 103.117 1.35936 103.43 1.37498C103.758 1.37498 104.055 1.42186 104.32 1.51561C104.57 1.59373 104.797 1.70311 105 1.84373C105.219 1.96873 105.438 2.10936 105.656 2.26561C105.828 2.37498 105.992 2.47655 106.148 2.5703C106.32 2.64842 106.484 2.74217 106.641 2.85155C107.125 3.1953 107.508 3.61717 107.789 4.11717C108.086 4.60155 108.328 5.11717 108.516 5.66405C108.734 6.28905 108.914 6.93748 109.055 7.60936C109.195 8.28123 109.266 8.96092 109.266 9.64842C109.234 10.8515 109 12.0156 108.563 13.1406C108.391 13.625 108.18 14.1094 107.93 14.5937C107.695 15.0781 107.375 15.4844 106.969 15.8125C106.469 16.2187 105.938 16.4062 105.375 16.375C104.813 16.3281 104.273 16.1406 103.758 15.8125C103.148 15.4219 102.719 14.9453 102.469 14.3828C101.813 14.4922 101.148 14.4922 100.477 14.3828C99.8203 14.2578 99.25 13.9297 98.7657 13.3984C98.2657 12.8515 97.9375 12.2187 97.7813 11.5C97.6407 10.7812 97.6172 10.0547 97.711 9.3203C97.7578 8.99217 97.8203 8.67186 97.8985 8.35936C97.9766 8.03123 98.0938 7.72655 98.25 7.4453C98.4063 7.16405 98.6016 6.92186 98.836 6.71873C99.0703 6.49998 99.3594 6.33592 99.7032 6.22655C100.203 6.05467 100.719 5.99217 101.25 6.03905C101.797 6.0703 102.328 6.12498 102.844 6.20311C102.906 5.82811 103.063 5.57811 103.313 5.45311C103.563 5.32811 103.797 5.29686 104.016 5.35936C104.281 5.43748 104.469 5.58592 104.578 5.80467C104.688 6.02342 104.719 6.2578 104.672 6.5078C104.547 7.14842 104.461 7.78123 104.414 8.40623C104.383 9.01561 104.352 9.64842 104.32 10.3047C104.289 10.8203 104.234 11.3047 104.156 11.7578C104.078 12.1953 104.055 12.664 104.086 13.164C104.086 13.2734 104.102 13.3984 104.133 13.539C104.164 13.664 104.211 13.7578 104.273 13.8203C104.57 14.1484 104.914 14.3672 105.305 14.4765C105.445 14.5078 105.531 14.5156 105.563 14.5C105.656 14.4687 105.734 14.4219 105.797 14.3594C106.031 14.125 106.242 13.8203 106.43 13.4453C106.648 13.0234 106.836 12.5703 106.992 12.0859C107.148 11.6015 107.266 11.125 107.344 10.6562C107.422 10.0469 107.422 9.42967 107.344 8.80467C107.281 8.17967 107.164 7.5703 106.992 6.97655C106.867 6.5703 106.727 6.15623 106.57 5.73436C106.414 5.29686 106.18 4.92967 105.867 4.6328C105.742 4.5078 105.602 4.40623 105.445 4.32811C105.289 4.24998 105.141 4.16405 105 4.0703C104.828 3.9453 104.656 3.8203 104.484 3.6953C104.313 3.5703 104.133 3.46092 103.945 3.36717C103.789 3.3203 103.664 3.28905 103.57 3.27342C103.477 3.2578 103.445 3.24998 103.477 3.24998L102.563 3.17967C102.281 3.17967 101.992 3.17967 101.695 3.17967C101.414 3.17967 101.133 3.21092 100.852 3.27342C100.305 3.36717 99.7657 3.53905 99.2344 3.78905C98.7032 4.02342 98.2657 4.37498 97.9219 4.84373C97.125 5.92186 96.5235 7.09373 96.1172 8.35936C95.711 9.62498 95.625 10.9375 95.8594 12.2969C95.9688 12.8594 96.1016 13.414 96.2578 13.9609C96.4141 14.5078 96.6641 15.0156 97.0078 15.4844C97.2735 15.8906 97.6094 16.2344 98.0157 16.5156C98.4219 16.7812 98.8516 16.9765 99.3047 17.1015C99.7891 17.2265 100.281 17.3047 100.781 17.3359C101.297 17.3672 101.805 17.3672 102.305 17.3359C102.758 17.3203 103.219 17.2812 103.688 17.2187C104.172 17.1406 104.594 16.9765 104.953 16.7265C105.156 16.5703 105.383 16.539 105.633 16.6328C105.898 16.7109 106.094 16.8515 106.219 17.0547C106.359 17.289 106.391 17.5234 106.313 17.7578C106.25 17.9922 106.109 18.1797 105.891 18.3203C105.438 18.6484 104.93 18.8672 104.367 18.9765C103.805 19.0859 103.25 19.1562 102.703 19.1875ZM102.469 10.1406C102.5 9.78123 102.523 9.42967 102.539 9.08592C102.555 8.74217 102.578 8.39842 102.609 8.05467C102.422 8.02342 102.234 7.99998 102.047 7.98436C101.875 7.96873 101.695 7.95311 101.508 7.93748C101.383 7.92186 101.258 7.91405 101.133 7.91405C101.008 7.91405 100.883 7.91405 100.758 7.91405C100.586 7.9453 100.484 7.96092 100.453 7.96092C100.422 7.96092 100.391 7.96873 100.359 7.98436C100.219 8.03123 100.117 8.0703 100.055 8.10155C99.9453 8.21092 99.8907 8.27342 99.8907 8.28905C99.8125 8.41405 99.7657 8.49217 99.75 8.52342C99.7344 8.53905 99.711 8.6328 99.6797 8.80467C99.6485 8.91405 99.625 9.02342 99.6094 9.1328C99.5938 9.24217 99.5782 9.34373 99.5625 9.43748C99.5157 9.95311 99.5157 10.4531 99.5625 10.9375C99.6094 11.4062 99.7891 11.789 100.102 12.0859C100.195 12.1797 100.266 12.25 100.313 12.2969C100.359 12.3281 100.453 12.3828 100.594 12.4609C100.563 12.4297 100.586 12.4375 100.664 12.4844C100.758 12.5156 100.82 12.5312 100.852 12.5312C100.914 12.5469 100.969 12.5625 101.016 12.5781C101.063 12.5937 101.117 12.6015 101.18 12.6015C101.336 12.6328 101.508 12.6406 101.695 12.625C101.883 12.5937 102.063 12.5625 102.234 12.5312C102.25 12.4219 102.258 12.3203 102.258 12.2265C102.273 12.1328 102.289 12.039 102.305 11.9453C102.336 11.6953 102.367 11.414 102.398 11.1015C102.43 10.7734 102.453 10.4531 102.469 10.1406ZM110.977 25C111.32 25.3281 111.719 25.5547 112.172 25.6797C112.625 25.8203 113.078 25.8672 113.531 25.8203C113.984 25.7734 114.414 25.6406 114.82 25.4219C115.227 25.2031 115.563 24.8984 115.828 24.5078C116.391 23.7109 116.75 22.8281 116.906 21.8594C117.078 20.9062 117.148 19.9453 117.117 18.9765C116.367 19.1015 115.594 19.125 114.797 19.0469C114.016 18.9844 113.273 18.8203 112.57 18.5547C112.211 18.414 111.867 18.25 111.539 18.0625C111.227 17.8594 110.977 17.5781 110.789 17.2187C110.461 16.6094 110.32 15.9375 110.367 15.2031C110.398 14.5 110.516 13.8203 110.719 13.164C110.938 12.4922 111.18 11.8281 111.445 11.1719C111.586 10.8594 111.734 10.5312 111.891 10.1875C112.063 9.82811 112.281 9.5078 112.547 9.22655C112.813 8.92967 113.117 8.70311 113.461 8.54686C113.805 8.39061 114.172 8.29686 114.563 8.26561C114.5 8.04686 114.5 7.84373 114.563 7.65623C114.625 7.45311 114.758 7.28905 114.961 7.16405C115.164 7.03905 115.398 7.0078 115.664 7.0703C115.945 7.1328 116.141 7.27342 116.25 7.49217C116.313 7.6328 116.367 7.77342 116.414 7.91405C116.477 8.05467 116.531 8.1953 116.578 8.33592C116.891 9.17967 117.172 10.0312 117.422 10.8906C117.688 11.75 117.938 12.6172 118.172 13.4922C118.453 14.5234 118.664 15.5703 118.805 16.6328C118.945 17.6953 119 18.7734 118.969 19.8672C118.953 20.4765 118.898 21.1015 118.805 21.7422C118.727 22.3828 118.586 23 118.383 23.5937C118.18 24.1875 117.914 24.75 117.586 25.2812C117.258 25.8281 116.836 26.2969 116.32 26.6875C115.836 27.0625 115.297 27.3281 114.703 27.4844C114.125 27.6562 113.531 27.7265 112.922 27.6953C112.328 27.664 111.742 27.5312 111.164 27.2969C110.602 27.0625 110.102 26.7344 109.664 26.3125C109.445 26.1094 109.352 25.8828 109.383 25.6328C109.414 25.3984 109.516 25.1953 109.688 25.0234C109.844 24.8672 110.039 24.7734 110.273 24.7422C110.523 24.7109 110.758 24.7969 110.977 25ZM113.578 16.914C114.125 17.0547 114.688 17.1562 115.266 17.2187C115.859 17.2656 116.43 17.2265 116.977 17.1015C116.883 16.3047 116.742 15.539 116.555 14.8047C116.383 14.0703 116.188 13.3281 115.969 12.5781C115.844 12.1406 115.711 11.7109 115.57 11.289C115.445 10.8672 115.313 10.4453 115.172 10.0234C115.125 10.0547 115.07 10.0781 115.008 10.0937C114.945 10.0937 114.875 10.1015 114.797 10.1172C114.328 10.1172 113.969 10.3281 113.719 10.75C113.547 11.0156 113.406 11.2969 113.297 11.5937C113.266 11.6719 113.234 11.75 113.203 11.8281C113.172 11.8906 113.141 11.9609 113.109 12.039C112.875 12.6015 112.672 13.1484 112.5 13.6797C112.344 14.1953 112.25 14.7031 112.219 15.2031V15.625C112.234 15.7344 112.25 15.8203 112.266 15.8828C112.297 16.0234 112.313 16.1094 112.313 16.1406C112.328 16.1719 112.375 16.25 112.453 16.375C112.547 16.4531 112.633 16.5156 112.711 16.5625C112.789 16.6094 112.836 16.6406 112.852 16.6562C112.977 16.7031 113.094 16.75 113.203 16.7969C113.328 16.8437 113.453 16.8828 113.578 16.914ZM122.648 19.3047C122.43 19.3828 122.188 19.3594 121.922 19.2344C121.672 19.1094 121.531 18.9219 121.5 18.6719C121.281 17.2969 121.141 15.9375 121.078 14.5937C121.031 13.2344 121.008 11.8672 121.008 10.4922C121.008 10.2578 121.07 10.0703 121.195 9.92967C121.32 9.78905 121.469 9.6953 121.641 9.64842C121.813 9.60155 121.992 9.59373 122.18 9.62498C122.367 9.65623 122.523 9.73436 122.648 9.85936C123.008 9.56248 123.391 9.30467 123.797 9.08592C124.203 8.86717 124.609 8.72655 125.016 8.66405C125.438 8.58592 125.852 8.60936 126.258 8.73436C126.664 8.84373 127.047 9.08592 127.406 9.46092C127.703 9.77342 127.961 10.1094 128.18 10.4687C128.398 10.8125 128.594 11.1797 128.766 11.5703C129 10.9765 129.328 10.4297 129.75 9.92967C130.172 9.42967 130.711 9.09373 131.367 8.92186C131.852 8.79686 132.234 8.82811 132.516 9.01561C132.797 9.18748 133.063 9.46092 133.313 9.83592C133.578 10.2265 133.82 10.625 134.039 11.0312C134.273 11.4375 134.492 11.8515 134.695 12.2734C134.898 12.6953 135.094 13.1172 135.281 13.539C135.469 13.9609 135.656 14.375 135.844 14.7812C136.063 15.2344 136.25 15.6875 136.406 16.1406C136.578 16.5781 136.688 17.0469 136.734 17.5469C136.766 17.8125 136.672 18.039 136.453 18.2265C136.25 18.3984 136.031 18.4844 135.797 18.4844C135.531 18.4844 135.313 18.3984 135.141 18.2265C134.984 18.039 134.891 17.8125 134.859 17.5469C134.828 17.1719 134.727 16.8125 134.555 16.4687C134.398 16.1094 134.242 15.7578 134.086 15.414C133.914 15.0547 133.742 14.6875 133.57 14.3125C133.414 13.9375 133.25 13.5703 133.078 13.2109C132.906 12.8515 132.719 12.4922 132.516 12.1328C132.328 11.7734 132.125 11.4219 131.906 11.0781C131.875 11.0312 131.844 10.9844 131.813 10.9375C131.781 10.8906 131.75 10.8437 131.719 10.7969C131.406 10.9687 131.18 11.1328 131.039 11.289C130.898 11.4453 130.766 11.6562 130.641 11.9219C130.531 12.1562 130.438 12.4062 130.359 12.6719C130.297 12.9219 130.242 13.1797 130.195 13.4453C130.102 13.9453 130.031 14.4687 129.984 15.0156C129.953 15.4219 129.953 15.8125 129.984 16.1875C130.031 16.5625 130.016 16.9531 129.938 17.3594C129.891 17.6094 129.742 17.7969 129.492 17.9219C129.258 18.0469 129.023 18.0781 128.789 18.0156C128.57 17.9531 128.406 17.8437 128.297 17.6875C128.203 17.5156 128.141 17.3203 128.109 17.1015C128.047 16.6015 127.977 16.0859 127.898 15.5547C127.82 15.0234 127.719 14.5 127.594 13.9844C127.469 13.4531 127.305 12.9453 127.102 12.4609C126.914 11.9609 126.664 11.5 126.352 11.0781C126.133 10.7969 125.906 10.6094 125.672 10.5156C125.453 10.4219 125.18 10.4609 124.852 10.6328C124.492 10.8203 124.141 11.0469 123.797 11.3125C123.453 11.5781 123.148 11.875 122.883 12.2031C122.898 13.2031 122.93 14.2031 122.977 15.2031C123.039 16.1875 123.148 17.1719 123.305 18.1562C123.336 18.4219 123.297 18.664 123.188 18.8828C123.094 19.0859 122.914 19.2265 122.648 19.3047ZM139.852 18.3672C139.32 18.1328 138.898 17.8125 138.586 17.4062C138.289 16.9844 138.078 16.5234 137.953 16.0234C137.844 15.5234 137.813 15.0078 137.859 14.4765C137.906 13.9297 138.016 13.4062 138.188 12.9062C138.328 12.5156 138.484 12.1094 138.656 11.6875C138.844 11.2656 139.063 10.875 139.313 10.5156C139.563 10.1562 139.859 9.85155 140.203 9.60155C140.547 9.33592 140.953 9.16405 141.422 9.08592C141.906 9.0078 142.391 8.98436 142.875 9.01561C143.375 9.03123 143.867 9.07811 144.352 9.15623C144.57 9.18748 144.781 9.24217 144.984 9.3203C145.188 9.3828 145.391 9.45311 145.594 9.53123C145.609 9.29686 145.711 9.10155 145.898 8.9453C146.102 8.78905 146.313 8.71092 146.531 8.71092C146.797 8.71092 147.008 8.80467 147.164 8.99217C147.336 9.16405 147.438 9.37498 147.469 9.62498C147.547 10.3437 147.578 11.0625 147.563 11.7812C147.563 12.5 147.539 13.2187 147.492 13.9375C147.461 14.6562 147.43 15.375 147.398 16.0937C147.383 16.8125 147.391 17.5312 147.422 18.25C147.438 18.5469 147.344 18.7734 147.141 18.9297C146.953 19.0703 146.742 19.1406 146.508 19.1406C146.273 19.1406 146.055 19.0703 145.852 18.9297C145.664 18.7734 145.563 18.5469 145.547 18.25C144.656 18.625 143.711 18.8437 142.711 18.9062C141.711 18.9531 140.758 18.7734 139.852 18.3672ZM140.016 13.2812C139.922 13.5625 139.836 13.8828 139.758 14.2422C139.68 14.6015 139.656 14.9453 139.688 15.2734C139.719 15.6015 139.82 15.9062 139.992 16.1875C140.164 16.4531 140.445 16.6406 140.836 16.75C141.633 17 142.43 17.0703 143.227 16.9609C144.039 16.8515 144.797 16.5703 145.5 16.1172C145.563 15.3515 145.609 14.6094 145.641 13.8906C145.688 13.1719 145.703 12.4453 145.688 11.7109C145.422 11.539 145.148 11.3906 144.867 11.2656C144.602 11.125 144.305 11.0312 143.977 10.9844C143.648 10.9375 143.297 10.9062 142.922 10.8906C142.563 10.8594 142.211 10.8594 141.867 10.8906C141.836 10.8906 141.75 10.914 141.609 10.9609C141.484 10.9922 141.414 11.0156 141.398 11.0312C141.242 11.1094 141.102 11.2344 140.977 11.4062C140.773 11.6875 140.594 11.9922 140.438 12.3203C140.281 12.6328 140.141 12.9531 140.016 13.2812ZM149.859 18.7656C149.984 18.0156 150.125 17.2812 150.281 16.5625C150.453 15.8281 150.578 15.0859 150.656 14.3359C150.719 13.6015 150.727 12.8828 150.68 12.1797C150.648 11.4609 150.695 10.7344 150.82 9.99998C150.852 9.74998 150.992 9.56248 151.242 9.43748C151.508 9.31248 151.75 9.28123 151.969 9.34373C152.234 9.42186 152.414 9.5703 152.508 9.78905C152.617 10.0078 152.656 10.2422 152.625 10.4922C152.563 10.8515 152.531 11.2187 152.531 11.5937C152.547 11.9687 152.563 12.3437 152.578 12.7187C152.578 13.4375 152.531 14.1562 152.438 14.875C152.344 15.625 152.219 16.3594 152.063 17.0781C151.922 17.7969 151.789 18.5234 151.664 19.2578C151.617 19.5078 151.469 19.6953 151.219 19.8203C150.969 19.9453 150.734 19.9765 150.516 19.914C150.25 19.8359 150.063 19.6875 149.953 19.4687C149.844 19.25 149.813 19.0156 149.859 18.7656ZM150.984 7.98436C150.875 7.95311 150.766 7.90623 150.656 7.84373C150.547 7.76561 150.469 7.67186 150.422 7.56248C150.375 7.43748 150.336 7.32811 150.305 7.23436C150.273 7.14061 150.258 7.03123 150.258 6.90623C150.258 6.76561 150.281 6.62498 150.328 6.48436C150.391 6.20311 150.516 5.99998 150.703 5.87498C150.766 5.78123 150.852 5.71092 150.961 5.66405C151.133 5.55467 151.328 5.49998 151.547 5.49998C151.766 5.48436 151.961 5.53905 152.133 5.66405C152.211 5.72655 152.289 5.79686 152.367 5.87498C152.445 5.93748 152.508 6.02342 152.555 6.1328C152.586 6.21092 152.617 6.29686 152.648 6.39061C152.695 6.48436 152.711 6.57811 152.695 6.67186C152.68 6.78123 152.664 6.8828 152.648 6.97655C152.633 7.0703 152.594 7.15623 152.531 7.23436C152.453 7.34373 152.391 7.42186 152.344 7.46873C152.297 7.51561 152.219 7.57811 152.109 7.65623C152.047 7.71873 151.953 7.76561 151.828 7.79686C151.5 7.98436 151.219 8.04686 150.984 7.98436ZM156.656 0.601547C156.938 0.601547 157.156 0.695297 157.313 0.882797C157.469 1.0703 157.563 1.28905 157.594 1.53905C157.75 3.02342 157.836 4.5078 157.852 5.99217C157.867 7.47655 157.844 8.96092 157.781 10.4453C157.734 11.9297 157.656 13.414 157.547 14.8984C157.438 16.3828 157.328 17.8594 157.219 19.3281C157.188 19.5937 157.086 19.8125 156.914 19.9844C156.758 20.1719 156.547 20.2656 156.281 20.2656C156.047 20.2656 155.828 20.1719 155.625 19.9844C155.422 19.8125 155.328 19.5937 155.344 19.3281C155.453 17.8594 155.563 16.3828 155.672 14.8984C155.797 13.414 155.883 11.9297 155.93 10.4453C155.992 8.96092 156.016 7.47655 156 5.99217C155.984 4.5078 155.898 3.02342 155.742 1.53905C155.711 1.28905 155.797 1.0703 156 0.882797C156.203 0.695297 156.422 0.601547 156.656 0.601547ZM161.508 17.3594C161.711 17.4844 161.867 17.6719 161.977 17.9219C162.086 18.1719 162.102 18.4062 162.023 18.625C161.93 18.8906 161.773 19.0859 161.555 19.2109C161.383 19.3984 161.164 19.4844 160.898 19.4687C160.633 19.4687 160.414 19.3828 160.242 19.2109C160.008 19.0234 159.859 18.8672 159.797 18.7422C159.672 18.5234 159.633 18.3047 159.68 18.0859C159.742 17.8672 159.867 17.6797 160.055 17.5234C160.086 17.4922 160.125 17.4609 160.172 17.4297C160.219 17.3828 160.266 17.3437 160.313 17.3125C160.453 17.25 160.531 17.2187 160.547 17.2187C160.578 17.2187 160.672 17.2031 160.828 17.1719C160.953 17.1719 161.047 17.1875 161.109 17.2187C161.266 17.25 161.398 17.2969 161.508 17.3594ZM170.32 17.1719C170.383 17.3906 170.352 17.625 170.227 17.875C170.102 18.125 169.914 18.2734 169.664 18.3203C168.82 18.4609 167.984 18.4531 167.156 18.2969C166.328 18.125 165.563 17.7656 164.859 17.2187C164.172 16.6719 163.68 15.9765 163.383 15.1328C163.102 14.2734 163.055 13.414 163.242 12.5547C163.414 11.789 163.773 11.125 164.32 10.5625C164.867 9.99998 165.492 9.56248 166.195 9.24998C166.82 8.95311 167.477 8.71873 168.164 8.54686C168.852 8.37498 169.539 8.3203 170.227 8.3828C170.492 8.41405 170.711 8.51561 170.883 8.68748C171.07 8.84373 171.164 9.05467 171.164 9.3203C171.164 9.55467 171.07 9.77342 170.883 9.97655C170.711 10.1797 170.492 10.2734 170.227 10.2578C169.727 10.2109 169.234 10.2344 168.75 10.3281C168.266 10.4219 167.797 10.5703 167.344 10.7734C167.078 10.8984 166.813 11.0312 166.547 11.1719C166.297 11.3125 166.078 11.4687 165.891 11.6406C165.688 11.8281 165.516 12.0156 165.375 12.2031C165.25 12.3906 165.156 12.6094 165.094 12.8594C165.031 13.1094 165.008 13.375 165.023 13.6562C165.039 13.9375 165.086 14.2187 165.164 14.5C165.258 14.7656 165.383 15.0156 165.539 15.25C165.695 15.4687 165.883 15.6562 166.102 15.8125C166.555 16.1406 167.047 16.3672 167.578 16.4922C168.125 16.6015 168.656 16.6094 169.172 16.5156C169.422 16.4687 169.656 16.5 169.875 16.6094C170.094 16.7187 170.242 16.9062 170.32 17.1719ZM178.172 8.1953C178.672 8.1328 179.195 8.11717 179.742 8.14842C180.289 8.16405 180.813 8.2578 181.313 8.42967C181.813 8.58592 182.266 8.82811 182.672 9.15623C183.078 9.48436 183.391 9.91405 183.609 10.4453C183.766 10.8203 183.844 11.2031 183.844 11.5937C183.859 11.9687 183.805 12.3359 183.68 12.6953C183.57 13.039 183.398 13.375 183.164 13.7031C182.945 14.0156 182.688 14.3047 182.391 14.5703C181.75 15.1484 181.047 15.6406 180.281 16.0469C179.516 16.4531 178.711 16.7656 177.867 16.9844C177.508 17.0781 177.133 17.164 176.742 17.2422C176.367 17.3047 175.984 17.3359 175.594 17.3359C175.203 17.3359 174.82 17.2969 174.445 17.2187C174.07 17.125 173.719 16.9765 173.391 16.7734C173.156 16.6328 173.016 16.4453 172.969 16.2109C172.875 15.9453 172.773 15.6953 172.664 15.4609C172.555 15.2265 172.445 14.9844 172.336 14.7344C172.242 14.4844 172.164 14.2344 172.102 13.9844C172.039 13.7344 172.008 13.4765 172.008 13.2109C172.008 12.6797 172.117 12.1797 172.336 11.7109C172.57 11.2265 172.883 10.8047 173.273 10.4453C173.93 9.8203 174.688 9.3203 175.547 8.9453C176.406 8.5703 177.281 8.3203 178.172 8.1953ZM180.82 10.2109C180.398 10.0547 179.945 9.97655 179.461 9.97655C178.945 9.96092 178.43 10.0156 177.914 10.1406C177.398 10.25 176.906 10.4062 176.438 10.6094C176 10.7812 175.547 11.0234 175.078 11.3359C174.625 11.6328 174.289 12 174.07 12.4375C173.945 12.6719 173.883 12.914 173.883 13.164C173.898 13.3984 173.938 13.6406 174 13.8906C174.078 14.125 174.172 14.3672 174.281 14.6172C174.406 14.8515 174.516 15.0859 174.609 15.3203C174.859 15.3828 175.016 15.414 175.078 15.414C175.109 15.4297 175.148 15.4375 175.195 15.4375C175.242 15.4375 175.281 15.4375 175.313 15.4375C175.625 15.4687 175.906 15.4609 176.156 15.414C176.328 15.414 176.547 15.3828 176.813 15.3203C177.219 15.2422 177.609 15.1406 177.984 15.0156C178.359 14.875 178.703 14.7265 179.016 14.5703C179.375 14.3984 179.727 14.2109 180.07 14.0078C180.414 13.8047 180.703 13.5937 180.938 13.375C181.094 13.2344 181.242 13.0859 181.383 12.9297C181.461 12.8515 181.516 12.789 181.547 12.7422C181.625 12.6328 181.688 12.5547 181.734 12.5078C181.781 12.4453 181.82 12.375 181.852 12.2969C181.914 12.1875 181.945 12.1015 181.945 12.039C181.961 12.0078 181.969 11.9687 181.969 11.9219C181.984 11.875 182 11.8359 182.016 11.8047V11.5469C182 11.4844 181.992 11.4375 181.992 11.4062C181.992 11.375 181.984 11.3437 181.969 11.3125C181.922 11.2031 181.875 11.125 181.828 11.0781C181.797 11.0156 181.758 10.9531 181.711 10.8906C181.727 10.9062 181.703 10.8828 181.641 10.8203C181.594 10.7578 181.563 10.7187 181.547 10.7031L181.359 10.5156C181.281 10.4687 181.195 10.414 181.102 10.3515C181.008 10.289 180.914 10.2422 180.82 10.2109ZM187.289 19.3047C187.07 19.3828 186.828 19.3594 186.563 19.2344C186.313 19.1094 186.172 18.9219 186.141 18.6719C185.922 17.2969 185.781 15.9375 185.719 14.5937C185.672 13.2344 185.648 11.8672 185.648 10.4922C185.648 10.2578 185.711 10.0703 185.836 9.92967C185.961 9.78905 186.109 9.6953 186.281 9.64842C186.453 9.60155 186.633 9.59373 186.82 9.62498C187.008 9.65623 187.164 9.73436 187.289 9.85936C187.648 9.56248 188.031 9.30467 188.438 9.08592C188.844 8.86717 189.25 8.72655 189.656 8.66405C190.078 8.58592 190.492 8.60936 190.898 8.73436C191.305 8.84373 191.688 9.08592 192.047 9.46092C192.344 9.77342 192.602 10.1094 192.82 10.4687C193.039 10.8125 193.234 11.1797 193.406 11.5703C193.641 10.9765 193.969 10.4297 194.391 9.92967C194.813 9.42967 195.352 9.09373 196.008 8.92186C196.492 8.79686 196.875 8.82811 197.156 9.01561C197.438 9.18748 197.703 9.46092 197.953 9.83592C198.219 10.2265 198.461 10.625 198.68 11.0312C198.914 11.4375 199.133 11.8515 199.336 12.2734C199.539 12.6953 199.734 13.1172 199.922 13.539C200.109 13.9609 200.297 14.375 200.484 14.7812C200.703 15.2344 200.891 15.6875 201.047 16.1406C201.219 16.5781 201.328 17.0469 201.375 17.5469C201.406 17.8125 201.313 18.039 201.094 18.2265C200.891 18.3984 200.672 18.4844 200.438 18.4844C200.172 18.4844 199.953 18.3984 199.781 18.2265C199.625 18.039 199.531 17.8125 199.5 17.5469C199.469 17.1719 199.367 16.8125 199.195 16.4687C199.039 16.1094 198.883 15.7578 198.727 15.414C198.555 15.0547 198.383 14.6875 198.211 14.3125C198.055 13.9375 197.891 13.5703 197.719 13.2109C197.547 12.8515 197.359 12.4922 197.156 12.1328C196.969 11.7734 196.766 11.4219 196.547 11.0781C196.516 11.0312 196.484 10.9844 196.453 10.9375C196.422 10.8906 196.391 10.8437 196.359 10.7969C196.047 10.9687 195.82 11.1328 195.68 11.289C195.539 11.4453 195.406 11.6562 195.281 11.9219C195.172 12.1562 195.078 12.4062 195 12.6719C194.938 12.9219 194.883 13.1797 194.836 13.4453C194.742 13.9453 194.672 14.4687 194.625 15.0156C194.594 15.4219 194.594 15.8125 194.625 16.1875C194.672 16.5625 194.656 16.9531 194.578 17.3594C194.531 17.6094 194.383 17.7969 194.133 17.9219C193.898 18.0469 193.664 18.0781 193.43 18.0156C193.211 17.9531 193.047 17.8437 192.938 17.6875C192.844 17.5156 192.781 17.3203 192.75 17.1015C192.688 16.6015 192.617 16.0859 192.539 15.5547C192.461 15.0234 192.359 14.5 192.234 13.9844C192.109 13.4531 191.945 12.9453 191.742 12.4609C191.555 11.9609 191.305 11.5 190.992 11.0781C190.773 10.7969 190.547 10.6094 190.313 10.5156C190.094 10.4219 189.82 10.4609 189.492 10.6328C189.133 10.8203 188.781 11.0469 188.438 11.3125C188.094 11.5781 187.789 11.875 187.523 12.2031C187.539 13.2031 187.57 14.2031 187.617 15.2031C187.68 16.1875 187.789 17.1719 187.945 18.1562C187.977 18.4219 187.938 18.664 187.828 18.8828C187.734 19.0859 187.555 19.2265 187.289 19.3047Z" fill="white"/>
</svg>
