<svg width="115" height="152" viewBox="0 0 115 152" fill="none" xmlns="http://www.w3.org/2000/svg">
<path d="M20.6065 66.727L48.7813 76.2979C59.3743 68.518 74.4775 71.4922 79.9975 72.8658C85.5176 74.2394 86.9864 73.0927 86.9864 73.0927C94.8733 62.5657 103.802 63.2261 110.316 60.9651C115.257 59.2511 114.064 67.7684 113.201 71.9865C112.89 73.502 112.343 74.9566 111.561 76.2816C102.066 92.3437 89.2734 84.2114 87.2139 79.041C85.0745 73.6641 83.1587 80.0703 83.1587 80.0703C70.3106 108.9 47.6598 83.1579 47.6598 83.1579L20.395 72.2094C18.9381 71.6259 17.4533 72.9914 17.8804 74.519C27.6193 109.358 36.0969 86.0591 34.1371 90.7067C32.6284 94.2806 35.6099 102.984 37.2344 107.206C37.8291 108.754 38.815 110.112 40.1002 111.145C45.1253 115.181 59.083 125.898 69.9713 129.488C83.494 133.95 87.9443 126.291 89.5807 125.027C93.1889 122.243 91.9476 110.61 94.989 109.581C98.0304 108.552 101.291 87.2706 104.085 84.183" stroke="#001EBE" stroke-width="1.5" stroke-miterlimit="10" stroke-linecap="round" stroke-linejoin="round"/>
<path d="M1.96763 151C-0.267941 151 1.79354 137.671 3.58199 132.041C4.53162 129.048 6.41899 126.157 7.97795 124.105C9.35095 122.297 10.3006 120.171 10.7042 117.91C11.2225 115.011 12.4689 112.665 13.3512 111.295C13.9883 110.305 14.4037 109.185 14.5976 108.016C15.112 104.925 16.8332 100.223 17.9925 98.8857C19.2468 97.4383 20.0184 96.0522 20.4892 94.8215C21.3676 92.5237 20.6238 89.8906 18.6652 88.4718C4.55536 78.2542 12.1286 48.1697 16.0814 35.5929C17.5019 31.0708 19.6187 26.8186 22.3608 23.0039C29.5225 13.0316 45.3258 -3.51939 68.5204 2.1557C74.7523 3.68077 80.4698 6.90265 85.2416 11.3225C92.2768 17.8399 103.281 29.2841 101.729 35.8301C101.464 36.9422 101.203 38.0543 101.065 39.1869L100.839 41.0472C98.3741 33.2828 88.047 34.4685 88.047 34.4685L77.6565 19.921L84.6956 34.5176L83.1841 35.1186C82.0644 35.5643 80.8378 35.5766 79.6943 35.2004C58.9173 28.4336 41.0094 73.4026 41.0094 73.4026" stroke="#001EBE" stroke-width="1.5" stroke-miterlimit="10" stroke-linecap="round" stroke-linejoin="round"/>
<path d="M56.1317 77.4007C60.1892 75.4772 68.7582 72.4741 77.465 76.0274C78.7986 76.5693 79.6701 77.9013 79.6822 79.3656C79.7025 82.3274 78.8188 87.2788 73.2697 89.9179C65.8438 93.4506 56.7722 89.7773 54.2753 81.6035C53.7686 79.9323 54.5793 78.137 56.1317 77.4007Z" fill="#FF00FF" fill-opacity="0.6" stroke="#001EBE" stroke-width="1.5" stroke-miterlimit="10" stroke-linecap="round" stroke-linejoin="round"/>
<path d="M92.7271 77.2065C92.1016 75.7634 92.6564 74.2514 93.6022 73.0353C96.6405 69.1235 104.538 64.1577 108.206 66.5697C112.726 69.5451 107.319 77.5592 104.754 79.7482C103.518 80.8062 102.438 82.0871 100.923 82.5452C98.5581 83.2586 95.207 82.9222 92.7271 77.2065Z" fill="#FF00FF" fill-opacity="0.6" stroke="#001EBE" stroke-width="1.5" stroke-miterlimit="10" stroke-linecap="round" stroke-linejoin="round"/>
<path d="M89.0984 81.8441C89.0984 81.8441 93.1052 93.6778 93.7757 97.1007C94.1962 99.2344 90.2249 100.164 88.5785 99.788C87.1859 99.4688 86.3528 99.0525 84.9642 99.3839L82.0681 100.346C80.6834 100.418 80.6557 99.7315 80.0407 98.4706C79.3028 96.9633 79.5924 95.0882 81.9808 94.9467" stroke="#001EBE" stroke-width="1.5" stroke-miterlimit="10" stroke-linecap="round" stroke-linejoin="round"/>
<path d="M100.868 41.2599C100.868 41.2599 105.92 58.3655 105.157 62.039" stroke="#001EBE" stroke-width="1.5" stroke-miterlimit="10" stroke-linecap="round" stroke-linejoin="round"/>
<path d="M34.6202 90.6105C34.6202 90.6105 23.189 128.735 17.1333 128.269" stroke="#001EBE" stroke-width="1.5" stroke-miterlimit="10" stroke-linecap="round" stroke-linejoin="round"/>
<path d="M23.9796 117.234C23.9796 117.234 20.1689 117.234 29.2537 122.816C37.5095 127.89 42.1102 138.097 47.3494 139.914C49.0114 140.491 50.6268 141.211 52.2071 142.015C58.069 144.989 70.4856 149.046 70.2638 137.089" stroke="#001EBE" stroke-width="1.5" stroke-miterlimit="10" stroke-linecap="round" stroke-linejoin="round"/>
<path d="M72.9708 113.426C87.5205 128.586 92.3389 112.076 92.3389 112.076C92.3389 112.076 91.4396 112.473 90.3675 112.92C89.1384 113.435 87.6854 114.013 87.0924 114.139C85.981 114.38 73.3399 114.46 72.9708 113.426C72.6017 112.393 79.6232 109.692 82.5802 109.139C84.4888 108.781 88.2941 110.097 87.4576 109.139C85.3763 106.747 87.1906 100.351 87.1906 100.351L87.4576 109.473C87.4576 109.473 90.5639 106.92 94.4792 109.701L91.3022 113.633" fill="#D82D00"/>
<path d="M72.9708 113.426C87.5205 128.586 92.3389 112.076 92.3389 112.076C92.3389 112.076 91.4396 112.473 90.3675 112.92C89.1384 113.435 87.6854 114.013 87.0924 114.139C85.981 114.38 73.3399 114.46 72.9708 113.426ZM72.9708 113.426C72.6017 112.393 79.6232 109.692 82.5802 109.139C84.4888 108.781 88.2941 110.097 87.4576 109.139C85.3763 106.747 87.1906 100.351 87.1906 100.351L87.4576 109.473C87.4576 109.473 90.5639 106.92 94.4792 109.701L91.3022 113.633" stroke="#001EBE" stroke-width="1.5" stroke-miterlimit="10" stroke-linecap="round" stroke-linejoin="round"/>
</svg>
