<svg id="레이어_1" data-name="레이어 1" xmlns="http://www.w3.org/2000/svg" viewBox="0 0 543.97 285.51">
<defs>
<style>
.cls-1{fill:#231815;}
</style>
</defs>
<path class="cls-1" d="M3038.37,68.42c1.87-7.11,1.14-13.51-2.61-19.17-5.05-7.63-12.41-12.32-21.33-15.49-10.23-3.63-20.34-7.27-31.13-8.69-2.25-.3-2.23-1.71-1.44-3.21,1.61-3.07,3.25-6.13,5.09-9.06,3.41-5.45.58-12-5.87-12.81-6.26-.81-12.71-2.39-16,5.9-1,2.61-3.84,5-4.42,7.75a26.61,26.61,0,0,1-4.74,10c-3.29,4.75-7.64,7-13.27,8.32-8.24,2-15,7.44-22.49,11.36-9,4.76-17.34,10.84-27.86,15.37A94.29,94.29,0,0,1,2898.45,45c3.28-6.49,9.41-10,14.54-14.35,6.92-5.92,14.15-11.59,22.28-16,7.12-3.87,15.17-5.77,21.84-10.59,1.61-1.16,3-2.17,2.58-4.25s-2.33-1.19-3.67-1.44c-14.22-2.59-25.86,4.08-37.43,10.59-7.07,4-14.29,8.19-22.43,7.49-6.15-.53-10.32.92-13.87,5.55a8.36,8.36,0,0,1-2.45,1.53c-.94.64-.93,1.66-1.14,2.63,0,.07,0,.13,0,.2a8.57,8.57,0,0,0-1-4.82c-2.4-2.13-5.44-2.44-8.41-3.09-9.26-2.06-18.21,1.64-21,8.14A24.36,24.36,0,0,1,2841.6,35c-12.66,11.29-25.31,22.58-38.09,33.73-4,3.5-8.43,6.56-13.56,10.52,2.37-7.46,4.3-13.77,6.38-20,2.47-7.42,4.73-14.93,7.69-22.15a310.58,310.58,0,0,0,12.51-38.28c.27-1,.8-1.86-.63-2.28-3.92-1.18-7.15-3.93-11.23-4.8-6-1.28-12,2-13.75,6.88-2.46,6.66-4.13,13.6-6.17,20.41-1.71,5.72-3.32,11.47-5.22,17.12-2.44,7.25-4.91,14.5-7.81,21.56-.88,2.13-.9,6.2-5.06,5.27a41.93,41.93,0,0,0-16.25-.26c-1.77.29-3.2.06-3.09-2.5.19-4.46-.38-9,.14-13.4a303.43,303.43,0,0,0,1.94-37c0-6.43-5.76-12.38-11.88-13.58-5.77-1.13-10.24,1.06-14.31,4.66-5.72,5.06-9.59,11.65-14.23,17.61s-9.06,12-13.58,17.93c-1.79.6-2.19,2.39-3.18,3.67-8.59,14.61-15.75,30-23.32,45.1a44.72,44.72,0,0,1-4,10.09c-1.28,4.21-2.94,8.29-4.4,12.44,1.2-4.34,2.93-8.5,4.34-12.77,1.69-4.83,4.16-9.36,5.43-14.36,7.1-14.24,14.13-28.52,22.34-42.17a13,13,0,0,0,1.68-3.06c-.07-1.39.67-2.42,1.29-3.61,4-7.66,10.27-13.85,14-21.72.84-1.81,1.61-3.34-.33-4.51-8.23-5-15-3.74-21.48,2.69-9,9-14.19,20.37-20.62,31C2660,51,2653.35,63.06,2646.5,75l-.68.29c-.2-7.69-1.1-15.39.53-23,1.76-13.12,1-26.26-.6-39.28-.47-3.88-.52-9.6-6.24-10.64-6.81-1.24-14.75-2.52-19.35,3.48a77.24,77.24,0,0,0-11.37,22.06c-2.85,8.41-6.76,16.38-9.39,24.86-2.06,6.67-5.47,12.92-7.68,19.55-3,8.88-6.38,17.59-9.07,26.57-2.44,8.16-5.48,16.16-7.2,24.52-1.13,5.45-2,11-2.93,16.43v12c.74,1.93,2,2.87,4.14,3.57,4,1.29,7.9.33,11.19-.71,5.59-1.78,11.56-4.76,11.73-11.94.25-10.16,2-20,4.24-29.9,1.5-6.69,2.57-13.53,4.66-20,3.31-10.3,7.33-20.38,11.05-30.55,3,.39,1.43,2.73,1.46,4,.31,14.94-.31,29.88.38,44.82a18.41,18.41,0,0,1,.91,4.23,191.52,191.52,0,0,0,2.58,33.39c.44,2.85,1.15,4.13,4.33,4.61,4.55.69,8.62-.29,12.92-1.31,3.54-.84,6.64-1.75,8.38-5.19a7.08,7.08,0,0,0,1.18-2.71,4.45,4.45,0,0,0,.62,2.76c4.49,4.76,9.47,5.3,15.45,2.61,7.67-3.45,10-10,11.71-17.33,1.4-6.1,2.71-12.25,4.47-18.25.59-2,1.51-4.61,4.41-4.72,6.77-.24,11.8-4.33,17.18-7.63,6.24-3.82,12.17-8.23,19.42-10.65.6,6.18.72,11.93.73,17.73,0,10.26-2.07,20.32-2.17,30.55,0,3.54.84,5,4.68,6,4.27,1.1,7.86-.68,12-1,0,1,0,1.86,0,2.67-.28,4.48,1.57,6.68,6.29,6.28,3.14-.27,6.41.29,9.42-.4,2.58-.6,5.8.22,7.58-3.26,3.4-6.64,6.52-13.33,8.41-20.59,2.09-8,4.45-9.06,12.33-10,5.81-.71,11.39.48,17,.17,9.32-.52,18.38,1.52,27.41,3,4.94.83,9.26,1.42,13.67-1.13.61-.35,1.35-1.24,2.11-.23.58.76.07,1.41-.24,2.21a25.37,25.37,0,0,0-1.37,10.13c.07,2.66.71,4.37,3.72,5.4,10.07,3.42,19.08,1.24,27.21-4.86a175.73,175.73,0,0,0,15.56-13.44c11.22-10.67,24.68-18.71,35.31-30.07.62-1.62,1.25-3.25,1.87-4.88a1.12,1.12,0,0,1,.34-.18v-.12c-5.92-3.61-12.15-2.77-18-.37-8.64,3.55-16.15,9.12-23.54,14.76a33.7,33.7,0,0,1-9.24,5.51c.34-4.74.61-5.14,3.76-8.57,16.07-17.51,35.44-30.86,55.28-43.61,1.42-.92,3-1.88,5-1.69-.15,2.07-1.28,3.37-1.88,4.89-3.86,9.65-8.61,19-11,29.16a1.1,1.1,0,0,1,.52.19c-.56,2,.28,4.51-2.05,5.92-.25,1.46-.16,3.09-.81,4.34-2.77,5.33-3.67,11-4.51,16.9-.59,4.1-1.68,8.24-6.91,9.66a11.41,11.41,0,0,0-6.85,5.16c-.9,1.56-4,2.43-2.39,4.74,1.44,2,3,4.53,6.25,4.24,7.64-.66,15.28.08,22.91-.1,7.36-.17,9.86-2.77,10.19-10.3.09-2.06,1.18-1.93,2.34-2.33,7.54-2.62,15-5.53,22.63-7.83,15.58-4.68,30.66-10.43,44.78-18.57C3024.87,90.31,3034.7,82.37,3038.37,68.42Zm-386.44,73.71c.05-.76.06-1.53.08-2.3A7.39,7.39,0,0,1,2651.93,142.13Zm2.14-10.88c-.68-2.16-1.11-4.27,1-6.53C2655.73,127.5,2653.64,129.14,2654.07,131.25Zm2-8.78c-1.35-1.73-.27-3.14.54-4.57l.43.54c0-.12.12-.23.17-.35.24-.61-.1.17.15-.44.7-2.49,1.4-5,2.33-7.38-.78,2.72-1.86,5.34-2.49,8.13a.32.32,0,0,0-.08.14l.35.43C2657.51,120.3,2657.51,121.6,2656,122.47Zm66.49-48.83c-8.52,6.22-18.09,10.44-28.79,15.27,8-19,15.46-36.76,28.57-52.6.39,12.49.76,24.08,1.06,35.68A2.26,2.26,0,0,1,2722.53,73.64Zm37.2,20.26c-3.58,9.13-6.5,18.53-9.71,27.81.53,1.48-.62,2.32-1.3,4.11-.69-2.19-.85-3.59.33-4.89,0-12.75,0-25.51-.14-38.26,0-2.66.24-4.35,3.33-5.57,4.46-1.76,8.45-4.71,14-5.43C2764,79.23,2762.56,86.69,2759.73,93.9Zm110.92-46c-5.52,10.58-9.84,21.65-14.39,32.63q-4.56,11-8.21,22.35c-.88,2.71-2,3.59-5.06,2.29a49.9,49.9,0,0,0-16.45-3.42c-9.53-.55-18.92-2.58-28.76-2.17.74-2.34,2.27-3.19,3.38-4.35,13.17-13.83,28.26-25.48,43-37.53,10.13-8.29,20.18-16.68,30.36-24.91a11.45,11.45,0,0,0,3.78-4.85A86.9,86.9,0,0,1,2870.65,47.91Zm138.09,29.31c-9.65,10.71-21.94,17.45-35,23.11a145.9,145.9,0,0,1-28.26,9.49c3.45-11.11,6.73-21.42,10.8-31.53a301.13,301.13,0,0,1,14.1-29.51c.35-.67.14-1.62.31-2.41,1.36-6.59,5.74-9.62,12.21-8,8.12,2.06,15.95,4.86,22.93,9.74C3014.75,54.37,3016.37,68.75,3008.74,77.22Z" transform="translate(-2572.52 13.43)"/><path class="cls-1" d="M3116.46.25c-.46-10.69-.11-10.7-10.37-13.68l-5.15,0c-3.11.55-6,2.05-7,4.93-1.68,5.2-3.16,10.46-4.84,15.67a266.14,266.14,0,0,1-9.82,25.35c-4.57,10.37-10.88,20-15,30.57-5,12.87-12.34,24.58-17.1,37.5-2.41,6.56-4.91,13.07-4.37,20.25.15,2,.33,3.76,2.92,4.46,12.28,3.27,21.49-1.49,24.26-13.42s9-22.35,13.71-33.42c3.19-7.54,8-14.59,11-22.13,4.61-11.76,10.81-22.78,15.13-34.59C3112.43,14.76,3116.81,8.35,3116.46.25Z" transform="translate(-2572.52 13.43)"/><path class="cls-1" d="M3045.56,137.73c-7.86,1.41-17.25,14.71-17.33,24.42.79,8,.73,9.34,11.13,12.77,4.92,1.61,10.92-1,14.21-5.61,5-7.05,5.1-15.59,7.53-23.42a3.38,3.38,0,0,0-.43-2.76C3056.63,138.66,3051.59,136.65,3045.56,137.73Z" transform="translate(-2572.52 13.43)"/><path class="cls-1" d="M2649.47,102q-.07-11.37-.16-22.74C2648.78,86.82,2648.46,94.41,2649.47,102Z" transform="translate(-2572.52 13.43)"/><path class="cls-1" d="M2930.12,112a.83.83,0,0,0-.35,0,5.66,5.66,0,0,1-2.21,5.07,1,1,0,0,0,1,1c-.06-2.15,1.4-3.93,1.51-6C2930.11,112,2930.11,112,2930.12,112Z" transform="translate(-2572.52 13.43)"/><path class="cls-1" d="M2660.05,145.5l-.08-.1a4.81,4.81,0,0,1-.25.51C2660,145.94,2660,145.68,2660.05,145.5Z" transform="translate(-2572.52 13.43)"/><path class="cls-1" d="M2753,148.68l-1-.79C2751.77,148.86,2752.06,149.17,2753,148.68Z" transform="translate(-2572.52 13.43)"/><path class="cls-1" d="M2980.34,192.37c-1.91,0-3.83-.29-5.73-.2-8.84.44-17.3,3-26.21,5.29,3.11-5.53,7.78-9.08,11.09-13.71,3.5-4.91,8.63-7.23,14.09-9a3.05,3.05,0,0,0,2.41-3.69,3,3,0,0,0-3-2.72c-4.1-.33-8.19-.72-12.06,1.37-11.81,6.36-19.4,16.78-27,27.3-2.81,3.88-4.38,8.78-8.85,11.39-1.83,1.71-.05,4.47-1.81,6.2l-2,3.51c-.09-1.95.08-3.72,1.86-4.74h0c.29-1.67-.9-3.67,1.1-5,1.66-6.1,5.84-10.83,8.94-16.14,1.22-2.1,1.55-4.06.27-5.91s-3.13-1.26-5-.73c-4.17,1.18-7.69,2.78-10.23,6.83-1.35,2.14-2.36,4.87-4.75,7-.77-5.09,2.22-12-3.83-13.3-6.26-1.31-11.93,2.63-15,9.26.72-5-1.65-6.2-5.66-6.45a9.37,9.37,0,0,0-8.49,4.08c-2.2,3.14-3.52,6.41-7.8,2.57-.46-.43-1.65-.3-2.42-.1-7.27,1.83-14.56,3.58-21.4,6.85-4.14,2-8.52,3.47-13,5.28.63-3,2.68-4.38,3.86-6.34,4.37-7.28,8.49-14.83,17.36-17.73,2.76-.9,5.8-2.69,5-5.52-.9-3.17-4.41-4.14-7.84-3.47a17.91,17.91,0,0,0-3.71,1.15c-13.27,5.83-19.28,18.32-27.13,29.19-2.89,4-2.47,11.31-10.92,10.82,4.13-3.92,2-9,3.43-13.54,1.82-5.79,3.41-12,3.34-18.3,0-4.26-2.91-6.42-7.07-5.35-7.58,1.94-11.6,8.16-16.05,13.79-2.15,2.71-2.95,7.08-8.32,4.86-1.54-.63-4,0-6.07,1.22a212.44,212.44,0,0,0-23.21,15.32c-4.13,3.17-8.34,6.43-14,8.91,3.52-9.34,8.54-16.78,13.57-24.21,2.42-3.57.63-6.82-3.78-7.13-3.33-.23-5.44,1.88-7.78,3.67-3.38,2.59-4,7.21-7.42,9.75-1.23-6.28-2.24-7.13-8-6.17-6.82,1.14-12.3,4.5-17,9.62-2.93,3.17-4.14,7.54-7.77,10.1-2,1.39-4.33,2.16-6.28,1.1s-.5-3.45,0-5c1.18-4,2.21-7.91,1.93-12.05-.36-5.49-4.23-7.45-9.31-5.45-7.23,2.84-13.18,7-17.14,14.93-.62-5.52-2.83-8.38-7.06-10.34-8.57-4-16.94-2.86-25.62-.64-4.89,1.25-7.28,3.54-8.44,8.63a37.05,37.05,0,0,1-3.46,10c-2.66,4.73-4,10.11-6.46,15-4.48,8.95-7.07,18.66-10.27,28.12-1.34,4-.58,8.7,1.8,9.42,1.41.43,10.29-3.54,10.4-4.89.39-4.95,2.64-9.41,4.32-13.85,1.76-4.67,1.93-11,8.24-13,4.39-1.38,7.63-4.82,11.77-6.6,5.33-2.28,9.4-6.61,15-8.78-1.78,1.73-2,4.08-2.94,6.06a115.12,115.12,0,0,0-9,23.93c-.54,2.19,0,4,1.88,5.13,3.2,1.89,11.77-1.43,12.36-5.18.48-3,2-5.53,2.92-8.26,1.87-5.36,6.46-7.94,11.89-9.76,0,6-.46,11.53,2,16.47,1.62,3.18,1.89,8.44,7.41,7.51,4.58-.77,9-2.07,13.78-1.79,4,.23,6.65-3.72,10.44-4.82.84,2.67-.44,5.07-.29,7.53.14,2.2,1.09,4,3.32,4.15,4,.27,12.91-7.33,12.15-11.1-1.06-5.28,3.2-8.65,3.39-13.28,0-1,.95-1.2,1.83-1.22,10.86-.23,21.65.27,32.1,3.63,1.55.5,2.89,1,1.15,3.39-1.06,1.45-2.86,3.93,0,6.4,3.84,3.37,13.39,1.41,14.71-3.74s3.91-10,5.14-15.26c.52-2.24,3.94-3.3,6.3-3.22s1,2.64,1.13,4c.65,7.09.49,14.22,4.61,20.68,1.77,2.77,3.74,2.59,5.78,1.83a14.27,14.27,0,0,0,6-3.87c5.19-6.47,14.91-6.33,19.14-14.09-1,5.66-2.42,10.85-2.33,16.2.08,4.41,2.45,5.8,6.6,4.37,5.9-2,8.32-4.94,8.51-11,.09-2.86.91-5.47,1.45-8.2,1.48-7.53,5.62-14.2,7.21-21.52,1.94-9,6.25-14,15.62-14.15a27.87,27.87,0,0,0,3.65-.6c-1.92,3.78-3.2,7.55-5.48,10.58-6.9,9.15-10.16,19.95-14.31,30.34-1.06,2.63,1.68,6.1,3.93,5.17,3.79-1.56,7.75-2.66,9.89-7.25,1.67-3.61,2.14-8.1,5.82-10.68,1.57-1.49,1-3.89,2.31-5.49l.05-.07-.5-.47c.42-1.51.74-3.08,2.6-4.13.6,2.29.65,4-1.55,5.13l-.38-.36a1.49,1.49,0,0,0-.26.48c-.85,1.85-.72,3.92-1.37,5.82-1.28,1.27-1.06,3.07-1.42,4.6-.59,2.48,3.7,7.32,5.66,6.37,3.6-1.74,8-2.73,9.63-7.09,1.84-4.87,3.54-9.79,5.31-14.68.43-.91.87-1.82,1.43-3a4.77,4.77,0,0,1-.41,3.58,1.27,1.27,0,0,1-.23.34c.62,7.21-1.64,14.58,2.25,21.64,1.9,3.46,3.57,3.7,7,2.76,4.42-1.22,7.18-4.19,9.88-7.45-.69-2.4.37-4.35,2-6.23l-.33,6.25c2.47,4.29,6.09,6,10.15,3.87s8.33-3.44,11.92-6.92a39.23,39.23,0,0,1-.47,4.43c-1,4.59-2.32,9.14-3.28,13.75-.58,2.83-.83,5.81,3.34,6.25,6.47.69,11.42-3.23,12.47-9.73,1.27-7.88,4.69-15.12,6.87-22.73s6.88-14.2,9.55-21.58c2.16-6,6.46-8,12-8.91,1-.16,2.12.2,3-.18,1.83-.85,4.53-1.35,4.51-3.77S2982.81,192.32,2980.34,192.37Zm-322.85,26.2c-4.77,4.5-10.33,7.81-16.86,11.27,2-6.29,5.27-11.09,7.65-16.29,1.68-3.67,9.47-4.5,11.37-1C2660.8,214.62,2659.25,216.9,2657.49,218.57Zm21.19,8.23c2.56-1.25,1.29-3.75,3.5-4.32.2,0,.8.55.83.88C2683.24,225.58,2682.14,226.67,2678.68,226.8Zm19.17,8.4,0,0,0,0,0,.05c.06,1.18.13,2.38.23,4.18-1.53-1.75-1.43-3-.23-4.18v-.09l0,0c0-2-1-4.19,1.58-6.09.11,2.47.24,4.5-1.58,6.09Zm28.28-3.56c-2.89,7.27-9.12,10.53-15.93,14.75a67,67,0,0,1,5.13-18.4c2.29-5.48,6.16-10.05,9.22-15.1,1-1.65,1.85-3,4.08-1,1.7,1.53,3.95.74,5.86-.69l.84,1C2732.24,218.69,2728.78,225,2726.13,231.64Zm60.49-25c-3.33,7.15-8,13.69-9.86,21.51-.63,2.61-1.72,4.44-5.14,3.14-2.85-1.08-6-1.46-9-2.15-3.13,0-6.26.12-9.38.14-.55,0-1.52.2-1.15-.8.17-.48,1-.72,1.56-1.07L2786.43,205c.66-1,1-2.37,2.56-2.57C2789.57,204.63,2788.05,205.59,2786.62,206.61Zm11.68,9.78c-.08,1.07.23,2.24-.72,3.11-.53,1.22-1.55.71-2.43.68.2-1.36.29-2.75,1.3-3.84.51-.51,1-1.45,1.53-1.44C2798.79,214.93,2798.34,215.87,2798.3,216.39Zm3.56-10.57a10.38,10.38,0,0,1-.91,1.89c-.69-1.6-1.15-3,0-3.53C2801.78,203.75,2802,205,2801.86,205.82Zm9.58,25.49-1.1,2.86a2.76,2.76,0,0,1-.07-4l3.07-5.77C2813.17,227.75,2812.89,229.69,2811.44,231.31Zm16.11-2.54c-.51-3.83,1.35-5.48,3.66-7.11C2832,225.46,2829,226.19,2827.55,228.77Zm53.37-10.48-.13.1.13-.1c.48,1.81-.75,2.83-1.92,3.88.65-1.24-.41-3.23,1.79-3.78.52-2.59.8-5.31,3.89-7.28C2884,214.27,2883.17,216.65,2880.92,218.29Zm54.48,2.61c3-7.59,3-7.59,7.82-9.46C2942.06,216.16,2937.91,218,2935.4,220.9Z" transform="translate(-2572.52 13.43)"/><path class="cls-1" d="M2923.36,213.33a2.6,2.6,0,0,1-.25.33s0,.08,0,.13A2.25,2.25,0,0,0,2923.36,213.33Z" transform="translate(-2572.52 13.43)"/><path class="cls-1" d="M2922.52,214.71a1.94,1.94,0,0,1,.31-.54s-.06-.09-.06-.14A1,1,0,0,0,2922.52,214.71Z" transform="translate(-2572.52 13.43)"/></svg>