<svg id="레이어_1" data-name="레이어 1" xmlns="http://www.w3.org/2000/svg" viewBox="0 0 481.04 516.58">
<defs><style>
.cls-1{fill:#231815;}
</style></defs>
<path class="cls-1" d="M1019.47,295.27a2.35,2.35,0,0,1,.65-2.36c1.58-1.78.23-3.94.71-5.88,0-.07-.25.62-.67.56-3.2-11.87-13-18.87-20.35-27.7-6.43-7.75-13.18-15.3-18.07-24.18-1.79-3.26-5.42-4.31-7.35-7.24-.23-1,0-1.46,1.11-1.1,2.25-1.34.25-2.67-.26-3.63a130.4,130.4,0,0,0-15.28-23,11.74,11.74,0,0,0-8.47-4.41c-2.3-2.49-1-3.37,1.63-3.68,5.65-.67,10.31,1.07,13.77,5.7,9.3,9.38,14,21.54,19.42,33.13,5.36,11.38,13.3,20.37,22.6,28.56,11.93,10.49,19.07,23.19,16.43,39.79a19.82,19.82,0,0,1-.86,2.78c-.58-.39-.86-.81-.12-1.32-.69.1-.57.65-.56,1.08a5.88,5.88,0,0,0,.32,2.85c-.09,6.06-3.27,11.31-7.15,14.88-2.1,1.92-4.58,3.85-6.61,6.11-1,.12-1.71-.06-1.15-1.33,2.64-6.59,8.38-11.79,8.6-19.56.05-1.57-.2-3.7,1.34-5.1C1020.37,298.62,1019.89,296.94,1019.47,295.27Z" transform="translate(-605.13 -191.71)"/><path class="cls-1" d="M662.3,312c5.31,11.42,13,21,22.22,29.53a110.59,110.59,0,0,1,20.2,25.1c12.22,20.81,26,40.66,36.66,62.46,7,14.27,7.31,27.24.19,41.53-9.62,19.32-22.47,36.52-33.69,54.78-.84,1.36-2.07,4.13-3.7,3.11-2.19-1.37-.21-3.67.89-5.12,6-7.9,10.42-16.83,16.2-24.87a149.37,149.37,0,0,0,21.67-43.74,25.77,25.77,0,0,0-.18-12.79c-8.32-20.39-19.5-39.21-31.47-57.61-7.11-10.94-13.64-22.28-22.07-32.3-7.56-9-16.67-16.6-23.29-26.44-2.41-3.58-4.73-7.13-5.54-11.46C660.88,313.32,661.09,312.22,662.3,312Z" transform="translate(-605.13 -191.71)"/><path class="cls-1" d="M842.75,382.06c-1.58-4.65-2.62-9.57-4.82-13.91-9.16-18.06-23.7-31-40.74-41.34-3.36-2-6.85-3.86-10.28-5.79-.34-1.26-1.15-2.64.78-3.38,25.58,7.31,43.51,24,57.54,46.7,2.8-5.57,5.66-11.11,9.71-15.87,7.32-8.57,14.7-17.07,23.56-24.13,1.42-1.13,2.84-2.32,4.77-2.53a3,3,0,0,1,2.48,2.41Q874,336.61,862.24,349c-8.14,8.65-14.72,18.15-16.37,30.31a1.63,1.63,0,0,1-.33-.37c-.28-.52-.32-.55-.33-.06-.1,4.36.32,8.75-.39,14.28C842.07,389,844.32,385.18,842.75,382.06Z" transform="translate(-605.13 -191.71)"/><path class="cls-1" d="M848.59,436.9c2.94,4.36,3.23,9.57,4.33,14.44,3.54,15.68,7.13,31.32,12.62,46.46-.73.89.27,2.66-1.15,3s-1.48-1.59-2.56-2c-6.47-14.1-9.44-29.38-14.69-45.06-2.14,4.59-.54,9-3.37,12.1.09,2-1.12,3.93-.3,6-2.86,10.45-5.7,20.89-9.89,30.94-1.47,3.51-5.21,5.14-6.05,8.93l-1.4-.45q8.29-30.7,16.57-61.42c1-1.24.57-2.56.21-3.87a1.93,1.93,0,0,1,.59-2.08c1.63-1.44.25-3.44.93-5.06.72-2.57-.18-5.49,1.8-8.21C847.9,432.55,848,434.85,848.59,436.9Z" transform="translate(-605.13 -191.71)"/><path class="cls-1" d="M920.41,238.84a25.54,25.54,0,0,1,7-19.45l-.11-.11c1.54,2.58-.87,4.17-1.62,6.14a45.73,45.73,0,0,0-3.27,17c-.74,1.76,0,3.71-.68,5.48.33,9.66.72,19.33.95,29,.05,1.88.65,4-.83,5.66a1.76,1.76,0,0,1-1-.89c-.79-1.88,0-4-1-5.87a4.76,4.76,0,0,0-1.05-.66c-2.1.3-3.48-1.43-5.33-1.85a59.31,59.31,0,0,1-7.35-16.69c-.57-2.4-1-4.9-2.59-6.89-2.64-1.69-5.29-1.49-8-.05-7.95,10-18.7,15.71-30.49,19.8a7.73,7.73,0,0,1-3.87.68c-1.59-.43-3.25-.56-4.81-1.1a1.87,1.87,0,0,1-.9-1c.77-2.23,3.41-2.09,4.68-3.69,5.78-3.26,12.11-5.5,17.51-9.44,1-.74,2.55-1,2.72-2.59-.33-.58-1.13-1-.72-1.85,3-2.31,6.46-4.07,9-7a12.29,12.29,0,0,0,3.31.45c5.3-.44,10.59.2,15.88.27,3.18,0,4.58,2.17,5.09,5.13a87.57,87.57,0,0,0,3,13.09c.6,1.82,1.07,3.76,2.88,5.43,1.32-5.88-1.58-11.27-.15-16.67,1.11-3.23.07-6.66,1-9.9A10.79,10.79,0,0,0,920.41,238.84Z" transform="translate(-605.13 -191.71)"/><path class="cls-1" d="M945.61,443.66c3.2,22.22,14.79,40.74,26.27,59.28,3.66,5.9,7.73,11.55,11.35,17.47.92,1.5,3.91,3.53,1.14,5.28-2.22,1.39-3.75-1.12-4.92-3-5.39-8.52-11.08-16.88-16.09-25.62-7.71-13.46-15.35-27-19.63-42.09A54.09,54.09,0,0,1,946,417.93c1.19-2.77,1.56-6,4.1-8.15,1.73-.2,2.09.55,1.38,2-4.5,7.73-6.23,16.22-6.93,25C945.88,438.94,943.92,441.58,945.61,443.66Z" transform="translate(-605.13 -191.71)"/><path class="cls-1" d="M776.91,309.83c1.14.43,2.12.37,1.68-1.17-2.75-9.46-3.84-19.52-9.76-27.82-1-1.43-.88-2.31,0-3.41,3.9-4.91,4.74-10.94,6.12-16.75.45-1.88,1-2.91,3.28-2.52,8.35,1.43,10.18.93,17.37-4.19-1.09-2-4-2.15-4.78-4.42a1.57,1.57,0,0,1,.07-2.14,89.65,89.65,0,0,0,17.52,8.83c8.19,2.82,16.62,4.66,25.4,4.08-1.47,3.87-5,3.47-7.78,3-7.11-1.18-14.44-1.53-21.36-4.73,2.88,3.33,7.57,3,10.35,5.94.74,3.05-1.08,4-3.6,4.33-4.34-.49-7.68-3-10.89-5.64-2.6-2.11-5.16-2.78-8.25-1.28a26.31,26.31,0,0,1-8.69,2c-3.71.42-6.21,2-7,5.87a8.57,8.57,0,0,1-1.27,3.23c-2.21,3.11-1.84,6,0,9.23,4.48,7.94,5.74,16.92,7.77,25.63.28,1.84-.19,3.79.79,5.53.77,1.49,2.34,2.49,2.61,4.28-.22,1-.26,2.16-1.82,1.57C779.27,317.3,776.49,313.88,776.91,309.83Z" transform="translate(-605.13 -191.71)"/><path class="cls-1" d="M794.84,199.7c10.72,2.4,18.32,9,24.42,17.8,3.2,4.6,6.79,8.84,11.62,11.92,2.43,1.55,5.19,3.1,5,6.71.41,1-.12,1.29-1,1.25-1.15-1.63-2.37-3.22-4.32-3.87-6.61-2.19-11-6.95-14.46-12.65s-7.55-10.28-13.24-13.53c-1.3-1-3.15.33-4.35-1.05,1-2.6-2.16-2.15-2.67-3.64a21.28,21.28,0,0,0-10.92-.19c-13.61,2.16-27.3,2.4-41,2-4.46-.13-8.84-1.09-13.36-.7s-8.42,1.23-11.44,4.74a2.3,2.3,0,0,1-2.33-1.13c6.28-10.83,16.19-8.05,25.58-6.66,6.89,1,13.72,1.83,20.67.92,1.92.41,3.86,1,5.71-.26a3.5,3.5,0,0,1,3.27-.72c2,.42,4,1,5.88-.37.89-1,2-.73,3.1-.57A65.24,65.24,0,0,0,794.84,199.7Z" transform="translate(-605.13 -191.71)"/><path class="cls-1" d="M975.48,289.4c0,2.75.42,5.4-.7,8.21-1.56,3.92,2.3,3.23,4.58,4.22-4.66-.41-5.44,2.37-6.44,6-3.66,13-8.19,25.84-11.65,38.93a83.84,83.84,0,0,0-3.08,21.85c-2.67-1.76-1.94-3.95-1.81-5.68a147.79,147.79,0,0,1,9.74-43.85A114.1,114.1,0,0,0,974,286.26,30.56,30.56,0,0,0,971,271c-4.36-9.45-6.36-19.54-8.52-29.57s-4.94-19.71-13.08-26.8c-.6-1.26-.67-2.23,1.17-2.19,5.2.59,6.93,4.9,8.84,8.68a74.15,74.15,0,0,1,7,24.63c1.39,11.28,6.19,21.53,9.09,32.35.69,1.71.24,3.49.37,5.24C975.71,285.33,976.35,287.42,975.48,289.4Z" transform="translate(-605.13 -191.71)"/><path class="cls-1" d="M966.89,198.32c-3.92-2.89-7.65-5.9-13.2-5-2.32.39-2.8,1-2.2,3-11-.1-21.66,2.69-32.52,3.7-4.44.41-8.93.26-13.4.36-1.45-.8-3-.29-4.52-.38-.66,0-1,.24-.36.13,0,0,.06.29.09.44-5.25,1.11-10.56,2-15.74,3.41-2.89.77-5.58,2.31-8.36,3.5-1.29.64-2.24.7-2.1-1.19,9.52-6.85,20.65-8.83,31.89-9.71,5.61-.44,12.15.75,16.87-.78,8.49-2.76,17-1.18,25.33-3.15a30.66,30.66,0,0,1,9.48-.83C962.16,192.15,965.13,194.59,966.89,198.32Z" transform="translate(-605.13 -191.71)"/><path class="cls-1" d="M724.74,257.49c-2.12-.07-3.34,1.29-4,3-6.61,16.22-9.67,32.36,1.26,48.16a17,17,0,0,1,3.18,10.25c.25,1,.93,2.21-1,2.3-.68-2-1.23-4.13-2-6.11-1.88-4.53-3.78-8.79-10.32-6.36-1.71.63-4.5.19-7.43-2,4.55-1.35,8.58,1.26,12.15-1.14-.87-3.59-2.94-7-3.62-10.91-2-11.82,0-23.16,4.78-33.83,4.18-9.34,6.94-19.21,11.33-28.43,1.11-.19,1.65.14,1.2,1.35-1.89,6.42-3.67,12.88-5.74,19.24-.88,2.69-.13,3.63,2.49,3.56C726.89,258.42,725.69,257.67,724.74,257.49Z" transform="translate(-605.13 -191.71)"/><path class="cls-1" d="M834.86,237.38l1-1.25,3.59.34c-3.88,7.54-3.25,14.5,2.13,20.92a4.7,4.7,0,0,1,1.45,3.05c1.05,5.05,2.25,5.78,7.45,5.37,3.36-.28,6.58-2.66,10.11-.78-.79,2.34-3.63,1.63-4.89,3.28-.77.68-1.73.4-2.61.5.89-.06,1.85.26,2.61-.5,1.68.23,3.55-.62,5,.91-3.4,3.91-7.94,3.91-12.34,3a39.92,39.92,0,0,0-18-.06c-6.34,1.53-13.16,1-18.54-4.05a6.73,6.73,0,0,0,3.2-2.9c4.83-1.27,9.4,1.31,14.23.88,4-.36,6.22-1.84,6-6.06,2.14-.56,1.5-2.73,1.29-3.61A73.6,73.6,0,0,1,834.86,237.38Z" transform="translate(-605.13 -191.71)"/><path class="cls-1" d="M914.44,273.6c1.72,0,3.49-.3,5.12.56-3.82,7.84-8.83,15.08-11.41,23.54a39.21,39.21,0,0,0-1.85,7.74c3.61,0,5.27-3.86,8.66-3.62.69.38,1.23.82.74,1.71-5,5.71-11.6,9.09-18,12.87-4.09,2.42-8,5.2-12,7.82a3.53,3.53,0,0,1-2.08-2c-.55-1.48.63-2.1,1.48-2.79a23,23,0,0,1,5.4-3.55c6.79-2.91,9.63-8.16,11-15.29A54.74,54.74,0,0,1,914.44,273.6Z" transform="translate(-605.13 -191.71)"/><path class="cls-1" d="M716.73,207.33a2.68,2.68,0,0,1,2.33,1.13c-11.6,15.07-19.3,32.26-27,49.45a64.32,64.32,0,0,1-15.56,21.55c-1.89.13-2-.82-1.34-2.23,12.5-12.22,17.66-28.61,25-43.79C704.65,224.12,709.45,214.92,716.73,207.33Z" transform="translate(-605.13 -191.71)"/><path class="cls-1" d="M790.88,247.41l-.07,2.14c-7.9-2.56-15.94,1.17-23.89-.5-1.78-.37-2.23,1.07-1.65,2.59,1.11,2.91.83,5.91.44,8.82-1.75,13.1,2.49,25.33,5.22,37.78.52,1,0,1-.78.95-4.79-13.51-9.65-27-6.58-41.75.68-3.32-.13-6.55-.77-9.79-.39-1.3.22-1.62,1.39-1.4,4.45,1.75,9.11,1.07,13.68,1,3.47-.09,4.44-3.13,4.93-5.85.63-3.53,1.35-7.08,1.11-10.73-.1-1.55-.56-3.41,1.73-4.29,1.21,4.78-.56,9.38-.66,14C784.89,244.81,786.55,247,790.88,247.41Z" transform="translate(-605.13 -191.71)"/><path class="cls-1" d="M962.4,389.89c10-16.21,20.23-32.27,33.83-45.83,1.15-.2,1.64.23,1.3,1.41Q986,361.09,974.39,376.69c-3.73,5.07-7.38,10.2-11.07,15.3C961.67,391.88,961.87,391,962.4,389.89Z" transform="translate(-605.13 -191.71)"/><path class="cls-1" d="M890.63,245.36a1.76,1.76,0,0,1-2-1.9c.69-1.39,2.16-2.36,2.17-4.11a15.93,15.93,0,0,0,0-6.94c-.09-1.92-.18-3.84-.26-5.75l.88-.06c.46,3,1.43,6.06,1.25,9-.2,3.49,1.51,3.71,4.07,3.69,3.62,0,7.23.11,10.84.18,3.09,1,6.35-.19,9.44.72,1.32,0,2.65.06,3.36-1.39l.15,2.54a15.7,15.7,0,0,1-3.27,2.31c-3.17,1.63-6.46.6-9.74.5C901.89,244,896.07,242.16,890.63,245.36Z" transform="translate(-605.13 -191.71)"/><path class="cls-1" d="M842.75,382.06c2.36,2.62,0,6,1.89,9.69v-16c1.6,1.27.87,2.57,1.23,3.6.1,4.11.23,8.23.3,12.34.09,5.24,1.92,9.91,4.53,14.35-3.24.48-3.24.48-4.3-2.75-.2,4.45-.11,8-.21,11.63,0,1.1.83,2.77-1.29,3.06C846,405.88,842.29,394.09,842.75,382.06Z" transform="translate(-605.13 -191.71)"/><path class="cls-1" d="M844.9,418c2.06-4.82,0-10,1.44-15.34,0,3.42,2.1,3.55,4.36,3.4v0c.7,1.24.74,2.12-1.08,2-1.86-1.24-3.19-1.15-2.78,1.48,1.3,8.11.36,16.39,1.93,24.47a11.16,11.16,0,0,1-.19,2.92l-2.45-5.28c-1.07,2.56.66,5.27-1.39,7.29-.29.47-.57.5-.86,0l0-1c.79-1.7-.08-3.63.71-5.33Z" transform="translate(-605.13 -191.71)"/><path class="cls-1" d="M764,417c5.25,5.34,12.34,5.61,19.06,6.88q2.91.56,5.85,1c1.27.19,2.29.62,2.11,2.13s-1.52,1.24-2.31,1c-9.22-2.52-19.41-2.42-26.86-9.78C761.71,416.36,762.64,416.31,764,417Z" transform="translate(-605.13 -191.71)"/><path class="cls-1" d="M881.51,251.31a53.29,53.29,0,0,1-29.79,7.16c-.34-.23-.45-.47-.33-.7s.23-.35.35-.35c9.46-1.73,18.94-3.36,27.93-7A1.86,1.86,0,0,0,881.51,251.31Z" transform="translate(-605.13 -191.71)"/><path class="cls-1" d="M861.83,498.78c1.56.91,3,1.35,3.71-1,2.75,6,3.31,12.48,4.93,18.77C866.16,511.29,863.68,505.19,861.83,498.78Z" transform="translate(-605.13 -191.71)"/><path class="cls-1" d="M874.3,437.75c-3.17-2-5.06-4.83-6.74-7.82-.6-1.07-1.92-2.18,0-3.24,1.48-.81,2.93-1,3.78.81C872.91,430.71,874.24,434,874.3,437.75Z" transform="translate(-605.13 -191.71)"/><path class="cls-1" d="M915.7,303.53l-1.32-1.38c.67-6.94,3.33-13.31,5.69-19.77a1.18,1.18,0,0,1,1.43-.17l.32.32C920.94,289.86,920.72,297.39,915.7,303.53Z" transform="translate(-605.13 -191.71)"/><path class="cls-1" d="M764,417a2.22,2.22,0,0,0-2.15,1.26c-4-2.32-7.13-5.53-11.05-9.41C758.13,408.27,760.55,413.39,764,417Z" transform="translate(-605.13 -191.71)"/><path class="cls-1" d="M772.22,210.6a73.92,73.92,0,0,1-27.22-.24.78.78,0,0,1,.07-1.15c7-.06,13.93,1.36,20.92.45C768,210.57,770.31,209.17,772.22,210.6Z" transform="translate(-605.13 -191.71)"/><path class="cls-1" d="M741.76,221.28c8.08-2.76,15.74.58,16,7.41-4.14-3.53-7.93-7.42-13.84-6.42C743.34,221.67,742.2,222.25,741.76,221.28Z" transform="translate(-605.13 -191.71)"/><path class="cls-1" d="M955.57,250.21c-5.28,4-12.92,4.48-17.74,1.06C944.25,251.63,949.83,250.57,955.57,250.21Z" transform="translate(-605.13 -191.71)"/><path class="cls-1" d="M729.56,333.6l-1.34.51c-1.28-3.37-3.41-2.63-5.83-1.36-.84.45-1.93.18-2.9-1.15,1.93-2,8.55-.49,5.66-6.44.36-.45.43-1.13,1.08-1.34,1.85,3,2.54,6.45,3.26,9.85Z" transform="translate(-605.13 -191.71)"/><path class="cls-1" d="M662.3,312l-1.91,2.18a25,25,0,0,1,3.37-16.91Z" transform="translate(-605.13 -191.71)"/><path class="cls-1" d="M951.47,411.8a2.09,2.09,0,0,0-1.38-2,51.71,51.71,0,0,1,8.17-13.2,1.16,1.16,0,0,1,.31,1.67C957,403.17,953.88,407.3,951.47,411.8Z" transform="translate(-605.13 -191.71)"/><path class="cls-1" d="M950.61,212.39a2.29,2.29,0,0,0-1.17,2.19c-3.77-2.42-7.76-2.55-11.89-1.13-1.7.47-2.14-.4-2-1.88A16.08,16.08,0,0,1,950.61,212.39Z" transform="translate(-605.13 -191.71)"/><path class="cls-1" d="M671.34,286.7a30.58,30.58,0,0,1-8,9.65c.52-5.6,4.22-8,6.59-11.17C671.18,285,671.86,285.32,671.34,286.7Z" transform="translate(-605.13 -191.71)"/><path class="cls-1" d="M745.07,209.21l-.07,1.15c-3.69-.61-7.39-1.21-11.08-1.84-1-.17-2.16-.43-1.84-1.77.37-1.58,1.43-.75,2.3-.39C737.81,207.79,742.05,206.22,745.07,209.21Z" transform="translate(-605.13 -191.71)"/><path class="cls-1" d="M935.55,211.57l2,1.88c-2.67,1.41-5,3.09-5.88,6.23-.91-1.33-2.16-2.48-2.18-4.27C931.14,213.55,932.92,211.9,935.55,211.57Z" transform="translate(-605.13 -191.71)"/><path class="cls-1" d="M997.53,345.47l-1.3-1.41a42.15,42.15,0,0,1,7-9.23,1.13,1.13,0,0,1,.25,1.58A21.66,21.66,0,0,1,997.53,345.47Z" transform="translate(-605.13 -191.71)"/><path class="cls-1" d="M875.51,480.17c-2.11-1.52-3-3.94-4.32-6-.61-.91-1-1.82.35-2.41,1-.42,1.57.12,2,.91,1.08,2,2.14,4.08,3.21,6.12A1.63,1.63,0,0,1,875.51,480.17Z" transform="translate(-605.13 -191.71)"/><path class="cls-1" d="M729.49,333.67c1.5,4.63,2.84,9.29,2.56,14.48-2.58-2.73-4-11.76-2.51-14.53Z" transform="translate(-605.13 -191.71)"/><path class="cls-1" d="M862.93,221.52a19,19,0,0,1-8.22,8.81c-.43-.29-1-.38-1.17-1,3.38-2.38,5.65-5.76,8.15-9A1.51,1.51,0,0,1,862.93,221.52Z" transform="translate(-605.13 -191.71)"/><path class="cls-1" d="M671.34,286.7,670,285.18a26.42,26.42,0,0,1,5.16-7.95,2.35,2.35,0,0,0,1.34,2.23Z" transform="translate(-605.13 -191.71)"/><path class="cls-1" d="M724.74,257.49l2.23-.95,10.76.54c1-.31,1.37.11,1.21,1.1A25.89,25.89,0,0,1,724.74,257.49Z" transform="translate(-605.13 -191.71)"/><path class="cls-1" d="M929.49,215.41c1.48,1,1.76,2.69,2.18,4.27q0,4.33.08,8.67a.7.7,0,0,1-1.07,0,45.39,45.39,0,0,1-.12-6.69c.39-3.14-1.41-2.68-3.28-2.41a1.2,1.2,0,0,0,.11.12A5,5,0,0,1,929.49,215.41Z" transform="translate(-605.13 -191.71)"/><path class="cls-1" d="M869.6,211.34c-.06,3.33-2.88,4.91-4.58,7.2-1.09.43-1.45,0-1.31-1.09,1.23-2.77,2.55-5.45,6-6Z" transform="translate(-605.13 -191.71)"/><path class="cls-1" d="M820.28,531.92c-.6-2.1-2.52-4.16.84-5.32.63-.21,1.44-1.32,1.91,0C823.93,529.23,822,530.43,820.28,531.92Z" transform="translate(-605.13 -191.71)"/><path class="cls-1" d="M958.57,398.25c-.11-.56-.21-1.12-.31-1.67l4.14-6.69.92,2.1C962.79,394.88,960.87,396.71,958.57,398.25Z" transform="translate(-605.13 -191.71)"/><path class="cls-1" d="M958.57,210.18c-3.26-.86-4.34-3.37-5.36-7.15,3.43,2,4.8,4.32,5.21,7.3Z" transform="translate(-605.13 -191.71)"/><path class="cls-1" d="M874.58,206.27c.38,1,1.25,1.06,2.1,1.19-2.69.7-4,3.92-7.08,3.88l.11.11C869.48,208,872.67,207.73,874.58,206.27Z" transform="translate(-605.13 -191.71)"/><path class="cls-1" d="M798.49,206.28c1.46.31,3.17-.42,4.35,1.05l-11-.13v-.55C794.07,206.38,796.22,205.27,798.49,206.28Z" transform="translate(-605.13 -191.71)"/><path class="cls-1" d="M961.35,214.75c3.83.62,4.52,4.32,6.64,6.61-3.1-1.37-5.78-3.15-6.54-6.74Z" transform="translate(-605.13 -191.71)"/><path class="cls-1" d="M794.84,199.7a26.23,26.23,0,0,1-13.9,0C785.58,199.42,790.21,199,794.84,199.7Z" transform="translate(-605.13 -191.71)"/><path class="cls-1" d="M742.76,442c2.44,4.1.87,8.52,1,12.8,0,.06-.25.19-.38.18a1.24,1.24,0,0,1-.45-.19Z" transform="translate(-605.13 -191.71)"/><path class="cls-1" d="M975.5,227.37l-1.11,1.1c-2.52-1.24-4.3-3.28-6.41-5.86C971.9,222.68,973.14,225.92,975.5,227.37Z" transform="translate(-605.13 -191.71)"/><path class="cls-1" d="M773.78,209.33c2.2-1.3,4.71-1.42,7.15-1.81.33.24.44.49.34.74s-.22.37-.32.37c-1.82,1.31-4,1.38-6.08,1.72C774.5,210,773.89,209.94,773.78,209.33Z" transform="translate(-605.13 -191.71)"/><path class="cls-1" d="M932.76,233c1.54,2.15.65,4.7,1.22,7.05-2.34-1.32-1.47-3.85-2.33-5.7C932,233.9,932.08,233.2,932.76,233Z" transform="translate(-605.13 -191.71)"/><path class="cls-1" d="M784.9,202.45c3.67-1.49,7.31-1.82,10.92.19Z" transform="translate(-605.13 -191.71)"/><path class="cls-1" d="M908.86,420.1c-2.06,1.32-4.36,1.65-7.36,2,1.85-2.51,4.25-2.19,6.12-3C908.05,419.41,908.67,419.48,908.86,420.1Z" transform="translate(-605.13 -191.71)"/><path class="cls-1" d="M936.21,246.82c-1.83-1.25-2.3-3.16-3-6.39C936.05,242.61,935.8,244.83,936.21,246.82Z" transform="translate(-605.13 -191.71)"/><path class="cls-1" d="M798.9,428.8a5.59,5.59,0,0,1-4.93-1c1.67-.85,3.32-2,4.84.39Z" transform="translate(-605.13 -191.71)"/><path class="cls-1" d="M1009.21,324.85l1.15,1.33c.18,2.41-2.71,2.91-3.09,5-1,.12-1.53-.19-1.06-1.29Z" transform="translate(-605.13 -191.71)"/><path class="cls-1" d="M798.9,428.8a.65.65,0,0,0-.09-.57c3,0,3,0,6.78,1.73C802.89,430,800.69,430.83,798.9,428.8Z" transform="translate(-605.13 -191.71)"/><path class="cls-1" d="M732,229.26c.43-3.42,1.72-4.8,3.86-5.39.2-.06.78.45.76.5C735.75,226.23,734.11,227.25,732,229.26Z" transform="translate(-605.13 -191.71)"/><path class="cls-1" d="M741.76,221.28l2.19,1c-2.14.81-4.27,1.65-7,.86C738.55,222,739.92,221.13,741.76,221.28Z" transform="translate(-605.13 -191.71)"/><path class="cls-1" d="M773.78,209.33l1.09,1-2.65.25c-2-.61-4.32.49-6.23-.94Z" transform="translate(-605.13 -191.71)"/><path class="cls-1" d="M1020.16,287.59c.24-.46.81-1.5.88-1.11a14,14,0,0,1-.1,6.74s-.3.06-.44,0a1.85,1.85,0,0,1-.38-.32C1020.13,291.14,1020.14,289.37,1020.16,287.59Z" transform="translate(-605.13 -191.71)"/><path class="cls-1" d="M908.86,420.1l-1.24-1c1.53-.67,3-1.45,4.8-1.26,1.1-.45,1.27.12,1.12,1A6.79,6.79,0,0,1,908.86,420.1Z" transform="translate(-605.13 -191.71)"/><path class="cls-1" d="M752.14,245.42a3.51,3.51,0,0,1,.48-3.06c1.78,2,1.41,4,.39,6.06C752,247.62,752.87,246.29,752.14,245.42Z" transform="translate(-605.13 -191.71)"/><path class="cls-1" d="M846.92,233.54l-6.23,2.28c.81-2.84,2.72-2.67,4.16-3.25C845.43,233.14,846.53,232.57,846.92,233.54Z" transform="translate(-605.13 -191.71)"/><path class="cls-1" d="M958.42,210.33c2.37.55,2.81,2.37,2.93,4.41l.1-.13c-1.81-.92-3.56-1.88-2.88-4.42Z" transform="translate(-605.13 -191.71)"/><path class="cls-1" d="M932.76,233l-1.11,1.35c-.32-2-.64-4-1-6l1.07,0C933.14,229.68,932.58,231.42,932.76,233Z" transform="translate(-605.13 -191.71)"/><path class="cls-1" d="M945.61,443.66c-.32.27-.58,2.12-1,.46-.54-2.32-.12-4.87-.11-7.32C946.66,438.81,945,441.41,945.61,443.66Z" transform="translate(-605.13 -191.71)"/><path class="cls-1" d="M917.05,240.23c-3.16-.08-6.41,1-9.44-.72C910.76,239.77,914,238.87,917.05,240.23Z" transform="translate(-605.13 -191.71)"/><path class="cls-1" d="M875.51,480.17l1.23-1.37a4.09,4.09,0,0,1,1.87,3c-.29.41-.38,1-1,1.1A3.5,3.5,0,0,1,875.51,480.17Z" transform="translate(-605.13 -191.71)"/><path class="cls-1" d="M853.54,229.33l1.17,1-4.48,2.44,0,0C848.91,229.32,852.54,230.56,853.54,229.33Z" transform="translate(-605.13 -191.71)"/><path class="cls-1" d="M730.22,233.74l-1.2-1.35a3.68,3.68,0,0,1,2.73-3.46C732.5,231.14,731.18,232.38,730.22,233.74Z" transform="translate(-605.13 -191.71)"/><path class="cls-1" d="M726.23,323.82l-1.08,1.34-1-4,1-2.3C726.19,320.37,726.1,322.12,726.23,323.82Z" transform="translate(-605.13 -191.71)"/><path class="cls-1" d="M851.74,257.42l0,1.05-4,.75c-.35-.21-.47-.42-.36-.64s.22-.33.33-.33a2.41,2.41,0,0,0,.38-.75Z" transform="translate(-605.13 -191.71)"/><path class="cls-1" d="M1006.21,329.86l1.06,1.29a4,4,0,0,1-1.75,3.32,1.5,1.5,0,0,1-1.18-1.32Z" transform="translate(-605.13 -191.71)"/><path class="cls-1" d="M900.78,200.55c-.33-.3-1.61-.69-.85-.84,1.82-.38,3.94-.92,5.64.65Z" transform="translate(-605.13 -191.71)"/><path class="cls-1" d="M768.69,201.33c-1.81,2.07-3.76,1.32-5.71.26Z" transform="translate(-605.13 -191.71)"/><path class="cls-1" d="M849.63,408a2,2,0,0,0,1.08-2c.74,1.14,2.74,2.2,1.41,3.6C851.23,410.57,850.27,408.94,849.63,408Z" transform="translate(-605.13 -191.71)"/><path class="cls-1" d="M863.71,217.45l1.31,1.09-2.09,3-1.24-1.14Z" transform="translate(-605.13 -191.71)"/><path class="cls-1" d="M759.9,233.22c-.94-1.23-1.75-2.5-1.17-4.42C760.57,230.18,760.26,231.7,759.9,233.22Z" transform="translate(-605.13 -191.71)"/><path class="cls-1" d="M770.15,299.19l.78-.95a6.91,6.91,0,0,1,2,5C771,302.58,770.77,300.76,770.15,299.19Z" transform="translate(-605.13 -191.71)"/><path class="cls-1" d="M846.92,233.54l-2.07-1c1.84-1,3.67-1.55,5.42.21,0,0-.08,0-.06,0Z" transform="translate(-605.13 -191.71)"/><path class="cls-1" d="M890.83,232.41a7,7,0,0,1,0,6.94C890.83,237,890.83,234.72,890.83,232.41Z" transform="translate(-605.13 -191.71)"/><path class="cls-1" d="M877.61,482.93l1-1.1c.51,1.07,1.9,1.7,1.64,3.26C878.44,485.41,878.31,483.82,877.61,482.93Z" transform="translate(-605.13 -191.71)"/><path class="cls-1" d="M761.69,236.6l1.06,5.5c-2.49-1.95-1.59-3.82-2.34-5.23Z" transform="translate(-605.13 -191.71)"/><path class="cls-1" d="M843.47,471.79c-1.43-2.07-.62-4,.3-6C845.26,467.89,843.78,469.81,843.47,471.79Z" transform="translate(-605.13 -191.71)"/><path class="cls-1" d="M752.82,250.32c.13,1.14.22,2.27-1.28,3a4.31,4.31,0,0,1,.25-4.26C752.44,249.23,752.51,249.88,752.82,250.32Z" transform="translate(-605.13 -191.71)"/><path class="cls-1" d="M764.19,246.25l-1.39,1.4a6.44,6.44,0,0,1-.45-4.13C763.94,243.88,763.93,245.15,764.19,246.25Z" transform="translate(-605.13 -191.71)"/><path class="cls-1" d="M738.94,258.18l-1.21-1.1c1.22-1.19,2.6-.75,4.13-.55A2.86,2.86,0,0,1,738.94,258.18Z" transform="translate(-605.13 -191.71)"/><path class="cls-1" d="M1004.34,333.15l1.18,1.32c0,1.39-1,1.74-2.06,1.94-.08-.52-.17-1.05-.25-1.58A1.8,1.8,0,0,1,1004.34,333.15Z" transform="translate(-605.13 -191.71)"/><path class="cls-1" d="M975.48,289.4c0-2,0-4.1,0-6.15.29-.44.55-.42.78.05C976.17,285.36,977.39,287.57,975.48,289.4Z" transform="translate(-605.13 -191.71)"/><path class="cls-1" d="M756.46,236.46c-2.31-1-1.16-2.61-1.31-3.85A3.1,3.1,0,0,1,756.46,236.46Z" transform="translate(-605.13 -191.71)"/><path class="cls-1" d="M913.54,418.87l-1.12-1c1.11-1.5,2.63-.86,4.52-1.44A4.3,4.3,0,0,1,913.54,418.87Z" transform="translate(-605.13 -191.71)"/><path class="cls-1" d="M781,208.63l0-1.11,5.91-.18-.07-.1C785.3,209.7,782.83,207.94,781,208.63Z" transform="translate(-605.13 -191.71)"/><path class="cls-1" d="M777.84,200.24c-1.84,2-3.84,1.56-5.88.37Z" transform="translate(-605.13 -191.71)"/><path class="cls-1" d="M784.61,319.31a2,2,0,0,0,1.28-1.95c.65-.54.93-.14,1.15.44.17,1.09.67,2.18-.13,3.22C785.77,321,785.3,320,784.61,319.31Z" transform="translate(-605.13 -191.71)"/><path class="cls-1" d="M843.89,438.92h.86c-.3,1.67.83,3.71-1.25,4.93Z" transform="translate(-605.13 -191.71)"/><path class="cls-1" d="M752.82,250.32l-1-1.25.35-3.65.87,3Z" transform="translate(-605.13 -191.71)"/><path class="cls-1" d="M844.63,432.56c0,1.81.72,3.71-.71,5.33C843.82,436.07,843.42,434.21,844.63,432.56Z" transform="translate(-605.13 -191.71)"/><path class="cls-1" d="M842.91,445.92c.73,1.33,2,2.7-.21,3.87Z" transform="translate(-605.13 -191.71)"/><path class="cls-1" d="M921.7,247.87c-.05-1.86-.79-3.81.68-5.48C922.16,244.22,922.65,246.13,921.7,247.87Z" transform="translate(-605.13 -191.71)"/><path class="cls-1" d="M976.22,283.3a3.41,3.41,0,0,1-.78-.05c0-1.73.07-3.47.1-5.2A9.54,9.54,0,0,1,976.22,283.3Z" transform="translate(-605.13 -191.71)"/><path class="cls-1" d="M1019.47,295.27c1.19,1.72,1.5,3.39-.32,4.92C1019.26,298.55,1019.36,296.91,1019.47,295.27Z" transform="translate(-605.13 -191.71)"/><path class="cls-1" d="M1024.12,305.19c-1-.85-.83-2-.78-3.09,0-.36,0-1.07.62-.76.3.14.36.81.52,1.24Z" transform="translate(-605.13 -191.71)"/><path class="cls-1" d="M791.87,206.65c0,.18,0,.37,0,.55a9.07,9.07,0,0,1-5.11.05l.07.09C788.33,205.76,790.14,206.44,791.87,206.65Z" transform="translate(-605.13 -191.71)"/><path class="cls-1" d="M937.94,666Z" transform="translate(-605.13 -191.71)"/><path class="cls-1" d="M973.53,643.19h0c-1.81-5.55-6.28-3.92-9.92-3.27-3.8.68-5.55,1-4.53-4.07,1.51-7.45,2.08-15.08,3.08-22.62.31-2.3-.08-4.22-2.18-5.64-4.07-2.75-11.05-2.06-14.41,1.6a172.06,172.06,0,0,0-22.72,31.67c-3.28,5.78-6.25,11.74-9.44,17.77A2.41,2.41,0,0,1,913,656c2.58-12.25,6.24-24.27,7.37-36.83.79-8.75-.37-11.95-6.28-13.29a16,16,0,0,0-12,1.49c-4.89,2.78-8.4,6.89-12.1,10.92-2.85,3.11-4.67,7.31-9.1,9.55.29-3,.62-5.24.72-7.53.12-2.49,0-5,0-7.48,0-1.13.1-2.2-1.09-3.07a11.94,11.94,0,0,0-16.91,3.12c-6.31,9.46-12.71,18.87-19,28.37-1.26,1.91-1.92,2.42-4,.67-6-5.06-13.08-8.23-20.2-11.32-9-3.92-9-3.89-5.07-12.78,2.43-5.49,2-6.74-3.09-9.41s-8.55-1.45-10.89,4.08c-.83,2-.59,5.29-4.79,3.46-5.83-2.55-8.89-1.61-13.14,3.19a121.85,121.85,0,0,0-11.44,15.56c-4.54,7.17-9,14.4-13.72,22a12,12,0,0,1-.61-1.76c-1.37-10.94.86-21.83.33-32.77-.29-6-2.88-8.69-9-8.71-3.7,0-6.83,1.72-8.27,4.65-4.92,10-14.11,13.71-23.56,17.52-5.12,2.07-9.84,5.14-15.08,7.94,0-8.54,0-16.44,0-24.35,0-1.27.47-2.65-.55-3.81-2.9-3.28-13.94-2.37-16.47,1.27-6.67,9.61-13.41,19.17-20.13,28.74-7.18,8.26-9.29,18.74-12.87,28.6,1.38-3.93,2.46-8,3.94-11.88,2.08-5.48,2.34-11.8,7.44-15.9.51-.41.16-1.24-.35-1.76-2.66-1-2.49-2.92-1.81-5.14,3.09-10.1,5.66-20.37,10.23-30,.71-1.5,2.46-3.21.45-5.29-5.43-5.64-12.81-4.46-15.79,2.66a250.28,250.28,0,0,0-10.91,32.77c-1.91,7.25-4.81,9.64-12.92,10.4A225.27,225.27,0,0,1,639,622c.86-3-.17-4.69-2.55-6.13a11.9,11.9,0,0,0-8.66-1.3c-1.64.32-3.82-.1-4.57,2.73-1.84,7-3.54,14.06-5.24,21.1-2.66,11-.89,23.73-11.65,31.85-1.05.8-2,3.17-.2,3.86,5.61,2.21,2.62,6,2.08,9.34-.66,4.07-1.55,8.11-2.45,12.14-.34,1.57-.61,2.89,1.2,3.78,4,2,8.18,2.79,12.47,1,2.54-1,4-3,2.94-5.82-1.2-3.33-.4-6.54.5-9.68,1.33-4.59,3.49-9,4.26-13.66,1.24-7.6,7.44-9,12.54-12.19.38.7.56.87.53,1-3,12-5.73,24.11-9.22,36-1.53,5.22-2,9.31,3.29,12.29h2c3.23-.93,7.21-.49,9-4.19,1.47-3,3.74-3.51,6.83-3.77,5.34-.44,10.81-1.41,12.7-7.71,1.16-3.84,3.58-6.62,6.55-9.16s6.2-5,9-7.85c1.15-1.15,2.46-2.91,4.1-2.47,2.21.6,1.31,3.09,1.69,4.75.49,2.1.82,4.24,1.29,6.35.91,4.13,2.35,8,5.46,11s7.89,3,12,.54c3.92-2.32,2.91-5.32,1.72-8.65-3-8.43-3.33-17.24-3.39-26.06a5,5,0,0,1,1.75-4,79.74,79.74,0,0,1,18.63-11.84c-1.71,4.37-3.17,7.69-4.48,11.06-3.48,9-7,18-7.89,27.71-.42,4.61.78,6.15,5.24,6.57,8.09.77,11.17-1.11,13.9-8.86,2.31-6.59,4.58-13.19,6.44-19.93.7-2.52,1.23-5.21,3.56-8.06.43,5-.08,9,.3,12.9.87,8.88.57,18.06,5.86,25.93,2.42,3.59,5.25,6.52,10.14,5.9s8.08-3.51,9.75-8.13c1.48-4.08,2.39-8.31,3.46-12.49,3.85-15.08,11.13-28.53,19.68-41.38-1.56,5.6-3,11.2-5,16.68-4.07,11.24-8.18,22.48-10.24,34.35-.7,4,.72,6.32,4.26,7.84,3.31,1.41,6.7,1.52,9.5-.63,4.14-3.17,8.89-4.27,13.77-5.38a44.86,44.86,0,0,0,12.43-5c4.44-2.55,8.59-5.6,13.35-8.14a40.33,40.33,0,0,0-2.38,13c0,1.72.1,3.34,1.55,4.52,5,4.09,16.35-.21,17.33-6.63A110.65,110.65,0,0,1,855,654a68.51,68.51,0,0,1,5-8.22c.43,2.36-.11,3.64-.15,4.95-.24,8.1-2.35,16.13-.56,24.31.7,3.2,2.27,5.32,5.37,5.7,7.47.94,12.68-.52,14.45-7.71a133.63,133.63,0,0,1,7.1-21.26c3.82-8.82,8.34-17.21,15.29-24.13a110.38,110.38,0,0,1-2.28,15.16c-3.06,14.14-6.1,28.27-5.89,42.86,0,3.53.19,6.8,4.86,7.18a3.8,3.8,0,0,1,2.77,2c3.47,5.22,8.69,4.14,13.55,3.46,4.41-.62,5.27-4.56,6.28-8.12a20.36,20.36,0,0,0,.84-3.38c.95-10.36,6.59-17,16.14-20.6l.21-.07s0,0,.21-.18c3.19-2,4.16-.6,4,2.55-.23,5.17,1.1,10.22,1.14,15.39s4.66,8.64,10.31,8.51c5-.11,7.06-2.52,7.16-8.62.14-8.3-1.39-16.53-1.09-24.87.14-4,1.48-6.46,5.11-8.17,3.24-1.52,6.94-2.55,9-6a.7.7,0,0,0,0-.14,4.15,4.15,0,0,0-.37-.34C973.47,643.86,973.5,643.52,973.53,643.19ZM670.85,665.31c3.79-8.86,7.13-17.67,14.16-25.48C686.56,654.77,682.91,661.16,670.85,665.31Zm157.12-9c-8.28,11-19.21,18.89-31.53,24.88a3.78,3.78,0,0,1-3.24-.11c3.64-14.42,8.92-28.24,14.1-42.12,1.16-3.1,2.33-3.17,4.92-2.21a63,63,0,0,1,12.93,6C830.49,646.18,831.78,651.21,828,656.29Zm103.89-2.13c3.07-6.65,5.47-13,11.27-19C943.76,649.49,942.75,651.15,931.86,654.16Z" transform="translate(-605.13 -191.71)"/><path class="cls-1" d="M1046,625.47c10.28-13,23.86-20.47,39.8-24.1,1.29-3.17-1-4-3.21-4.81-6-2.13-11.77-.41-17.42,1.47-9.4,3.12-16.65,10-25,14.79-6.19,3.57-11.73,6.9-13.68,14.24-.39,1.49-1.36,2.83-3.1.94-5-5.46-11.72-8.38-18.23-11.49-2.44-1.16-3-2.18-1.71-4.81,2.89-6.06,2.35-7-3.88-9.12-6.52-2.27-8.33-1.67-10.77,5.66-1.44,4.32-3.59,5.8-7.87,5.3a15.14,15.14,0,0,0-8.6,1.86c-1.82.9-2.07,2.51-2,4.19.1,2.2,2,1.94,3.35,2a55.52,55.52,0,0,0,6.45-.18c2.2-.17,2.61.73,1.94,2.64-2,5.91-4.06,11.85-6.1,17.78-.39,1.16-.86,2.24-2.42,1.37h0a1.6,1.6,0,0,1,.27,1.35c1.88,2-.33,3.77-.89,5.31-4.57,12.58-9,25.16-11.87,38.28-1,4.47-.48,7,4.32,8,6,1.2,9.23-.25,10.24-4.92.35-1.62.53-3.46,2.61-3.76,12.76-1.84,22.47-9,31.46-17.62,1.05-1,2.18-2.39,4.11-2.2-.11,2.4-1.41,4-2.27,5.71a56.73,56.73,0,0,0-5.31,14.85c-.56,3,.33,3.86,3.24,4.49,5.21,1.13,9.58-.55,13.45-3.47,13.58-10.24,28.84-17.24,44.42-23.71,3.07-1.27,5.89-2.89,7.17-6.36.79-2.13.69-3-1.82-3.88-6.51-2.2-12.06.5-17.62,3-8.16,3.59-16.2,7.49-25,11.58,2.15-9.46,5.39-16.3,14.21-20.26,11.34-5.1,22.68-10.17,34.49-14.35-3-4.8-7-6.23-12.06-5.83-5.25.42-9.77,2.87-14.54,4.62-3.29,1.2-7.82,5-9.58,2.68-2.06-2.73,1.36-7.24,3.14-10.74A2.31,2.31,0,0,1,1046,625.47Zm-38.51,28.63c-6.53,8-13.91,15-22.9,20.19-1.1.63-2.55,1.7-3.67.87-1.35-1,0-2.29.39-3.5,4.57-13.85,9.45-27.58,14.9-41.11,1.81-4.52,3.26-5.8,7.56-2.47,4.58,3.53,8.62,7.12,9.59,13.07A24.72,24.72,0,0,1,1007.49,654.1Z" transform="translate(-605.13 -191.71)"/><path class="cls-1" d="M919.7,251.34c0-2.26-.11-4.53,0-6.79.06-1.57-.4-2.47-2.1-2.42.79-1,1.93-.73,3-.75C920.2,244.69,921.47,248.15,919.7,251.34Z" transform="translate(-605.13 -191.71)"/><path class="cls-1" d="M904.51,248.66l-9.85-.18C898,246.81,901.27,246.5,904.51,248.66Z" transform="translate(-605.13 -191.71)"/><path class="cls-1" d="M920.73,282.28a25.55,25.55,0,0,0-.26-7.95c2.22,2.38.71,5.25,1,7.88A6.68,6.68,0,0,1,920.73,282.28Z" transform="translate(-605.13 -191.71)"/><path class="cls-1" d="M782,307.92c1.14,2,.42,4.18.73,6.26C781.2,312.25,782.14,310,782,307.92Z" transform="translate(-605.13 -191.71)"/><path class="cls-1" d="M856,268.22c-1.71,1.43-2.94,1-4.75,1C853,267.81,854.43,268.57,856,268.22Z" transform="translate(-605.13 -191.71)"/><path class="cls-1" d="M847.71,258.25l0,1h-4.16l-.05-.79Z" transform="translate(-605.13 -191.71)"/></svg>