<svg id="레이어_1" data-name="레이어 1" xmlns="http://www.w3.org/2000/svg" viewBox="0 0 688.91 335.87">
<defs><style>
.cls-1{fill:#040000;}
.cls-2{fill:#1e1d1b;}
.cls-3{fill:#22201e;}
.cls-4{fill:#23211f;}
.cls-5{fill:#24221f;}
.cls-6{fill:#564f4a;}
.cls-7{fill:#403a36;}
.cls-8{fill:#49413d;}
.cls-9{fill:#5a524d;}
.cls-10{fill:#2e2a27;}
.cls-11{fill:#1d1d1b;}
.cls-12{fill:#49413c;}
.cls-13{fill:#3f3834;}
.cls-14{fill:#5a534e;}
.cls-15{fill:#48413d;}
.cls-16{fill:#5f5752;}
.cls-17{fill:#231815;}
</style></defs><path class="cls-1" d="M708.05,315.36a31.22,31.22,0,0,1,15.3,3.12c1.61.8,2.36,1.39,1.82,3.75-4.36,18.86-11.25,36.85-18.3,54.82-8.77,22.32-17.69,44.61-23.55,67.94-1.71,6.83-2.47,13.77.52,20.53,1.3,2.94-1.08,3.94-2.79,5.05-3.6,2.33-7.78,3.13-11.94,3.77-7.54,1.14-15.08,1.3-22.46-1.07-2.76-.88-4.58-1.9-4.23-5.86,1.86-20.56,7.42-40.15,14.44-59.43,6.8-18.67,14.65-36.94,20.84-55.84a178.71,178.71,0,0,0,7.21-28.07,6.53,6.53,0,0,1,5-5.83A52,52,0,0,1,708.05,315.36Z" transform="translate(-455.54 -282.06)"/><path class="cls-2" d="M538.17,536.41c1.22-4.46,3.61-7.11,6.07-9.57,7-7,14.33-13.74,21.23-20.87,12.66-13.08,22.61-27.85,27-45.82,4.64-19,2.54-37.62-3.11-56-7-22.88-18.27-43.7-31.66-63.41-4.84-7.12-10.94-13.21-17.2-19.08-9.24-8.66-18.63-17.15-28.84-24.67-2.29-1.69-4.76-3.14-7-4.89-1.31-1-1.94-.59-2.45.63-10.92,26.53-24.45,52-31.7,80A276.77,276.77,0,0,0,461.94,423c-1.8,25.9-.18,51.47,6.68,76.56,4.1,15,9.35,29.57,19,42.09,1.85,2.4,3.78,4.72,6.72,5.89a1.56,1.56,0,0,1,1,1.91c-3.73.24-6.18-2.16-8.46-4.46-6.81-6.89-11.38-15.28-15.24-24a182.54,182.54,0,0,1-13.52-48.05,244.7,244.7,0,0,1-2.2-50.25,281.8,281.8,0,0,1,23.13-95.55c6.11-14.21,12.36-28.36,18.38-42.61,1.14-2.7,2.4-2.8,4.92-2,7.32,2.42,13.18,7.2,19,11.87a279.42,279.42,0,0,1,37.91,36.25c6.77,7.95,11.75,17.05,16.77,26.08,8.94,16.09,16.33,32.85,20.8,50.8,5.32,21.42,5.83,42.71-2.37,63.55C588.92,485.28,580,497.31,569.09,508c-7.67,7.56-15.91,14.48-24,21.57C542.93,531.47,541.87,534.39,538.17,536.41Z" transform="translate(-455.54 -282.06)"/><path class="cls-2" d="M534.76,407.72a203.83,203.83,0,0,0-9.44-64c-2.25-7.2-5.5-14-7.88-21.14-.37-.8.06-1.23.73-1.54,4.41,6.92,7.31,14.53,10.12,22.17,8.29,22.52,11.57,45.9,11.77,69.79,0,1.13.1,2.25.2,4.47,2.18-3.75,3.69-6.62,5.46-9.33,4.9-7.47,10.87-13.73,19.8-16.38.76-.2.94.13.75.81-10.82,5.55-16.9,15.51-23.42,25.08a17.62,17.62,0,0,0-3,10c-.3,11.44-1.08,22.85-2.5,34.22-.12.94-1.24,2.48,1,2.54,1.39-.09,1.31.62.86,1.55-3.92,3.62-3.44,8.7-4.25,13.29-1.4,8-2.47,16-3.62,24-.12.85-.67,2,.34,2.61.22.14,1-.51,1.44-.8.86-.27,1.14.1,1,.92-5,4.6-4.8,11-5.64,16.9Q526,541.12,524,559.36a346.86,346.86,0,0,0-1.39,55.26c0,.36,0,.73,0,1.09.16.86,1,1.94-.7,2.23-2.74-15.19-2.54-30.52-2.28-45.85a440.78,440.78,0,0,1,4.26-50c1.62-12.13,3-24.3,4.47-36.45-.17-1.76-.47-3.55.76-5.1,1.09-9.43,2.32-18.84,3.23-28.28,1-10.18,2.23-20.39,2.31-30.6,0-6.67-2.53-13.18-5.2-19.36-3.92-9.06-8.46-17.79-15.1-25.21-2.23-2.49-4.75-4.72-7.14-7.07,0-1.34.68-1.26,1.59-.84,13,8.57,19.79,21.29,23.94,35.77.26.93.55,1.85.83,2.77.47.47,1,.91,1,1.65C534.6,408.83,534.37,408.22,534.76,407.72Z" transform="translate(-455.54 -282.06)"/><path class="cls-3" d="M526.26,477.56c-3.23-11.47-7.53-22.46-14-32.57-4.11-6.46-8.69-12.3-16.06-15.29,0-1.34.71-1.31,1.65-.9,6.23,1.2,10.28,5.62,13.88,10.17,8.28,10.45,13.08,22.51,15.14,35.66C527.17,475.71,528,476.92,526.26,477.56Z" transform="translate(-455.54 -282.06)"/><path class="cls-4" d="M539.27,466a1.59,1.59,0,0,0-.86-1.55c7.65-11.8,16.45-22.13,31.39-24.69.9-.22,2-1.07,2.23.75C557.69,444.62,548.64,455.51,539.27,466Z" transform="translate(-455.54 -282.06)"/><path class="cls-5" d="M534.19,506l-1-.92c7.27-11.06,16.76-19,30.13-21.59.35.23.84.27,1,.75-10.57,4-19.16,10.85-27,18.84C536.37,504.15,535.25,505.07,534.19,506Z" transform="translate(-455.54 -282.06)"/><path class="cls-6" d="M518.17,321.07l-.73,1.54c-1.87-2.35-2.76-5.16-3.71-8C516.33,316,517.15,318.61,518.17,321.07Z" transform="translate(-455.54 -282.06)"/><path class="cls-7" d="M526.26,477.56c1-.81.31-2,.64-2.93.84,1.38.71,2.94.79,4.46,0,.9.16,1.68,1.38,1.45.41,1.8-.34,3.42-.76,5.1A32.62,32.62,0,0,1,526.26,477.56Z" transform="translate(-455.54 -282.06)"/><path class="cls-8" d="M502.7,367.09l-7-3.07c3.09-.53,5.46,1,7.87,2.36C503.59,367,503.46,367.42,502.7,367.09Z" transform="translate(-455.54 -282.06)"/><path class="cls-9" d="M572,440.5c-.5-1-1.5-.45-2.23-.75,2.19-1.1,4.6-1.06,7.67-1.79A7.2,7.2,0,0,1,572,440.5Z" transform="translate(-455.54 -282.06)"/><path class="cls-10" d="M497.88,428.8a1.79,1.79,0,0,0-1.65.9l-5.76-1.62c0-1.38.75-1.05,1.53-.72C493.77,428.62,496.15,427.37,497.88,428.8Z" transform="translate(-455.54 -282.06)"/><path class="cls-11" d="M564.32,484.28l-1-.75c1.53-.42,3-1.2,5-.53Z" transform="translate(-455.54 -282.06)"/><path class="cls-12" d="M492,427.36l-1.53.72c-1.15.3-2-.3-3.34-1.23C489.24,426.68,490.68,426.27,492,427.36Z" transform="translate(-455.54 -282.06)"/><path class="cls-10" d="M508.76,369.18a1.71,1.71,0,0,0-1.59.84,2.28,2.28,0,0,1-2.25-1.49,1.1,1.1,0,0,1,.87-.88A4.9,4.9,0,0,1,508.76,369.18Z" transform="translate(-455.54 -282.06)"/><path class="cls-13" d="M505.79,367.65l-.87.88a2.15,2.15,0,0,1-2.22-1.44l.86-.71A1.75,1.75,0,0,1,505.79,367.65Z" transform="translate(-455.54 -282.06)"/><path class="cls-14" d="M566.27,392.6l-.75-.81c1-1.25,2.2-.78,3.6-.79A2.94,2.94,0,0,1,566.27,392.6Z" transform="translate(-455.54 -282.06)"/><path class="cls-15" d="M511.78,311.7l-1.13-2.2c1.36-.2,1.5.66,1.67,1.51C512.74,311.7,512.32,311.74,511.78,311.7Z" transform="translate(-455.54 -282.06)"/><path class="cls-16" d="M511.78,311.7l.54-.69c.41.84,2.25,1.61,1,2.47C512.29,314.23,512.24,312.41,511.78,311.7Z" transform="translate(-455.54 -282.06)"/><path class="cls-17" d="M977.26,326.22c-8.39-6.07-18.17-8.35-28.3-9.4-6.73-.7-13.5-.34-19.84-4.08a49.83,49.83,0,0,0-14-5.08c-13.47-3.08-24.72.08-33.33,11.37-4.42,5.81-7.87,12.25-12.08,18.19-1.88,2.64-3.38,5.7-6.95,7.65a39.09,39.09,0,0,1,0-4c2-17.53-16.67-30.81-29.41-29.94-4.71.31-9.42.49-14.13.77-13.18.78-25.83,3.13-36.7,11.42a21.76,21.76,0,0,1-16.29,4.69c-4.73-.66-7.46,1.6-10.21,4.52-11.6,12.3-19,27.11-25.3,42.53a241.54,241.54,0,0,0-12.87,43.52c-2.44,11.9-4.45,23.89-3.09,36.18,1.08,9.77,5.58,15.37,14.95,18,6.94,1.94,14,2,21.09,1.46,18.18-1.41,34.35-7.23,47.39-20.44,9.56-9.68,17.36-20.76,25.53-31.56,5-6.61,9.85-13.4,17.33-19.17-1.37,4.69-2.44,8.33-3.5,12-3.23,11.06-6.5,22.16-6.14,33.82.41,13.6,6,22.77,20.74,24.77,10,1.36,19.78,0,29.62-1.22,18.1-2.32,32.31-11.85,45-24.14,15-14.49,27-31.42,39.09-48.2,9.76-13.47,18.71-27.38,21.8-44.18C989.83,343.83,987.42,333.58,977.26,326.22ZM755,448.86c-.63-7.06.07-13.61.86-20.15,2.21-18.37,7.59-35.89,14.4-53,2.24-5.63,5-11,7.47-16.6.68-1.53,1.35-1.93,3.22-1.68,3.68.49,7.39,1.1,11.17.6,8-1.06,13.57-5.62,18.09-12,2.64-3.72,5.31-7.48,9-10.26,1.33-1,2.63-2.07,4.57-2.12C818.89,382.72,791,417.89,755,448.86ZM950.34,347.08c-1,14.12-6.78,26.52-14.1,38.25-13.92,22.31-32.35,40.64-51.9,57.95-2.26,2-4.52,4-6.84,5.92-1.43,1.18-3.14,2.08-5,1.28s-1.15-2.78-1-4.23A179.81,179.81,0,0,1,882,396.84c7.15-19.58,16.55-38.1,26.37-56.43.81-1.52,1.75-1.92,3.12-1.6,7.27,1.67,13.21-1.11,18.73-5.42l1.71-1.32c6.24-4.81,11.76-3.7,15.82,3.26A20.87,20.87,0,0,1,950.34,347.08Z" transform="translate(-455.54 -282.06)"/><path class="cls-17" d="M857.09,529.23c4.23-2.84,7.4-6.46,12.55-5.71,1,.14,1.87.48,2.82.55,2,.14,4.83.69,5.19-1.83.28-1.91-2.56-2.06-4.17-2.4-6.73-1.42-13.12.1-19.42,2.52-8.9,3.42-16.19,9.37-23.83,14.8-2.74,2-5,5-8.29,5.67-5.22,1.14-9.61,3.74-14.16,6.18-2.63,1.42-5.14,3.26-8.49,3.52.32-1.22.45-2,.74-2.81,1.78-4.65,2.63-10.06,5.6-13.78,6-7.57,13.73-13.46,23.35-16.29a8.15,8.15,0,0,0,5.14-3.51,24,24,0,0,0-14.2,1.16c-11.07,4.11-20.11,11.35-28.52,19.41-2,1.91-3.9,2.9-6.69,2.65-5.73-.52-11.18.82-16.46,3s-10.7,4.29-16.67,6.68c1-3,1.95-5.34,2.59-7.72,1.15-4.3,3.65-7.07,8.2-7.56,1.94-.21,3.18-1,3.36-3,.22-2.38-.13-4.81-2-6.27-4.31-3.36-12.56-2-15.79,2.56a44.14,44.14,0,0,0-4.18,7.83c-4.59,10.32-4.74,22.71-14.29,30.75-1.06.9-1.53,2.46,0,3.4,1.86,1.17.93,2.33.4,3.64-3.23,7.93-7.17,15.61-8.33,24.28-.34,2.56,0,4,2.86,4.52,6.54,1.3,12.41.29,17.45-4.22,2.07-1.85,4-3.9,6.43-6.35,0,2.86,0,5.12,0,7.37,0,1.14.08,2.55,1.36,2.64a20.44,20.44,0,0,0,10.22-1.65c2-1,1.42-3.58,1.58-5.58.07-.95.23-1.9.39-2.85,2.57-15.08,9.3-28.67,15.18-42.59,1.53-3.64,4.1-5.21,7.48-6.27.85-.27,1.79-.55,2.3.17a2.43,2.43,0,0,1-.17,2c-.94,1.75-1.72,3.36-.28,5.31a2.83,2.83,0,0,1-.31,2.42,16.88,16.88,0,0,0-1.91,6.51A16.12,16.12,0,0,1,777.93,569a11.31,11.31,0,0,0-3.85,4.63c-.55,1.4-.86,3.15,1.17,3.44,2.83.4,1.62,2.15,1.25,3.34-1.25,4-2.79,7.83-4,11.79-.88,2.77,0,4.37,3.19,5,3.78.68,7.15-.19,10.51-1.53,6-2.38,10.92-6.52,16-10.4,5.94-4.55,12.07-8.85,17.85-13.58,1.18-1,3.89-2.19,2.76-4.33-1.33-2.53-4.21-1.67-6.56-1.57a5.55,5.55,0,0,0-1.64.71c-6.84,3-12.31,8-18.26,12.23-2.15,1.54-4.15,3.45-7.5,3.77,1.51-4.66,2.91-8.8,4.18-13a7.13,7.13,0,0,1,3.34-4.41c6.43-3.83,12.69-7.91,19.16-11.64,3.24-1.86,6.29-4.42,10.57-3.71,4,.67,6.58-1.49,9-4.63s5.24-6.49,9.78-7.88c-1.88,8.49-4.77,16.28-7.49,24.11-4,11.55-7.81,23.15-9.52,35.33-.28,2,.07,2.55,2.07,2.48a38.89,38.89,0,0,0,8.17-1.31c1.83-.46,2.45-1.32,2.82-3.13.92-4.57,2.07-9.09,3.34-13.57,4.4-15.5,10.17-30.53,15.57-45.68C860.8,532.61,862,530,857.09,529.23ZM737,586.69c.58-4.7,2.49-9,4.23-13.24,1.56-3.8,3-7.71,5.43-11.19,2.85-4,6.53-6.46,12.28-8.16C751.65,565.77,745.69,577.09,737,586.69Z" transform="translate(-455.54 -282.06)"/><path class="cls-17" d="M998.6,532.69a3.36,3.36,0,0,0,.18-3.09c-1.77-3.14-11.92-3.65-13.88-.66a3.71,3.71,0,0,0-.61,2c.12,2.78-1.07,5.16-2.25,7.5-7.56,14.95-13.66,30.44-17.14,46.86-.71,3.38-1.81,3.07-4.08,1.55-6.89-4.64-14.16-8.32-22.49-9.86-4.18-.78-8.47-1.86-12.39-4.47,4.58-3.37,8.81-6.56,13.13-9.65,9.91-7.08,20.3-13.51,29.71-21.29,2.22-1.84,5.09-3.83,4.3-6.91-.72-2.82-4.18-3.18-6.72-4-7-2.22-14.06-1.17-21,.34-2.73.59-5.13.48-7.5-1.29a9.28,9.28,0,0,0-6.44-1.52c-5.51.37-10.14,2.6-14.75,5.36-5.74,3.45-10.7,8.28-17.66,10.14-.59-4.73.33-9.11-.63-13.42-.53-2.39-1.72-3.56-4.23-4.17-6-1.46-10.7.75-14.69,4.8a118.67,118.67,0,0,0-19.08,25.68,196.21,196.21,0,0,0-14.63,32.53c-.47,1.37-1.51,3,.87,3.27,4.35.42,8.64.57,12-3.31,2.19-2.52,3.42-5.45,4.71-8.37.56-1.27,1-2.22,2.44-2,2.11.26,3.37-1,4.65-2.31a47.58,47.58,0,0,1,12.5-9.79c2.31-1.2,3.64-.82,3.68,2.11a55.4,55.4,0,0,0,2.11,13.87c2.73,10,1.6,10.47,13.64,8.88.93-.13,1.3-.4,1.8.79,1.11,2.63,11,3.67,12.84,1.44.33-.4.23-1.14.38-1.71.81-3,1-6.14,1.95-9.14.83-2.55,2.07-3.62,4.9-3.5,7.4.29,13.38,4.08,19.58,7.38,5.75,3.06,11.56,5.73,18.34,5.07.75-.08,1.52-.41,2,.85,1.78,4.67,2.73,5.14,8,5,3.32-.1,5.25-1.18,5.45-5,.7-13,5.22-24.87,10.68-36.5C991.9,548.42,995.21,540.53,998.6,532.69Zm-62.72,9.8c2.09-3.25,5.8-4.48,9.52-5.33s7.34-3,11.44-2.87c.88,0,1.86,0,2.19.88s-.66,1.17-1.11,1.69c-7.55,8.88-17.49,14.62-27.21,20.64-.24.16-.66,0-1.33,0C931.22,552.24,933,547.06,935.88,542.49Zm-52.6,13.08c-3.78,2.95-7.59,5.83-12.25,7.66,3-7.37,6.53-14.31,13.43-20.25,0,4.12,0,7.33,0,10.54A2.4,2.4,0,0,1,883.28,555.57ZM919,547.79c-.95,4.12-3.32,7.61-5,11.41a159.81,159.81,0,0,0-9.53,30.14c-2.79-2.54-2.73-5.63-3.2-8.31-1.23-7.12-2.05-14.3-3-21.47-.22-1.69-.13-3.32,1.44-4.58a101,101,0,0,1,15.67-10.33c.76-.4,2.08-1.5,2.93-.56A4,4,0,0,1,919,547.79Z" transform="translate(-455.54 -282.06)"/><path class="cls-17" d="M1122.44,523.37c-4.62-4.26-11.12-4-15.12,1a294.34,294.34,0,0,0-23.39,32.91c-1.26,2.09-2.23,4.52-4.85,5.68a5.59,5.59,0,0,1-.39-1.12c-.8-8.76-2-17.48-2.07-26.32,0-7.31-3.5-10.55-9.44-9.84-3.09.36-5.14,2.12-6.8,4.77-1.85,2.94-2.73,6.85-6.4,8.24-4.08,1.54-7.71,3.84-11.5,5.91-3.43,1.87-6.75,4.07-11.14,4.88,0-3.07.15-5.85,0-8.62a32.67,32.67,0,0,0-1.22-8.2c-2.14-6.53-8.58-8.6-14-4.34-11.4,9-18.3,21.35-25.29,33.62-4.95,8.69-5.9,19-11.25,27.6-1.14,1.82.09,3.43,1.48,4.32a12.72,12.72,0,0,0,10.37,1.52c2.69-.74,2.44-3.76,3.12-6a24.35,24.35,0,0,1,.84-3.49c.55-1.16.32-2.73,1.61-3.51,7.33-4.39,14.65-8.78,22-13.11,2.34-1.39,3-.36,3.21,2.09.64,6.22,1.06,12.49,2.51,18.61,1,4.17,3.27,5.09,8.66,4.54,4.1-.42,4.33-2.72,3.9-6-.26-1.94-.45-3.63,3-2.78,6.43,1.59,9.52-.33,11-5.61.69-2.4,1.4-4.8,2.21-7.15,2.67-7.69,4.73-15.67,10.55-22.41a25,25,0,0,1,1,3.23,122.36,122.36,0,0,1,1.47,17.63c.16,5.41.42,10.84,2.19,16,2,6,6.91,8.63,13.1,7.1a2.7,2.7,0,0,0,2.18-2.47c2.92-15.42,9.78-29.14,18.77-41.79,5.83-8.21,10.41-17.59,19.75-22.87C1124.44,526.41,1124,524.84,1122.44,523.37Zm-103.28,34.48c-5,3.38-10,6.88-16.35,9.8,3.53-9,8.81-15.53,13.59-22.86,2.62,3.92,2.26,8.23,3.24,12.17A1.12,1.12,0,0,1,1019.16,557.85ZM1036,577c-.75-5.2-1.52-10.39-2.24-15.59a1.6,1.6,0,0,1,.85-1.8c3.24-1.83,6.43-3.73,10.24-6A98.11,98.11,0,0,1,1036,577Z" transform="translate(-455.54 -282.06)"/><path class="cls-17" d="M696.54,525.64c2-3.46.93-5-3-5.25-4.58-.34-7.47,2-9.62,5.69-5.13,8.83-9.38,18.13-14.89,26.75-3.57,5.58-6.76,11.41-11.43,17.36.19-11.12,2.09-21.22.37-31.3-.35-2,2.39-5.6-2.27-6.15a20.75,20.75,0,0,0-7.81.62,4.12,4.12,0,0,0-3,3.76,38.52,38.52,0,0,0-.17,5.69c.23,9.18.72,18.37.69,27.55,0,7.35-.75,14.7-1,22A26.16,26.16,0,0,0,645.8,602c.46,1.3.88,2.68,3,3.11,4.86,1,8.85-1,10.63-6.11,1-2.92,1.89-5.89,2.72-8.87,5.17-18.45,15.8-34.11,25.62-50.19C690.68,535.18,693.77,530.5,696.54,525.64Z" transform="translate(-455.54 -282.06)"/><path class="cls-17" d="M723.91,571.52c-3.28-1.66-6.35-.88-9.18,1-3.93,2.58-7.64,5.49-11.63,8-5,3.12-10,6.37-16,8.62a25,25,0,0,1,6.18-12.49c7.65-8.61,17.94-13.19,27.85-18.34,2.35-1.22,4.89-2.14,6.85-4,1.36-1.28,1.48-2.41-.62-3.24a13.85,13.85,0,0,0-10.49-.18c-3.87,1.49-7.12,4-10.6,6.1-2.57,1.58-4.94,3.62-8.57,4,1.59-4,1.68-8.12,4.17-11.27,6.5-8.24,14.33-14.54,25.16-16.13a5.69,5.69,0,0,0,4.55-2.78c-7.91-3.11-15.06-1.57-22,2.41-5.8,3.36-11,7.84-17.74,9.47-2.09.5-3,2.39-3.29,4.31-.91,6.95-3.57,13.34-6.08,19.78-3.89,10-8.27,19.78-11.21,30.12-.53,1.88-.14,2.88,1.59,3.64,3.22,1.42,6.38.81,9.46-.32,9.28-3.42,17.74-8.47,26.22-13.45,5.5-3.22,11.27-6,16.12-10.24C727.26,574.26,727,573.07,723.91,571.52Z" transform="translate(-455.54 -282.06)"/><path class="cls-17" d="M1140.77,298.17c-15.27-4.8-26.94-1.67-34.8,9.6-18.6,26.62-37,53.39-55.68,80-8.74,12.43-18.06,24.46-27.51,36.38S1002.59,446.27,992.1,457c-6.22,6.34-12,13.08-15.63,21.38-1.9,4.39-1.1,6.07,3.53,7.29,7.53,2,15.09.84,22.65.06,1.57-.17,1.83-1.26,2.3-2.39a52.29,52.29,0,0,1,5-9.87c7.15-10.34,16-19.31,24.38-28.54,14.6-16,28.44-32.61,41.36-50,14.78-19.86,29.5-39.78,43.66-60.08,8.08-11.58,18.48-21.41,25.11-34v-1.45C1143.23,299,1142,298.56,1140.77,298.17Z" transform="translate(-455.54 -282.06)"/><path class="cls-17" d="M1018.37,359.34a14.55,14.55,0,0,0,8.28,2.06,24.23,24.23,0,0,0,4.63-.59c16.18-5.13,25.68-16.5,29.41-32.66,1.82-7.86.39-9.07-7.58-8.88-14.5.35-33.22,13.58-38.15,27C1013,351.71,1014.15,356.56,1018.37,359.34Zm12.88-19a25.93,25.93,0,0,1,11-11.08c3.44-1.83,4-1.43,3.94,2.52-.12,5.68-4.76,12.95-9.44,14.66-1.83.66-3.74,1-5.41-.5C1029.3,344.06,1030.38,342,1031.25,340.3Z" transform="translate(-455.54 -282.06)"/><path class="cls-17" d="M1106.77,429.36c-2.85-2.61-6.09-3.52-10-2a67.29,67.29,0,0,0-9.44,4.36c-8.9,5.2-16.6,11.58-19.79,21.87-2.54,8.17,2.19,14.66,12.86,14.52,3.77-.12,9.06-2.9,14-6.48,7.67-5.6,13.48-12.61,15.58-22.1A10.24,10.24,0,0,0,1106.77,429.36Zm-11.23,11.11c-.69,6.91-3.5,12.5-9.73,16.21-1.61,1-2.19.31-2.85-.68a11.65,11.65,0,0,1-1.77-5c.09-6.14,7.06-12.52,13-12.39C1095.72,438.62,1095.62,439.58,1095.54,440.47Z" transform="translate(-455.54 -282.06)"/></svg>