<svg id="레이어_1" data-name="레이어 1" xmlns="http://www.w3.org/2000/svg" viewBox="0 0 798.23 334.41"><defs><style>.cls-1{fill:#231815;}</style></defs><path class="cls-1" d="M706.26,608.91c3.36-19.67,11.45-37.85,17.74-56.59.94-2.79,1.84-5.6,2.72-8.41.23-.76.62-1.79-.2-2.23a2.67,2.67,0,0,0-2.32.16q-4,2.83-7.84,6c-3.55,2.9-7.08,5.6-11.93,2.75a2.31,2.31,0,0,0-2.73.39c-7.75,5.33-16.69,8.71-24.07,14.64-6.59,5.29-10.94,11.77-10.64,21.09,10.9-3.46,20-9.79,29.78-14.75,3.09-1.57,6.05-3.37,9.61-3.53,1.22-.06,2.79-.57,3.49,1.08s-.51,2.75-1.42,3.42a127.13,127.13,0,0,1-11.07,7.49C686,587,674.54,593.54,663.11,600.1a20.81,20.81,0,0,1-2.23,1.08c-3.23,1.36-6.77,3-9.81.44-2.84-2.38-2-5.93-1.37-9.27,2.85-14.74,9.42-28.15,14.88-42,2.33-5.9,5-11.67,7.67-17.44.54-1.18,1-2.59,3.09-2.56,8.37.12,15.57-3.78,22.83-7.24,5.61-2.67,11.37-4.47,17.61-4.23,2.86.1,3.69,1.28,1.75,3.82a11.57,11.57,0,0,1-6.46,4.35c-7.56,1.87-14.38,5.57-21.58,8.28-6.26,2.36-8.54,7.14-10.3,12.71-.68,2.17-1.23,4.37-1.92,6.84,2.58-.09,4.63-1.25,6.76-2.28,2.66-1.29,5.33-2.8,8.17-3.46,13.12-3,22.88-12.23,34.34-18.28,2.78-1.46,5.4-2.81,6-6.45a4.23,4.23,0,0,1,5.21-3.46c8.15,1.92,15.23-1.59,22.53-3.94,4.8-1.54,9.59-2.47,14.52-1.13,1.13.31,3,.75,3,2.15s-1.34,2.2-2.66,2.6a28.5,28.5,0,0,1-5.68,1.54c-7.5.67-14.26,3.81-21.29,6.06a4.36,4.36,0,0,0-3,3.08c-6.34,22.33-16.6,43.27-23.31,65.47a18.49,18.49,0,0,0-.71,1.82C719.24,608.38,716.43,610.34,706.26,608.91Z" transform="translate(-437.05 -282.79)"/><path class="cls-1" d="M963.59,548.87c-4.63,6.92-5.39,14.76-6.9,22.37-1.21,6.12-1.81,12.35-3.71,18.34A12.44,12.44,0,0,1,940.07,598c-3.6-.42-3.45-2.59-3.1-5.36,1.88-14.68,6.17-28.72,11.38-42.49,4.2-11.09,8.26-22.26,14.25-32.59a12.82,12.82,0,0,1,5.86-5.06c4.82-2.34,9.25-.05,9.82,5.2a86.35,86.35,0,0,1,.32,10.43,210.32,210.32,0,0,0,2.31,37.77c2.5-4.31,4.7-7.75,6.55-11.37,5.56-10.89,10.66-22,18.62-31.5,2.73-3.25,5.88-5.79,10.64-4.77,2.33.49,2.85.93,1.5,3.48-7,13.1-14.34,26-19.67,39.92a147.7,147.7,0,0,0-8.94,33.14c-.5,3.76-5.42,7.35-11.48,8.44-4.13.75-5.57-2.15-6.81-5.1-3.7-8.8-4.23-18.27-5.55-27.55C964.74,563.36,964.29,556.1,963.59,548.87Z" transform="translate(-437.05 -282.79)"/><path class="cls-1" d="M802.23,582.3c-5.5,2.17-9.09,6.61-13.52,9.89-5.25,3.9-10.65,7.3-17.55,7.11-5-.15-7.51-2.52-8.24-7.35-1.3-8.59,1.67-16.35,5.55-23.48,6-11,12.62-21.62,19.55-32,3.49-5.23,6.92-11,13.59-13.17,7.26-2.35,11.5,1.19,10.31,8.61-1.37,8.51-5.67,12.8-14.09,13.86a2.43,2.43,0,0,0-1.92,1.19c-8.11,11.63-15.07,23.79-18,37.88a3.62,3.62,0,0,0,.22,1.15c5.68-1.05,9.31-5.11,13.22-8.73,4.08-3.79,7.62-8.2,13.24-10.1,3.22-1.1,6.08-1.07,7.8,1.86,1.89,3.24-1.27,4.56-3.3,6.13-1.64,1.27-3.8,2-4.41,4,10.49,2.79,20.43.45,30.34-2.59,3.6-1.11,8.16-2.73,8.27-6,.12-3.51-4.71-4.89-8.08-6.15-5.8-2.18-12-3-17.62-5.94-6.07-3.16-7.83-8.14-4.7-14.27a29.85,29.85,0,0,1,9.63-11c8.27-5.75,16.24-12,25.8-15.6a16.08,16.08,0,0,1,11.09,0c1.37.44,2.53,1,2.44,2.64-.1,1.84-1.35,2.47-3.07,2.52-13.53.39-22.27,9-30.49,18.16-4.6,5.11-3.34,10.21,2.81,13.17,7,3.39,14.27,6.35,21.33,9.68,2.95,1.39,6.25,3.12,6.25,6.87s-3.21,5.7-6.11,7.17c-11.36,5.78-23.61,8.94-36,11.6a47.16,47.16,0,0,1-8.37,1C800.35,590.49,799.87,589.8,802.23,582.3Z" transform="translate(-437.05 -282.79)"/><path class="cls-1" d="M1103.69,565.78a16.07,16.07,0,0,0,3.85-5c7.3-17.19,18.18-32.3,28.14-48,2.16-3.4,13.52-4.74,16.43-1.95,2.24,2.13.42,3.89-.89,5.47-5.78,6.95-11.63,13.85-16.51,21.49-11,17.16-19.5,35.39-24.29,55.26-1.08,4.49-5.2,6.72-12.31,6.87-4.37.09-5.33-3-6.25-6.25-2.17-7.67-2.66-15.58-3.36-23.46-.11-1.23-.14-2.46-.26-4.69-3.73,4.16-3.67,8.5-4.61,12.44-.8,3.33-1.36,6.72-2.05,10.09-1.3,6.35-5.56,9.35-11.65,10.45-2.48.45-4.75.15-6.2-1.83-1.63-2.23-2.22-5.22-.21-7.29,4.62-4.79,5.07-11.12,7-16.89a184.76,184.76,0,0,1,14.29-33.65c3-5.27,6.1-10.8,13.68-10.4,6.49.35,7.82,1.39,6.94,7.7C1104.05,545.76,1102.87,555.32,1103.69,565.78Z" transform="translate(-437.05 -282.79)"/><path class="cls-1" d="M1192.45,513c-4.34,4.54-10.39,4.64-15.19,7.3-5.44,3-11.37,5.26-16.49,8.72-4.58,3.1-4.78,8.9-6.53,14.16,5.74-1.17,10-4.3,14.77-6.36,4.53-2,9.11-3.85,14.27-2.52,1.56.4,3.75.53,4,2.14.32,2.3-2,3.19-3.8,4a253.42,253.42,0,0,0-25.07,12.77c-8.92,5.34-16.33,11.69-17.42,23.36,6.57-.93,12.53-4,18.75-6.14s12-6.33,18.85-7.25c2.24-.3,4.6-1,5.57,1.46,1.12,2.88-.43,5-3.21,6.28-12.57,5.77-25.1,11.62-37.69,17.35-4.32,2-8.49,4.23-13.25,5.21a14.46,14.46,0,0,1-5.83-.08c-3.12-.6-4.21-1.7-3.14-5.36a270.13,270.13,0,0,1,17.06-42.69c2.21-4.48,2.43-9.42,4.85-13.8a18.41,18.41,0,0,1,8-7.6c8.79-4.56,17.58-9.12,27.25-11.67C1182.93,511.05,1187.5,510.88,1192.45,513Z" transform="translate(-437.05 -282.79)"/><path class="cls-1" d="M1015.92,579.8c7.89-4.27,14.46-7.93,21.13-11.4,4-2.11,8.09-2.94,11.65,1.73-4.84,3-9.64,5.9-14.3,9-7,4.63-14,9.39-20.92,14.15a22,22,0,0,1-8.68,3.31c-6.38,1.16-9.16-1.73-7.68-8,2.54-10.75,8.15-20.25,12.51-30.25a359.68,359.68,0,0,1,16.93-34.06c1.63-2.86,7.88-5.76,10.9-4.68s1.23,3.41.65,4.84c-1.91,4.64-4.5,9-6.33,13.66C1026.55,551.44,1021.57,564.89,1015.92,579.8Z" transform="translate(-437.05 -282.79)"/><path class="cls-1" d="M740.67,607.38c-4.43,0-6.74-2.18-6.59-6.72.26-7.8,2.92-15.11,5.41-22.38,5-14.62,10.48-29.09,15.44-43.73,2.59-7.62,7.44-10.15,14.89-6.9,2.57,1.12,3.44,2.35,2.46,5.7-5.56,19-13.8,37-19.23,56-.72,2.52-.83,5.2-1.42,7.76-.52,2.31,1.7,4.9-.73,7C749,605.71,743.68,607.41,740.67,607.38Z" transform="translate(-437.05 -282.79)"/><path class="cls-1" d="M1080.79,519.54c-.6,2.71-1,5.5-1.84,8.13q-9.57,29.57-19.32,59.08c-1.05,3.21-9.81,6.89-12.77,5.29-1.84-1-2.13-2.83-2-4.75a30.13,30.13,0,0,1,2.48-9c7.79-18.8,13.47-38.29,19.08-57.81,1.19-4.12,8.24-7.36,12-5.59C1080.47,515.84,1080.7,517.55,1080.79,519.54Z" transform="translate(-437.05 -282.79)"/><path class="cls-1" d="M551.27,308.21c-.08-3.56,3.35-2.49,4.8-3.76,4.27-3.75,9.44-5.47,14.38-7.79,1.32-.62,2.55-1.54,4.14-1.21C567.06,300.13,559.51,304.79,551.27,308.21Z" transform="translate(-437.05 -282.79)"/><path class="cls-1" d="M546.29,310.21c.38-3.85,2.88-2.41,5-2C549.74,309.23,548.21,310.21,546.29,310.21Z" transform="translate(-437.05 -282.79)"/><path class="cls-1" d="M836.46,297.61a3.55,3.55,0,0,1-1,.52c-.48.09-1-.15-.76-.74a1.63,1.63,0,0,1,1-.78C836.24,296.48,836.53,296.86,836.46,297.61Z" transform="translate(-437.05 -282.79)"/><path class="cls-1" d="M1093.4,408.83c-.79-3.42-3.44-5.4-6.38-7.12-9.13-5.36-19.25-8-29.32-10.77-9.76-2.71-19.71-5.14-28.53-10.26-10.19-5.92-11.74-11.63-7.92-19.37,2.35-4.78,6.16-8.86,10.41-12.42,10.78-9,23.29-14.76,36.24-19.75,10.19-3.93,20.42-7.78,30.92-11.78-8.18-6.81-15-9.07-23.5-7.68a85.05,85.05,0,0,0-22.94,7.27,267.78,267.78,0,0,0-37.57,22.18c-3.81,2.64-7.88,4.14-12.6,3.07-9.23-2.11-17.55.5-25.69,4.65-6.22,3.18-12.33,6.73-19.79,7.84,2.54-9.88,8-18.2,11.3-27.36.3-.82,1.36-1.4,2.15-2,18.2-13.09,37.39-24,59.84-28.22a23.73,23.73,0,0,0,12.44-6.55,5.33,5.33,0,0,0-1.4-.88,85.71,85.71,0,0,0-47.74,3.44c-14.8,5.43-28,14.07-42.35,20.37-9.63,4.23-15.89,11.25-21.58,19.37-2.35,3.36-3.91,7.47-3.1,11.16,1.56,7.09-2,12.7-3.94,18.8-.65,2.09-1.87,4.25-4.84,4.2-2.82,0-5.65.17-8.46.35-2.4.16-3.19-.47-2.35-3.06,2.62-8.08,4.84-16.29,7.52-24.35,4.75-14.31,9.25-28.68,12.46-43.43.69-3.19.35-5.41-3.57-6.24a48.25,48.25,0,0,0-16.81-.51,4.06,4.06,0,0,0-3.69,2.78c-3.49,9.49-7.36,18.84-10.84,28.34-6.58,17.94-13,35.95-19.53,53.89-.42,1.16-.14,2.74-2.23,3.39-6.11,1.9-12.06,4.32-18.12,6.41-1.49.52-3.35,1.5-4.66.2s.1-2.76.53-4.13c6.33-20,12.78-39.89,18.55-60,.78-2.74-.06-3.64-2.11-4.34a38,38,0,0,0-16.5-2.07,8,8,0,0,0-7.05,5.06c-9.34,19.32-15.82,39.63-22,60.11-3.13,10.42-3.27,22.29-13.37,29.86-1.63,1.22-2.14,1.71-3.85.79a78.67,78.67,0,0,0-13.15-5.32c-12.91-4.19-26.47-6.28-38.94-11.9-6.77-3-12.19-7.35-13.11-15.31-.79-6.79,2.49-12.25,6.86-16.81,14-14.55,30.11-25.2,51-26.52,2.93-.19,4.44-1.78,5.51-4.2s-.48-4.12-2-5.65A15.6,15.6,0,0,0,788,320c-7.46-.86-14.27,1.44-21,4.17-15.07,6.12-30.16,12.82-40.73,25.49-15.74,18.87-38.28,24.65-59.91,34.07,2.65-8.65,5-16.51,7.51-24.35.23-.73.74-1.71,1.35-1.93,5.81-2.07,9.23-6.89,12.85-11.33,4.4-5.4,10-9,16-12.23,10.4-5.66,21.6-8.72,33.16-10.78,2.84-.5,6.27-1.79,6.11-4.79s-3.65-3.71-6.45-4.22c-.32-.05-.66,0-1-.06-10.25-1.16-20.06.95-29.64,4.25-16.11,5.53-30.12,14.89-44.1,24.3-2,1.36-4,2.52-6.71,2.61-3.92.13-6.34,1.89-7.8,6.34-8.53,26.06-18.44,51.63-28.86,77-1,2.54-2.17,3.44-5.1,2.15a244,244,0,0,0-39-13.1c-5.3-1.33-10.74-2.71-15.36-6.17-2.5-1.87-2.1-2.8.18-4.15,4-2.36,8-4.65,11.85-7.23,17.15-11.57,33.36-24.38,49.62-37.14,9.9-7.78,19.47-15.86,26.49-26.49,3.48-5.28,3.42-5.67-2-8.34a53.43,53.43,0,0,0-7.19-2.94c-13.44-4.3-26.49-1.71-39.42,2.38-10.49,3.31-20.54,7.91-31.38,10.14-5.45,1.12-11-.22-16.38.71-9.13,1.57-16.89,6.16-24.59,11-4.94,3.06-9.71,6.51-15.91,8.13,3.24-12,7.46-23.19,10-34.82.36-1.66,1.58-2.21,3.06-2.82,7.59-3.12,15.11-6.4,22.66-9.63,1.08-2.09,3.32-1.3,5-2h0a156,156,0,0,1,23.32-12.76c8.8-3.3,19.12-2.55,26.88-10.18a85,85,0,0,0-32.75-1.56c-12.07,1.79-22.44,7.87-33.15,13-9.56,4.58-18.79,8-29.84,4.84-8.63-2.48-14.2,1.61-14.41,10.35-.19,7.94-4.2,12.21-10.37,15.63a51.73,51.73,0,0,0-4.61,2.83c-4.59,3.25-9.35,6.33-12.23,11.43-2,3.49-4.7,7.92-2.11,10.94,3,3.44,7.65,1,11.49-.79,2.7-1.25,5.1-3.72,8.58-2.73-2.28,9.08-4.61,17.93-6.71,26.82-2.58,10.89-7.28,20.16-17,26.64-7.13,4.75-14.14,9.91-18.85,17.36-2,3.13-3.64,7.29-1.28,10.07,2.5,2.95,6.9,2.26,10.66.8,2.32-.91,4.54-2.4,7.31-2-2.17,6.46-4.37,12.59-6.28,18.81-2.32,7.59-4.22,15.29-2.21,23.3.84,3.37,1.95,7.22,5.26,8.46,6.56,2.44,17.91,2,23.35-3.87,2-2.13,4.63-4.59,2.64-7.68-4.47-6.93-3.26-14.07-.94-21,6-17.79,14-34.81,19.53-52.78a5.23,5.23,0,0,1,1.68-2.35c12.62-10.12,24.35-21.41,38.5-29.54,2.27-1.31,4.55-2.85,7.57-3.31-2.29,11.26-6,21.37-10.11,31.35-4.8,11.67-11.58,22.38-13.61,35.34-2.24,14.32-8.42,27.84-10.33,42.35-1.1,8.31,1.09,10.71,9.71,10.74a40.86,40.86,0,0,0,7.33-1.06c5-.91,8.54-3.05,9.42-8.74.75-4.81,2.43-9.47,3.65-14.21,1.71-6.64,3.36-13.3,6.08-19.63,1.22-2.84,2.39-4.87,6.47-3.48,5.7,1.93,11.78,2.69,17.6,4.31,13,3.62,25.81,7.68,35.86,17.43,2.19,2.13,2.95,3.85,2.06,7.25-3.25,12.45,4.78,17.55,13.73,17.17,6.77-.29,12.51-3,17.9-6.48,15.57-10,30.05-21.65,45.59-31.77a156,156,0,0,0,26.89-21.94c2.51-2.57,2.21-3-1.15-4.18-9.66-3.46-18.29-.65-26.55,3.83s-16.13,9.7-24.29,14.4c-4.44,2.55-8.51,6-13.93,7.11.3-5.39,2.31-9.9,4.48-14.21,1.81-3.6,1-8.19,4.53-11.07,14.11-11.69,30.11-20.2,46.68-27.76,1.1-.5,1.86-1.23,2.77.4,6.73,12.1,18.52,16.45,30.86,19.95,9.13,2.59,18.3,5.05,27.32,8,5.55,1.81,11.31,3.59,15.61,8.56-21.91,8-43.43,15-66.54,15.44a29.17,29.17,0,0,0-12.54,2.63c-3.83,1.9-5.72,5-5.25,9.17s3.33,6,7.46,6.31a25.48,25.48,0,0,0,6.41-.12c19.49-3.34,38.68-8,57.8-13,11.27-3,22.63-5.58,34.36-8.46-1.37,6.5-2.88,12.32-3.28,18.32-.24,3.52.3,6,4.66,7.14,8.12,2.07,15.21-.68,22.48-3.34,4.19-1.53,6.78-3.85,5.18-8.79-.66-2.06-.17-4.21-.1-6.33.39-11.18,6-21.05,7.86-31.87.25-1.48,1.59-2,2.71-2.66a93.74,93.74,0,0,1,25-11,30,30,0,0,1-.77,3.65c-3.13,8.93-6.36,17.82-9.45,26.77-4.67,13.55-8.87,27.2-10.13,41.6-.34,3.79,1,5,4.54,6,6.39,1.67,12-1.4,18.07-1.79,2.77-.18,3.84-1.82,4.45-4.23,7.05-27.6,16.52-54.44,25.67-81.38.89-2.63,2.2-4.4,4.52-5.44,3.14-1.4,6.39-2.55,9.59-3.82.95-.37,2.07-.8,2.79,0,.94,1-.07,2-.51,3.08-2,4.73-5.75,8-9.23,11.5-4.34,4.37-7.85,9.13-9.46,15.23-.56,2.13-.27,4.17,1.27,4.85,4.84,2.12,2.42,5.1,1.23,7.81-4,9.11-6.62,18.52-6.88,28.51,0,1.61-.14,2.92,1.81,4,5.84,3.25,12,4.14,18.52,3.65,10.55-.79,20.11-4.57,29.26-9.66,1.09-.61,2.28-2.32,3.87-.73,4.62,4.61,10.72,4,16.27,3.89,11.91-.26,23.55-2.85,35.21-5.29,22.73-4.76,45-11.26,67.34-17.52,7.86-2.2,16-3.68,23.29-7.73C1091.34,416.73,1094.6,414,1093.4,408.83ZM574.53,363.61c.44-1.22,1.31-2.42,1.33-3.64.21-11.56,8.82-14.74,17.59-17.89,7-2.51,13.95-4.92,22.53-3.59-12,17.73-29.49,28.44-46.78,40.05C571,373.57,572.75,368.58,574.53,363.61Zm483.82,47.88a43.19,43.19,0,0,1-17.06,7.36c-19.46,4.12-38.8,8.77-57.92,14.17-7.28,2-13.06-1.6-19.81-2.43.94-2.71,3-4.08,5-5.43,8.55-5.63,17.15-11.18,25.66-16.87A31.63,31.63,0,0,0,999.1,404c4.59-4.66,3.76-7.89-2.68-10.1-7.57-2.61-14.66-.49-21.54,2.64-13.23,6-24.2,15.47-36,23.71a87.76,87.76,0,0,1-13.62,7.87c5.59-12.35,7.65-25.19,14.44-36.29a40.43,40.43,0,0,1,13.34-13.1c11.62-7.31,24.26-12.55,37.59-18.17-.2,4.07-1.92,7.09-1.69,10.43.5,7.26,4.65,12.13,10.41,16,11.26,7.49,24.39,10.07,37,13.95,7,2.16,14.14,4.07,21.19,6.15C1060.71,408,1061.26,409.33,1058.35,411.49Z" transform="translate(-437.05 -282.79)"/><path class="cls-1" d="M1222.52,304.3c-14-3.54-27.94-1.09-41.77,1.56-12.41,2.37-24.86,4.35-37.51,3.06-3.62-.37-5.54.63-7,3.6a13.74,13.74,0,0,1-9.55,7.81c-4,1-7.77,2.56-11.64,3.89-13.36,4.59-27,8.55-39,16.3-7.13,4.6-12.84,10.38-14.41,19.13-.26,1.44-1.56,3.76,1.36,4.4a28.22,28.22,0,0,0,12.28.45c8-1.75,13.67-7.11,19.49-12.24,8.44-7.44,18.79-10.75,30.33-14.61-3.87,10.24-7.18,19.39-10.77,28.43-11.51,29-22.48,58.15-30.92,88.21-.94,3.37.22,4.64,3.13,5.49,7.92,2.32,15.37-.34,22.91-2.06,1.58-.36,1.7-1.64,2.17-2.94,14.35-39.45,29.19-78.73,44.88-117.67,3-7.47,7.28-12.7,16.17-14.48,14.79-3,29.78-4.14,44.63-6.46,6.12-1,12.22-2.33,18-7.41C1230.45,307.05,1226.58,305.32,1222.52,304.3Z" transform="translate(-437.05 -282.79)"/><path class="cls-1" d="M490.74,530.8c-2.89-4.1-7.26-4.87-11.93-4-5.89,1.11-10.27,4.8-13.44,9.5-11.57,17.18-21.2,35.24-24.14,56.18-1.29,9.19-2.13,18,6.21,24.72h4A41.39,41.39,0,0,0,470.1,606c4.15-4.21,8.24-8.56,10-14.44.81-2.7.69-4.42-3.25-3.52-5.09,1.15-8.43,4.33-11.52,8-2.12,2.54-4.11,5.14-6.92,7.05-1.74,1.17-2.48.94-3.18-1a25.2,25.2,0,0,1-1-11.28c1.44-15.3,7.11-29.11,15.42-41.9,1.75-2.7,2.95-6.07,6.4-7.52a3.65,3.65,0,0,1-.07,3.2c-.81,1.78-1,3.85.24,5.17s3.41.42,5.14-.08a16.22,16.22,0,0,0,7.95-5.64C492.3,540.46,493.18,534.28,490.74,530.8Z" transform="translate(-437.05 -282.79)"/><path class="cls-1" d="M655.07,525.44c-6.44-1.33-10.67,2.14-14.45,6.54-6.46,7.52-12.71,15.23-19.36,22.58-3.22,3.56-5.6,7.91-10.17,11.43.86-8.44,3.9-15.45,5.27-22.83.71-3.85,2.4-8-.23-11.31-2-2.51-9.22-.62-13.68,2.94a37.32,37.32,0,0,0-2.91,2.72c-10.95,11-19.06,24.14-27.06,37.3-1.77,2.92-2.76,3.76-5.46,1.21a16.23,16.23,0,0,0-5.63-2.88c-5.36-2-10.9-3.59-15.79-6.73-4.36-2.79-5.88-6-3.31-10.33,6.39-10.84,14.28-20.19,27.65-22.66,2-.37,3.66-1,3.7-3.2s-2.22-2.35-3.57-2.61a17.11,17.11,0,0,0-13.63,3.16,117.56,117.56,0,0,0-14.71,12.58,48.8,48.8,0,0,1-10.52,8.53c.79-3.07,1.5-5.4,2-7.78,1.26-6.38,0-8.63-5.85-10.18C520.18,532,513.24,535.67,506,535c-1.79-.18-3.46,2.33-4.65,4.17-3.52,5.39-5.28,11.5-6.75,17.63-3.54,14.7-7.93,29.32-5.32,44.78.93,5.48,3,7.24,8.52,6.39a15.18,15.18,0,0,0,8.05-3.61,35.2,35.2,0,0,0,8.45-10.82l12.87-26.88c4.36,5.78,10.4,7.22,16,9.47,3.53,1.43,7,2.87,9.75,5.62,1.09,1.12,2.2,2.26.31,4-6.76,6.42-14.15,10.73-24,8.71-6.58-1.35-9.87.42-12.67,6.64,17,4.66,30.39-6.28,46-11.37-1.12,2.6-1.56,4.35-2.54,5.74-1.23,1.76-1,3.82-1.45,5.68-.42,1.61-.88,4.09,1.67,5,3.55,1.33,10.81-1.38,12.5-4.89,3.62-7.5,7-15.09,10.54-22.64,4.14-9,8.57-17.8,16.15-26.31-.41,2.73-.57,4-.8,5.32-2,11.66-5.2,23.19-4.45,35.2.18,2.9-.16,6.89,2.29,8.07,3.44,1.65,7.49.25,10.62-2.24a13.4,13.4,0,0,0,3.21-3.69c6.81-11.49,12.17-23.79,19.58-34.94,2-3.05,3.55-6.48,7-8.7a6.41,6.41,0,0,1,.18,1.82c-.21.95-.58,1.85-.87,2.78-4.69,15.14-10,30.12-11.67,46-.12,1.09-1.16,2.28.69,3.39,4.73,2.82,13.18-.77,14-6,2.39-14.73,5.68-29.22,11.43-43.09,3.37-8.14,6.63-16.35,8.18-25.14C659.57,527.54,658.32,526.1,655.07,525.44ZM520.61,544.25c-.15,10.11-4.07,19.09-8.73,27.79-2.51,4.69-5.33,9.21-8.66,14.92-.11-11.84,2.8-22.09,4.68-32.37.83-4.58,5-9.09,9.2-12.44,1-.79,2-1.31,3.17-.86C522,542,520.62,543.3,520.61,544.25Z" transform="translate(-437.05 -282.79)"/><path class="cls-1" d="M929.76,532.51a4.82,4.82,0,0,1-3.15-.91c-5.84-4.81-12.28-3.85-16.93,2.19s-7,13.26-9.31,20.39c-4,12.32-8.72,24.47-9.26,36.78,0,9.06,1.78,10.63,9.94,9.29a18.35,18.35,0,0,0,6.53-2.15c18.46-11.38,31.09-27.16,35.18-48.77C944.83,538.36,940.77,533.62,929.76,532.51Zm-3,27c-4,11.31-12.46,19.25-20.43,27.76-.88-7.21,1.33-13.71,3.32-20.24.81-2.63,2.3-5.13,2.66-7.8,1.1-8.11,7.6-11.59,13.1-15.93,2.85-2.26,3,.94,3.16,2.2A31,31,0,0,1,926.79,559.54Z" transform="translate(-437.05 -282.79)"/></svg>