<svg id="레이어_1" data-name="레이어 1" xmlns="http://www.w3.org/2000/svg" viewBox="0 0 277.31 502.25">
<defs><style>
.cls-1{fill:#231815;}
</style></defs>
<path class="cls-1" d="M808.63,626.9q-4.93-13.26-9.86-26.51l-.95.05v21.68c0,7-.55,7.4-7.87,5.46a3,3,0,0,1,2.36-.47c3.38.54,4.24-1,4.12-4.19-.21-6-.07-11.93-.06-17.9,0,6.13-.07,12.25,0,18.37,0,2.29-.28,3.8-3.17,3.73-2.67-.07-2.82-1.53-2.81-3.55,0-10.94.09-21.87,0-32.81,0-3.08,1.2-4.17,4.1-4.07q3.72.13,7.44-.06c4.07,9,6.42,18.61,10.43,29l9.23-27.26c3.16-2.54,6.85-1.64,10.37-1.48,2.28.1,2.22,2,2.22,3.7,0,11.1-.06,22.2,0,33.3,0,2.53-.9,3.65-3.43,3.64s-3.6-.92-3.57-3.53q.14-9.93,0-19.88c0-1.38.76-3-.61-4.18-2.57.26-2.13,2.67-2.69,4.15-2.74,7.14-5.23,14.38-7.81,21.58C813.92,628.16,811.31,627.75,808.63,626.9Z" transform="translate(-661.34 -198.88)"/><path class="cls-1" d="M755.18,586.71c6.8-2.25,7.86-1.61,7.86,4.71,0,10.63.08,21.26-.08,31.88,0,1.66,1.47,4.76-1.5,4.83s-6.49,2-8.86-2.07c-4.5-7.71-9.35-15.21-14.07-22.78-.57-.92-.81-2.18-2.73-2.56,0,8-.22,15.87.09,23.71.15,3.59-1.2,4.06-4.26,4-2.81-.09-4.48-.1-4.38-3.86.3-11.12,0-22.25.19-33.38,0-1.76-1.65-4.95,1.64-5.17,3.12-.2,6.76-1.57,9.16,2.64,4.41,7.76,9.31,15.23,14,22.8.63,1,.81,2.76,2.75,2.09,1.25-7.17.15-14.41.62-21.59.11-1.67-1.36-4.29,2-4.7a1.27,1.27,0,0,0-.58,0A2.63,2.63,0,0,1,755.18,586.71Z" transform="translate(-661.34 -198.88)"/><path class="cls-1" d="M886.55,670.47q4.05-12.68,17.93-13.63c7.32-.51,14.4,3.25,17.11,9.4.67,1.51,2.92,4.16.4,4.86-2.27.64-6.1,2.19-7.84-1.41-2.53-5.21-6.89-6-11.67-5s-7.12,4.51-8.09,9a23.27,23.27,0,0,0,.13,11.28c1.13,4.08,3.62,7.28,7.84,8.14,4.07.82,8.3.86,11.39-2.87,1.3-1.57,2.42-3.67,1.85-5.4s-3-.85-4.48-.72c-3.38.3-5.47-.28-4.9-4.41.23-1.63.63-2.47,2.34-2.34.33,0,.66,0,1,0,4.6.12,10.46-1.43,13.45.83s.59,8.37.88,12.79a20.25,20.25,0,0,1,0,4c-.26,1.93,1.89,4.7-2.11,5.4s-3.48-2.39-4.38-5.14c-6.15,6.73-13.35,6.88-20.79,3.86-6.48-2.62-9.87-7.92-11-14.74C885.83,679.73,886.26,675.11,886.55,670.47Z" transform="translate(-661.34 -198.88)"/><path class="cls-1" d="M851.49,658.67l17,26.36,1-.25c0-7.69.21-15.4-.09-23.08-.14-3.64,1.39-4,4.36-3.93s4.47.17,4.38,3.88c-.27,11.28,0,22.57-.16,33.86,0,1.59,1.25,4.37-1.33,4.57-3,.22-6.63,1.87-9-2q-7.08-11.64-14.34-23.18c-.64-1-.82-2.68-2.66-2.48-1.42,5.28-.23,10.66-.62,16-.26,3.39.55,6.84-.5,10.19-5.89,1.32-6.43,1-6.43-4.71,0-11.23,0-22.45,0-33.68C845.41,657,848.66,659,851.49,658.67Z" transform="translate(-661.34 -198.88)"/><path class="cls-1" d="M933.14,555.68c-1.42-.7-.49-2.44-1.78-3.51-2.7,1.29-4.53,4.73-8.22,4.5-4-.34-7.9-1-11.89-1.06-14.18-5.43-15.73-27.79-5.08-37.43,10.16-9.19,29.15-5,30.78,7.71-2.42,1.81-5.23.62-7.83,1-3.46-5.73-6.87-7.34-12.51-5.92-4.56,1.14-7.92,5.53-8.27,11.14-.27,4.28-.46,8.58,1.91,12.51,2.54,4.21,6.29,5.5,11,5.17a8.79,8.79,0,0,0,8.08-5.47c.73-1.62,1.37-3.05-.38-4.38-1.4-1.32-3.11-.53-4.67-.61-1.91-.09-2.62-.88-2.55-2.76s1-2.31,2.53-2.22a8.18,8.18,0,0,0,1,0c12.37-.51,12.37-.51,12.37,11.72a24.57,24.57,0,0,0,0,4.46C938.34,554.31,936.45,555.56,933.14,555.68Z" transform="translate(-661.34 -198.88)"/><path class="cls-1" d="M741.17,526.82c-2.09-3.82-5-6.3-9.65-6.2-6.29.13-9.14,4.24-11.19,9.38a13.54,13.54,0,0,0,0,10.65c3.78,7.88,7,10,13.9,9.14,5.28-.66,8.54-5.44,6.71-9.84-1.42-1.3-3.14-.51-4.7-.59-1.93-.09-2.62-.9-2.55-2.77s1-2.24,2.55-2.22c.66,0-.16.06.5,0,12.82-1,12.82-1,12.82,11.82a33.43,33.43,0,0,0,0,4.48c.51,3.76-.87,5.33-4.67,4.45L743.5,552c-2.67,1.77-4.66,4.76-8.33,4.66a88.63,88.63,0,0,0-10.91-1c-8.18-3.07-12.82-10-12.93-19.61-.1-9.09,3.07-16.7,11.47-21A20,20,0,0,1,745,518.2c2.21,2.11,3.91,4.49,4,7.69C746.6,527.8,743.78,526.43,741.17,526.82Z" transform="translate(-661.34 -198.88)"/><path class="cls-1" d="M781.79,690.37C779.45,698.24,773,702,763.12,701c-6.66-.67-12.71-2.46-15.25-9.67-.56-1.59-2-4.18.13-4.62,2.34-.48,6.43-2.07,7.51,1.23,1.92,5.94,7,6.39,11.32,7,2.64.37,5.87-2.2,6.83-5.29.9-2.91-1.56-4.67-3.88-5.54-4-1.49-8.2-2.42-12.25-3.77-3.62-1.2-7.11-2.69-8.27-6.9.16-2.64,0-5.28.06-7.92,2.51-7,8.48-8.43,14.73-8.49,6.58-.07,13,1.12,15.73,8.5,0,5.11-4,3.64-6.87,4.12a13.91,13.91,0,0,0-5.93-6c-2-1-3.93-1.24-5.85.13s-4.43,2.21-4.06,5.4,3,3.55,5.29,4.25c3.42,1.08,6.95,1.82,10.37,2.91,4.56,1.44,8.28,3.85,9.06,9.12A7.17,7.17,0,0,0,781.79,690.37Z" transform="translate(-661.34 -198.88)"/><path class="cls-1" d="M768,537.84c-1.79,4.81-.82,9.82-.69,14.69.1,3.84-1.69,3.87-4.41,3.68-2.31-.16-4.8.94-4.67-3.42.34-11.76.28-23.55,0-35.31-.08-3.77,1.85-3.51,4.29-3.37s5.1-1,4.71,3.38-.1,8.62-.11,12.93a34.66,34.66,0,0,0,17.69.09c0-3.77.47-7.58,0-11.28-.56-4.66,1.37-5.89,5.44-5.08,1.13.22,2.62-1,3.4.77-7.24,1.26-7.24,1.26-7.28,9.26,0,.34,0,.66,0,.68.08-1.9.05-4.11,0-6.3,0-1.9.3-3.21,2.67-3.16,2,0,3.7.32,3.72,2.84.11,11.46.15,22.92,0,34.38,0,2.55-1.9,2.67-3.87,2.67s-2.52-1.08-2.49-2.84c.07-3.92-.07-7.84,0-11.12-.54,4.42.62,9.55-.55,14.57-2.11-4.46-.43-9.19-1-13.76-.19-1.5,1-3.34-1-4.4A57,57,0,0,0,768,537.84Z" transform="translate(-661.34 -198.88)"/><path class="cls-1" d="M865.57,514.7c5.71,7.49,10,15.9,15.22,23.69.86,1.28.85,3.89,3.55,3.37,1.23-7.3.27-14.65.53-22,.18-5,.82-5.53,5.87-3.83,1.27,7.75.32,15.56.57,23.33.12,3.49-.22,7,.08,10.47.38,4.35-1.19,6.24-5.6,5.54a3.51,3.51,0,0,0-2.4.42c-5.69-7.26-9.79-15.53-14.9-23.15-.93-1.38-1-4.21-3.91-3.51-1.42,7-.16,14-.64,21-.11,1.73.73,3.64-.78,5.16-5.55.06-5.59.06-5.62-5.31,0-8.75,0-17.5,0-26.25C857.53,515.3,857.53,515.3,865.57,514.7Z" transform="translate(-661.34 -198.88)"/><path class="cls-1" d="M719.51,674.37l.82.83c5.28,1.72,10.7.27,16,.74,1.41.13,3.06-.33,3.29,1.94.26,2.51-1,3-3.19,3.07-5.39.19-10.82-.75-16.18.51l-.89,1.16c-.95,3.24-1.27,6.47.2,9.67,6,0,12.07,0,18.1.18,1.47,0,3.27-.91,4.42.92-1,6-1,6-7.45,6-6,0-11.92-.1-17.88,0-3.44.09-5.11-.82-5-4.74.22-10.62.14-21.24,0-31.86,0-2.87.75-4.34,3.86-4.31,7.45.07,14.9,0,22.35,0,2,0,3.62.4,3.62,3,0,3-2.12,2.44-3.84,2.44-3.92,0-7.84.12-12-.07,5.57.52,10.94-.49,16.22.59-4.28,1.93-8.76.38-13.14.79-3.07.28-6.17.21-9.26.3A10.71,10.71,0,0,0,719.51,674.37Z" transform="translate(-661.34 -198.88)"/><path class="cls-1" d="M685.44,538.68c-4,.05-8,.36-11.9.09-3.57-.24-5.25.61-4.77,4.57a82,82,0,0,1,.07,8.45c0,2.5.56,4.65-3.57,4.59-3.84-.06-3.74-1.78-3.72-4.48.07-11.45.11-22.9,0-34.35,0-2.72.58-3.78,3.53-3.69,6.94.21,13.91.26,20.85,0,3.34-.14,3.61,1.24,3.72,4,.13,3.25-1.07,3.77-4,3.74-5.6-.06-11.24-.59-16.83.36a13,13,0,0,0,.08,9.79l16.54.27c-.56,2.22-2.38,1.23-3.62,1.26-3.68.09-7.38.19-10.16,0-1.57.14-.6,1.14-.95.58q-.13-.23.36-.27c4.08-.49,8.18-.1,12.27-.22,1.44,0,2.66.2,2.58,2.09s-1.5,1.86-2.83,1.85c-3.73,0-7.46.11-11.2,0,3.81.06,7.61,0,11.42.07C684.22,537.39,685.36,537.19,685.44,538.68Z" transform="translate(-661.34 -198.88)"/><path class="cls-1" d="M812.72,555.85c-1.15-8.69-.32-17.42-.48-26.12-.15-8.18,0-8.18-7.94-8.2a7.4,7.4,0,0,0-1.49,0c-3.29.64-3.28-1.38-3.36-3.79-.08-2.62.4-3.79,3.45-3.72q13.88.32,27.75,0c3-.07,3.22,1.21,3.1,3.52s.47,4.34-3.11,4.06a85.66,85.66,0,0,0-9.86.29c-1.32,7.7-.22,15.45-.56,23.17-.08,2-.06,4,0,6,.07,2.46.1,4.68-3.38,4.71s-3.61-2-3.59-4.55c.08-8.9,0-17.81.06-26.71C812.83,534.94,814,545.41,812.72,555.85Z" transform="translate(-661.34 -198.88)"/><path class="cls-1" d="M884.52,626.59c0-12.58,0-25.15-.24-37.72-.08-4.09,2.51-3,4.57-3s4.68-1.14,4.58,3c-.24,9.43,0,18.87-.14,28.3,0,2.82.68,3.7,3.58,3.53,4.77-.28,9.57-.13,14.35,0,.95,0,2.41-.81,2.81,1-.69,5.92-.69,5.93-6.89,5.94-5.79,0-11.59,0-17.38,0C888,627.54,886.08,627.93,884.52,626.59Z" transform="translate(-661.34 -198.88)"/><path class="cls-1" d="M797.76,665.49c-2.81-.07-5.61-.26-8.41-.18s-4.59.21-4.58-3.69,1.66-3.84,4.48-3.8c8.92.13,17.84.23,26.75,0,3.43-.11,3.58,1.34,3.67,4.07.11,3-1,3.48-3.69,3.49-9.2,0-9.18.15-9.2,9.17,0,7.94-.11,15.88-.16,23.83-2.35-.81-1.22-2.8-1.24-4.21-.12-8.78,0-17.57-.1-26.35.05,9.09,0,18.18,0,27.27,0,2.07.08,4.13-2.84,4.19s-3.6-1.72-3.61-4.19c0-8,0-15.91,0-23.87C798.81,669.25,799.31,667.16,797.76,665.49Z" transform="translate(-661.34 -198.88)"/><path class="cls-1" d="M684.13,665.56c-3-.09-5.92-.33-8.87-.24-2.54.08-4.31.16-4.18-3.45.11-3.15.7-4.21,4.1-4.1q13.34.43,26.68,0c3.39-.11,3.6,1.28,3.66,4s-.81,3.72-3.61,3.54c-3.1-.2-6.24.08-9.37.16-1.36,4.86-.36,9.82-.61,14.73-.32,6.1.47,12.23-.42,18.33-5.85,1.48-6.51,1-6.53-4.56,0-8.12,0-16.24-.05-24.36C684.92,668.29,685.74,666.64,684.13,665.56Z" transform="translate(-661.34 -198.88)"/><path class="cls-1" d="M772.12,627.57c-.49-13.62-.39-27.24,0-40.86a3.78,3.78,0,0,1,1.38-.48c7-.38,7-.39,6.95,6.73-.16,11.59.47,23.19-.33,34.77l0,0A16,16,0,0,1,772.12,627.57Z" transform="translate(-661.34 -198.88)"/><path class="cls-1" d="M833.71,679.14c0,6-.24,11.93.08,17.87.21,3.87-2.08,3.32-4.38,3.31s-4.87.7-4.79-3.46q.38-17.88,0-35.77c-.09-4.43,2.75-3,4.93-3.21,2.49-.25,4.43-.29,4.23,3.38C833.47,667.2,833.7,673.18,833.71,679.14Z" transform="translate(-661.34 -198.88)"/><path class="cls-1" d="M695.41,534.78c0-5.8.23-11.61-.08-17.39-.24-4.41,2.65-3.11,4.87-3.26s4.37-.47,4.29,3.31q-.39,17.88,0,35.78c.08,4.24-2.62,2.87-4.59,2.9s-4.76,1.2-4.56-3C695.62,547.05,695.41,540.91,695.41,534.78Z" transform="translate(-661.34 -198.88)"/><path class="cls-1" d="M742,664.45H721.31v-1c5.41,0,10.83,0,16.24,0,1.4,0,3.3.42,3.42-1.79.14-2.63-2-2.15-3.55-2.16-7.11,0-14.22.1-21.32-.08-3.21-.08-3.86,1.35-3.83,4.18.11,10.27.13,20.54,0,30.81,0,3,1,4.09,4,4,6.11-.18,12.24-.32,18.33,0,4.11.24,7-.43,7.51-5.07a10,10,0,0,1,.14,6,209,209,0,0,1-31,0c-.47-13.62-.67-27.25.12-40.87a189.13,189.13,0,0,1,30.48,0A13.89,13.89,0,0,1,742,664.45Z" transform="translate(-661.34 -198.88)"/><path class="cls-1" d="M785.91,555.9V539.09l1,0c0,4.1,0,8.21,0,12.31,0,1.77.07,3.39,2.48,3.39s2.49-1.61,2.49-3.38q0-16.15,0-32.31c0-1.58-.11-3-2.24-3.11-2.33-.12-2.75,1.24-2.73,3.14a37.53,37.53,0,0,1-1,10.73c0-2.28,0-4.55,0-6.83.1-9.3-1.08-7.9,7.76-8.08.09,12.83.14,25.66.29,38.48,0,2-.41,3.1-2.69,2.81C789.51,556,787.7,556,785.91,555.9Z" transform="translate(-661.34 -198.88)"/><path class="cls-1" d="M797.76,665.49c2.83.37,2,2.6,2,4.25.06,8,0,15.92.07,23.87,0,1.91-1,4.78,2.6,4.67,3.24-.11,2.27-2.73,2.29-4.5.08-9.07,0-18.15,1-27.23,0,8.68,0,17.36,0,26,0,1.92-.67,4,.78,5.75-1.57,4.15-5,1.49-7.45,1.77-2.16.25-1.35-2.19-1.36-3.47C797.74,686.26,797.76,675.88,797.76,665.49Z" transform="translate(-661.34 -198.88)"/><path class="cls-1" d="M847.79,535.54c0,6-.19,12,.07,17.91.17,4-2.5,2.67-4.29,2.64s-4.43,1.4-4.37-2.59c.18-12.1.2-24.22,0-36.32-.06-3.58,1.94-3.17,4.09-3s4.78-1.2,4.59,3C847.58,523.26,847.79,529.4,847.79,535.54Z" transform="translate(-661.34 -198.88)"/><path class="cls-1" d="M865.57,514.7c-.1.13-.2.37-.31.37-7.68.08-7,5.33-6.81,10.62.24,8.08.28,16.17,0,24.25-.15,4,1.28,5.42,5.06,4.85a.74.74,0,0,1,.21.78c-.08.25-.17.37-.25.37-6.74.49-6.74.49-6.74-5.94V520.72C856.7,513,857.46,512.52,865.57,514.7Z" transform="translate(-661.34 -198.88)"/><path class="cls-1" d="M826.55,599.94c2.31-.33,1.06,1.48,1.07,2.12.11,6.81.06,13.62.07,20.42,0,2-.28,4,2.82,4.12,3.38.09,3.15-2.08,3.14-4.31,0-9.46-.31-18.94.12-28.39.24-5.12-1.3-7.07-6.33-6.22-2,.33-3.93.47-5.89.69.14-.55.29-1.11.44-1.66a34,34,0,0,1,12.51,0c.07,12.93,0,25.87.28,38.79.07,4.29-2.86,2.47-4.74,2.79-2.27.39-3.61,0-3.54-3C826.7,616.86,826.56,608.4,826.55,599.94Z" transform="translate(-661.34 -198.88)"/><path class="cls-1" d="M883.39,555.72c7-2.31,7-2.31,7-10.5v-29.3a1.21,1.21,0,0,1,1.83,0c.06,12.45.05,24.9.23,37.35,0,2.49-.82,3.27-3.14,2.94C887.31,555.93,885.29,556.63,883.39,555.72Z" transform="translate(-661.34 -198.88)"/><path class="cls-1" d="M801.89,586.63c-2.12,2-4.75,1-7.1,1-3.09-.05-4,1.13-3.95,4.1.13,10.28,0,20.57.06,30.85,0,1.74-.49,3.92,2.38,4,3.23.05,2.54-2.41,2.55-4.26.06-7.44,0-14.88,1-22.33,0,8.55.41,17.13-.2,25.64-.27,3.79-4.39,1.28-6.65,2-.62-13.63-.5-27.25-.07-40.88a32.39,32.39,0,0,1,12-.05Z" transform="translate(-661.34 -198.88)"/><path class="cls-1" d="M812.72,555.85V523.14h1c0,8.92,0,17.85,0,26.77,0,2.12-.91,4.92,3,4.91s2.92-2.83,2.94-4.94c.08-7.78,0-15.56.06-23.35,0-1.57-.59-3.36,1-4.61q-.1,16.94-.22,33.87a13.71,13.71,0,0,1-7.85.05Z" transform="translate(-661.34 -198.88)"/><path class="cls-1" d="M884.52,626.59c7.38,0,14.77-.23,22.13.08,4,.17,7-.34,7.38-5,.39,6.65.39,6.65-6.11,6.65-6.76,0-13.53,0-20.3,0C886.46,628.22,884.35,629.37,884.52,626.59Z" transform="translate(-661.34 -198.88)"/><path class="cls-1" d="M745,555.13c3.53-.31,4.77-2.25,4.19-5.67a23.89,23.89,0,0,1,0-4c0-11.55,0-11.54-11.64-10.63-1.48.12-3.2-.11-3.12,2.14.06,1.9,1.58,1.76,2.9,1.84s2.56.16,3.84.27c.06,0,.15.28.13.41a1.46,1.46,0,0,1-.25.43,43.14,43.14,0,0,0-4.41.28c-2.76.43-3.57-.54-3.61-3.4s1.25-3.13,3.49-3c4.41.19,10.2-1.43,12.85.78s.62,8.33.86,12.72c.1,1.81,0,3.63,0,5.45C750.09,556.77,749.3,557.13,745,555.13Z" transform="translate(-661.34 -198.88)"/><path class="cls-1" d="M933.14,555.68c4.05-1.22,4.44-4.29,4-7.82a18.64,18.64,0,0,1,0-2.48c0-11.5,0-11.49-11.7-10.52-1.5.12-3.18,0-3.07,2.18.1,1.9,1.64,1.72,2.94,1.8s2.55.18,3.82.3c0,0,.12.29.09.42s-.17.27-.27.41c-1.47.08-3,0-4.41.27-2.7.4-3.65-.43-3.66-3.37s1.13-3.26,3.44-3.07c4.54.36,10.42-1.89,13.24,1,2.16,2.19.59,8.11.66,12.37a48,48,0,0,0,0,5C938.74,556.51,936.59,557,933.14,555.68Z" transform="translate(-661.34 -198.88)"/><path class="cls-1" d="M843.61,659.49c0,11,.24,22-.12,33-.16,4.86,1.41,6.63,6.07,5.82.29-.49.59-.47.88,0-1.15,3.95-4.28,1.32-6.43,1.83-1.67.39-1.52-1.31-1.51-2.42q.13-19.63.31-39.26C843.67,658.35,843.93,658.68,843.61,659.49Z" transform="translate(-661.34 -198.88)"/><path class="cls-1" d="M780.08,627.73c-.07-11-.11-22.06-.2-33.1-.08-9.33,1-7.67-7.8-7.92,7.22-2.5,8.6-1.62,8.59,5.45,0,10.61,0,21.23,0,31.84C780.63,625.24,781.3,626.66,780.08,627.73Z" transform="translate(-661.34 -198.88)"/><path class="cls-1" d="M720.28,681.46c4.71-2.23,9.7-.45,14.51-1.06,1.6-.2,4.2.88,4.14-2s-2.63-1.69-4.22-1.94c-4.77-.73-9.78,1.45-14.38-1.24,5.78-.05,11.57.08,17.34-.23,2.93-.15,2.66,1.39,2.7,3.31s0,3.41-2.74,3.3C731.85,681.35,726.07,681.48,720.28,681.46Z" transform="translate(-661.34 -198.88)"/><path class="cls-1" d="M684.13,665.56c2,1,1.29,2.83,1.3,4.36.07,7.55.33,15.12-.07,22.64-.27,4.88,1.42,6.61,6.06,5.8.31-.49.61-.47.91,0l0,1a13.58,13.58,0,0,1-7.86,0C683.64,688.11,684.26,676.83,684.13,665.56Z" transform="translate(-661.34 -198.88)"/><path class="cls-1" d="M685.44,538.68c-4.74-2-9.79,0-14.64-1.83,3.9,0,7.8,0,11.7,0,1.13,0,2.64.11,2.64-1.48s-1.5-1.47-2.63-1.48c-4.28,0-8.55,0-12.83-.32,5.16-1.7,10.66.58,15.75-1.53C687.38,534.25,687.36,536.46,685.44,538.68Z" transform="translate(-661.34 -198.88)"/><path class="cls-1" d="M892.17,515.91h-1.83c-3.7-.54-5.26.71-5.06,4.78.33,6.87.09,13.76.08,20.64,0,.14-.11.37-.2.39a3.73,3.73,0,0,1-.82,0l.18-26.83a12.47,12.47,0,0,1,7.55,0Z" transform="translate(-661.34 -198.88)"/><path class="cls-1" d="M755.18,586.71H761c-4.5.21-5.16,2.72-5,6.6.3,6.59.08,13.21.07,19.81,0,.14-.11.38-.19.39a4.7,4.7,0,0,1-.84,0Z" transform="translate(-661.34 -198.88)"/><path class="cls-1" d="M692.33,698.37h-.91c0-9.27,0-18.54,0-27.8,0-1.72-.74-3.7,1.08-5.06Z" transform="translate(-661.34 -198.88)"/><path class="cls-1" d="M711.3,699.36l31,0c-1,1.81-2.63.85-3.93.87q-11.55.16-23.09,0C713.93,700.26,712.25,701.17,711.3,699.36Z" transform="translate(-661.34 -198.88)"/><path class="cls-1" d="M741.9,658.5H711.42A150.71,150.71,0,0,1,741.9,658.5Z" transform="translate(-661.34 -198.88)"/><path class="cls-1" d="M863.44,555.94c0-.38,0-.77,0-1.15q0-12.74,0-25.47c0-.12.14-.35.23-.35a4.79,4.79,0,0,1,.83.09q.13,13.11.24,26.23a1.09,1.09,0,0,1-.56.75C864.06,556.14,863.72,556,863.44,555.94Z" transform="translate(-661.34 -198.88)"/><path class="cls-1" d="M850.44,698.36h-.88c0-7.11,0-14.21,0-21.32,0-1.57-.6-3.37,1.08-4.57Q850.57,685.42,850.44,698.36Z" transform="translate(-661.34 -198.88)"/><path class="cls-1" d="M683.56,625.6c2.71,1.59,5.43,1.1,8.16.07-1.08,2.35-7.56,3.88-9,2C682.23,627,683.1,626.23,683.56,625.6Z" transform="translate(-661.34 -198.88)"/><path class="cls-1" d="M772.91,669.62c1.8-2.2,6.22,0,6.87-4.12C781.28,670.71,781.28,670.71,772.91,669.62Z" transform="translate(-661.34 -198.88)"/><path class="cls-1" d="M840.75,624.6c1.33,3.19,5.12.86,6.87,3.09-1.52,1.35-3.33.36-5,.58C838.75,628.78,839.09,627,840.75,624.6Z" transform="translate(-661.34 -198.88)"/><path class="cls-1" d="M714.3,627.57c2.2-2.17,5.5.06,7.73-1.94.39,1.06,1.83,2.68-.7,2.59C719,628.13,716.5,629.2,714.3,627.57Z" transform="translate(-661.34 -198.88)"/><path class="cls-1" d="M720.36,540.65c-3.33-3.34-1.76-7.09-.87-10.77,0-.08.29-.17.43-.15a1.38,1.38,0,0,1,.41.27Z" transform="translate(-661.34 -198.88)"/><path class="cls-1" d="M784.81,530.51a24,24,0,0,1-17.69-.09A122.88,122.88,0,0,0,784.81,530.51Z" transform="translate(-661.34 -198.88)"/><path class="cls-1" d="M741.17,526.82c2.39-2.23,5.28-.3,7.86-.93C746.79,529.44,744,527.92,741.17,526.82Z" transform="translate(-661.34 -198.88)"/><path class="cls-1" d="M843.61,659.49l-.8-1a11.35,11.35,0,0,1,8.68.16C849,660.32,846.22,659.1,843.61,659.49Z" transform="translate(-661.34 -198.88)"/><path class="cls-1" d="M886.55,670.47c1.33,4.75-.36,9.29-1,13.89C884.8,679.66,884.54,675,886.55,670.47Z" transform="translate(-661.34 -198.88)"/><path class="cls-1" d="M768,537.84a28.18,28.18,0,0,1,15.92-.1Z" transform="translate(-661.34 -198.88)"/><path class="cls-1" d="M808.63,626.9c2.36-1.08,5.14.35,7.42-1.23C814.51,628.88,811.8,629.32,808.63,626.9Z" transform="translate(-661.34 -198.88)"/><path class="cls-1" d="M871.35,627.79c2.35-2.37,5.31-.71,7.95-1.2C877.12,630.12,874.07,627.82,871.35,627.79Z" transform="translate(-661.34 -198.88)"/><path class="cls-1" d="M929.12,526.92c2.38-2.06,5.23-.59,7.83-1C934.75,529.39,931.91,528,929.12,526.92Z" transform="translate(-661.34 -198.88)"/><path class="cls-1" d="M724.26,555.7c3.83-1.87,7.31.19,10.91,1A16.79,16.79,0,0,1,724.26,555.7Z" transform="translate(-661.34 -198.88)"/><path class="cls-1" d="M911.25,555.61c4.14-1.66,8,.34,11.89,1.06A20.25,20.25,0,0,1,911.25,555.61Z" transform="translate(-661.34 -198.88)"/><path class="cls-1" d="M834.5,586.7H822A18.84,18.84,0,0,1,834.5,586.7Z" transform="translate(-661.34 -198.88)"/><path class="cls-1" d="M749.32,665.49a8.56,8.56,0,0,1-.06,7.92C747.86,670.76,748.26,668.12,749.32,665.49Z" transform="translate(-661.34 -198.88)"/><path class="cls-1" d="M801.9,586.65l-12,.05A18.22,18.22,0,0,1,801.9,586.65Z" transform="translate(-661.34 -198.88)"/><path class="cls-1" d="M719.59,692.29c-2.46-3-1.07-6.51-1-9.82,0,0,.27-.12.39-.09a1.42,1.42,0,0,1,.41.24Z" transform="translate(-661.34 -198.88)"/><path class="cls-1" d="M668.89,531.76c-2.17-3.24-2-6.51-.08-9.79C668.84,525.23,668.87,528.5,668.89,531.76Z" transform="translate(-661.34 -198.88)"/><path class="cls-1" d="M719.51,674.37c-2-3-2-5.9.06-8.83Z" transform="translate(-661.34 -198.88)"/><path class="cls-1" d="M812.71,555.83l7.85-.05A8.53,8.53,0,0,1,812.71,555.83Z" transform="translate(-661.34 -198.88)"/><path class="cls-1" d="M892.07,514.94h-7.55A7.85,7.85,0,0,1,892.07,514.94Z" transform="translate(-661.34 -198.88)"/><path class="cls-1" d="M772.12,627.57l8,.14A9.51,9.51,0,0,1,772.12,627.57Z" transform="translate(-661.34 -198.88)"/><path class="cls-1" d="M684.44,699.37h7.86A7.28,7.28,0,0,1,684.44,699.37Z" transform="translate(-661.34 -198.88)"/><path class="cls-1" d="M761.13,663.75c1.91-2,3.86-1.83,5.85-.13Z" transform="translate(-661.34 -198.88)"/><path class="cls-1" d="M781.79,690.37a3.69,3.69,0,0,1,0-4.94A10.32,10.32,0,0,1,781.79,690.37Z" transform="translate(-661.34 -198.88)"/><path class="cls-1" d="M934.15,355.88c-3.26,1.08-5.65,3.26-7.94,5.69-3.4,3.6-6.66,7.35-11.55,9.13-2.09.76-3,.54-3.37-1.81-1.88-12.62-8.61-22.77-17-31.77-6.12-6.54-7.94-13.94-6.61-22.37a101.09,101.09,0,0,1,3.45-13.38c2.73-9.09,5.85-18.23,3.37-28a3.52,3.52,0,0,1,.57-3.27c4.91-6.32,8.11-13.73,14.6-19.1,13.93-11.51,18.07-28.76,24.25-44.69a5.83,5.83,0,0,0-2.77-7.42h-2c-5.4,3.66-8.75,9.05-12.16,14.42-6.41,10.09-13.82,19-26.38,21.59-1.46.31-3.12,1.25-3.35,2.71-.81,5.15-4.43,4.68-8,4.4-11.6-.9-21.67,3.13-30.91,9.72-4.53,3.24-4.56,5.09-.57,9,1.91,1.87,4.44,3.39,4.71,6.76-6.06-.31-11.29,1.59-16.17,4.54-3.7,2.23-7.18,2.32-10.37-.77-4.29-4.16-7.49-9.17-10.6-14.24a2.27,2.27,0,0,1,.15-2.72c2.45-3.87,4.24-8.19,8.44-10.75,2.94-1.79,4.07-10.64,2.15-13.59-1.15-1.75-2.14-.69-3.33-.33-7,2.11-12,6.75-16,12.67-2.6,3.92-5,7.47-10.55,4.63-1.18-.6-3-.21-4.42,0-2.44.29-5.07.63-5.71,3.61s-1.07,6.43,2,8.1c4.93,2.69,3.51,5.66,1.28,9.11a53.22,53.22,0,0,0-3.1,5.58c-2.52,5.16-7.72,5.89-12.34,7.29-3.6,1.1-3.63-3.19-5.28-4.87-2.7-2.73-8.39-4.26-7.77-8.05.58-3.54,4.8-6.46,7.37-9.68,5.43-6.82,3.39-13.67-4.81-15.87a36.61,36.61,0,0,0-22.39.73c-.77.28-1.5.67-2.28.94-6.91,2.44-11.34-.53-10.6-7.76.78-7.51-.21-13.94-7.3-17.94-4.73-2.66-9.62-5-14.46-7.5-2.35-1.2-5-1.6-7,.09s-1.35,4.43-.39,6.46c3.15,6.67,5.64,14,10.17,19.6,5.45,6.74,8.88,14.31,12.14,22,2.24,5.25,2.55,10.85-2.2,16a41.15,41.15,0,0,0-10.84,26.94c-.47,11.89.93,23.8-1.78,35.65C703.5,350.18,701,363,690.79,372.71a11.33,11.33,0,0,0-2.9,6.64c-1,6.45-2.51,7.79-9.06,8.06-7.56.31-12.47,4.47-16.36,10.49a7.25,7.25,0,0,0-.58,6.65c.68,1.68,3.38.87,5,.57,5.18-.93,10.36-2.11,14.89-4.94,1.87-1.17,2.93-1.85,4.07.77,2.34,5.35,6.64,9,11.37,12.14,1,.64,2.55,1.18,2,2.39-2.65,5.72-1.28,13.53-8.56,16.88-2.09.95-4.17,1.92-6.22,2.94-3.23,1.61-5.49,4.73-4.25,7.77a22.57,22.57,0,0,1,1.55,12c-.56,4.31.62,7.75,4.87,9.84,2.68,1.32,4.61,3.55,6.46,6,2.89,3.83,5.31,9.11,11.94,6,1.34-.62,3.79,1.63,4.52-1.16.63-2.41-.39-4.53-2.3-6.18-2.13-1.83-4.36-3.56-6.31-5.57-3.44-3.54-4-13.09-1.24-17.1,2.37-3.42,6.29-4,9.78-5.38a58.58,58.58,0,0,0,30.59-26.81c4.62-8.37,2.83-16.75-4.22-23.23-2-1.84-2.06-3.38-.79-5.61a85.11,85.11,0,0,1,6.66-9.82c5.07-6.5,10.63-12.81,13.09-20.81,2.41-7.82,3.76-15.93,7.13-23.5,1.46-3.28,1.37-7.48,6.3-3.2a2.58,2.58,0,0,0,2.32.06c7.37-4,15.85-2.39,23.58-4.68,5.33-1.58,10.61.43,12.69,4.95,1.64,3.54,4.54,6,6.37,9.3.61,1.12,1.71,2.61,3.1,1.9,3-1.53,7.35-.92,8.6-5.5,1.78-6.55,1-9.76-3.43-13.1-1-.75-3.17-1.4-1.94-3.19,3.15-4.59,5.45-9.94,10.69-12.79,3.47-1.88,5.88-.64,5.93,3.36a41.06,41.06,0,0,1-.79,10.35c-2.72,11-.6,20.44,7,28.95a92.85,92.85,0,0,1,14.33,20.76c1.4,2.85,1.65,5,0,8.11-3.13,5.76-6.28,11.57-8.34,17.88-2.51,7.69-1.17,12,4.63,17.52,6.11,5.85,14.2,8.11,21,12.59,3,2,7,3.06,7.08,7.36.1,7.23-3.74,12.94-9.06,15a92.8,92.8,0,0,1-12.17,4c-2.1.5-5,1-5.13,3.89s2,4.78,4.59,5.84c1.06.43,2.2.63,3.29,1,6.21,2.06,12.44-1.38,18.94.34,2.9.77,6.3-4,10.38-4.33.42,0,1.07-1,1.12-1.55.53-6.08,5.19-9.28,9-13,2.8-2.68,3.34-5.79.72-8.24-3.2-3-3.06-5.31-.54-8.43,2.88-3.57,1.8-6.38-2.24-8.18-3.45-1.54-6.94-3-10.37-4.55-1.95-.89-4.19-2-4.43-4.16-.08-.74,2.7-1.89,4.25-2.69s3.41-1.29,5-2.18c4.11-2.37,9.1-4.12,10.5-9.17,1-3.78,3.08-4.21,6.12-3.53,4.3,1,7.22-.8,9.64-4.25,4.42-6.33,9.08-12.49,13.5-18.82,2.17-3.11,4.3-6.3,4.28-10.37C938.48,356,937.22,354.86,934.15,355.88ZM819.06,297.62c-4.82,3.64-8,8.78-11.66,13.4-2,2.46-4,3.05-6.34,2.21a37.6,37.6,0,0,0-28.38.87c-1.95.83-5.73,1.77-6.42-.82s3-2.92,5.1-3.57c12.83-4,20-13.51,25.19-25.22,2.38-5.37,5.32-10.49,8.38-16.46,2.63,4,3,7.62,4,11.07,1.72,5.76,3.73,11.39,9.7,14.24C821.33,294.61,821.18,296,819.06,297.62Z" transform="translate(-661.34 -198.88)"/><path class="cls-1" d="M907.17,694.79c-1.07.58-2.07.94-3,.05C905.24,694,906.25,694.57,907.17,694.79Z" transform="translate(-661.34 -198.88)"/><path class="cls-1" d="M864.61,587.45c-2.93,1.73-7.15-2-9.49,2.26l-.64-1.15c-5.13,11.8-9.45,23.92-13.73,36,.75,4.47,4.43,2.4,6.87,3.09,2.2-2.6,2.21-6.18,4-9a24,24,0,0,1,15.86,0h0c1.76,2.83,1.72,6.45,3.91,9.09,2.6-.73,5.52.66,7.95-1.2Q872,607,864.61,587.45Zm-10,25.91s-.16-.25-.14-.37a1.32,1.32,0,0,1,.21-.43c-1-5.83,3.58-9.95,4-15.35l1.44-.09,5.25,15.07C862.06,615.13,858.2,613.13,854.6,613.36Z" transform="translate(-661.34 -198.88)"/><path class="cls-1" d="M864.61,587.45c-3.12-2.81-8.74-2.19-10.13,1.11C857.58,585.69,861.09,586.56,864.61,587.45Z" transform="translate(-661.34 -198.88)"/><path class="cls-1" d="M851.58,618.71h15.86A42.3,42.3,0,0,0,851.58,618.71Z" transform="translate(-661.34 -198.88)"/><path class="cls-1" d="M865.36,612.19l-10.69.37C858.26,613.25,861.85,613.85,865.36,612.19Z" transform="translate(-661.34 -198.88)"/><path class="cls-1" d="M707.68,587.58c-3.06-.73-6.47,1.93-9.31-.94-5.54,12.75-10.3,25.81-14.81,39,2.69,3.38,5.42,2.34,8.16.07.91-2.32,1.81-4.65,2.72-7a9.17,9.17,0,0,1,2.95-.72,22.42,22.42,0,0,1,10.3-.13,4.5,4.5,0,0,1,3.58,1.35,25.41,25.41,0,0,0,3,8.37c2.59-.59,5.84,1.44,7.73-1.94C717.48,612.86,713,600.05,707.68,587.58Zm-.34,25a10.72,10.72,0,0,1-9.93-.05h0l-.27-2c-1.08-2-1.47-3.82,1.42-4.6l4.52-10.68C704.23,602.11,708.37,606.61,707.34,612.61Z" transform="translate(-661.34 -198.88)"/><path class="cls-1" d="M707.68,587.58c-2.8-3.33-6.11-1.65-9.31-.94C701.45,587.15,704.71,585.88,707.68,587.58Z" transform="translate(-661.34 -198.88)"/><path class="cls-1" d="M703.54,618.2a48.5,48.5,0,0,0-6.15-.22c-1,.21-2,.45-2.95.72,5.61.22,11.25-.62,16.83.5a16.67,16.67,0,0,0-3.58-1.35C706.31,617.88,704.88,618.24,703.54,618.2Z" transform="translate(-661.34 -198.88)"/><path class="cls-1" d="M707.34,612.61l-9.93-.05A19.77,19.77,0,0,0,707.34,612.61Z" transform="translate(-661.34 -198.88)"/><path class="cls-1" d="M697.14,610.6c.47-1.54,1-3.07,1.42-4.6A4.77,4.77,0,0,0,697.14,610.6Z" transform="translate(-661.34 -198.88)"/><path class="cls-1" d="M831.66,679.18c0,5.13,0,10.27,0,15.4,0,1.85.19,3.82-2.62,3.74-2.48-.07-2.34-1.82-2.34-3.51q0-15.9,0-31.8c0-1.69-.1-3.43,2.37-3.49,2.81-.06,2.59,1.92,2.6,3.76C831.67,668.58,831.66,673.88,831.66,679.18Z" transform="translate(-661.34 -198.88)"/><path class="cls-1" d="M702.36,535c0,5.47,0,10.94,0,16.4,0,1.79-.14,3.36-2.54,3.33s-2.43-1.69-2.43-3.43q0-15.9,0-31.8c0-1.64-.23-3.45,2.27-3.57,2.79-.12,2.69,1.79,2.69,3.67C702.36,524.77,702.37,529.9,702.36,535Z" transform="translate(-661.34 -198.88)"/><path class="cls-1" d="M846.58,535.87c0,5.13,0,10.26,0,15.39,0,2-.28,3.54-2.88,3.56-2.43,0-3.12-1.1-3.11-3.34q.07-16.14,0-32.28c0-2.25.72-3.32,3.13-3.3,2.63,0,2.88,1.55,2.86,3.58C846.55,524.94,846.58,530.4,846.58,535.87Z" transform="translate(-661.34 -198.88)"/></svg>