<svg id="레이어_1" data-name="레이어 1" xmlns="http://www.w3.org/2000/svg" viewBox="0 0 641.6 505.04">
<defs><style>
.cls-1{fill:#231815;}
</style></defs>
<path class="cls-1" d="M772.54,545.06c.53-1.84-.64-4.15,1.54-5.53l.76.6c.93.41.93.41,1.87-2.19.57-.73,1.27-.6,2-.3,1.1,1.54-.08,3.46.87,5-.18,2.71,1.47,5.54-1.43,8.07-1.18,1,0,3.2,1.17,4.77,3.25,4.33,6.25,8.85,9.34,13.29-.06,1.71-1,1.45-2,.84-.52.27-1.93-.59-1.44.94,1.13,3.5,1.63,7.31,4.63,10l-2.31,1a11.42,11.42,0,0,1-5.2-5.83c-3-8.09-6.68-15.92-9.74-24C771.79,549.57,770.86,547.28,772.54,545.06Z" transform="translate(-479.2 -197.48)"/><path class="cls-1" d="M642.38,430.78,640,431.93c-3.14-10.11-5.68-20.34-6.14-31-.2-4.6,1.26-8.78,3.28-12.82,2.06.23,1.78,1.93,2.09,3.28-1.92,9.3.07,18.28,2.06,27.31C642.19,422.66,643.86,426.61,642.38,430.78Z" transform="translate(-479.2 -197.48)"/><path class="cls-1" d="M646.94,394.06c-1-.66-2.16-1.28-1.81.81.54,3.3,1.27,6.58,1.92,9.87a1,1,0,0,1,0,1.35c-2.51.27-2.91-1.71-3.45-3.38a36.12,36.12,0,0,1-2-13.08c.12-2.12-.12-4-2.76-4.39a.9.9,0,0,1,0-1.28,20.42,20.42,0,0,1,6.07-5.89c1.1-.07,1.7.24,1.14,1.47-.92,4.36-1,8.63,1.59,12.54C647.44,392.74,647.74,393.62,646.94,394.06Z" transform="translate(-479.2 -197.48)"/><path class="cls-1" d="M696.87,564.53c4.6-1.81,8.64,1.2,13,1.5a1.09,1.09,0,0,1-.06.45,1.6,1.6,0,0,1-.34.35A36.81,36.81,0,0,1,696.87,564.53Z" transform="translate(-479.2 -197.48)"/><path class="cls-1" d="M846.06,583.45c-4.48-.2-9,1.07-13.43-.7C837.11,582.81,841.63,582.35,846.06,583.45Z" transform="translate(-479.2 -197.48)"/><path class="cls-1" d="M786.65,569.63l2-.84c1.62,1,2.15,2.72,3.29,4.5C788.86,573.55,788.18,571,786.65,569.63Z" transform="translate(-479.2 -197.48)"/><path class="cls-1" d="M809.77,579.55c-2.69-.31-5.53.91-8.08-.81C804.4,578.88,807.27,577.39,809.77,579.55Z" transform="translate(-479.2 -197.48)"/><path class="cls-1" d="M638.92,384l.18,1.45c1.28,2.21,1.87,4.31-1,5.8l-.92-3.08C637.64,386.69,637.69,385.08,638.92,384Z" transform="translate(-479.2 -197.48)"/><path class="cls-1" d="M776.71,537.94c-.11,1.09.4,2.42-.66,3.17-.64.45-1.07-.3-1.21-1C776.38,540.18,775.59,538.24,776.71,537.94Z" transform="translate(-479.2 -197.48)"/><path class="cls-1" d="M779.57,542.66c-1.47-1.47-.64-3.33-.87-5C780.63,539,779.38,541,779.57,542.66Z" transform="translate(-479.2 -197.48)"/><path class="cls-1" d="M646.13,379.54,645,378.07c.87-.82,1.54-1.93,2.92-2A5,5,0,0,1,646.13,379.54Z" transform="translate(-479.2 -197.48)"/><path class="cls-1" d="M649,253.38l-1.9,1-.22-3,3,1.84A.55.55,0,0,1,649,253.38Z" transform="translate(-479.2 -197.48)"/><path class="cls-1" d="M755.67,666.11c.21-1.35.28-2.33.51-3.26,3.61-14.64,9.94-28.25,16-42,.43-1,1.7-1.79.93-3-2.08-3.38-12.63-2.61-14.45,1.19-2.49,5.19-4.75,10.5-6.94,15.82-5.44,13.22-8.81,27.16-14,41.64-2.88-6.16-2.37-12-3.81-17.32-.93-3.49,2.53-5.43,2.6-7.83,0-2.07-4.05-3-4.23-6.79-.38-8.13,0-16.26-.45-24.37-.12-2.18-.15-4.33-2.48-5.56a12.27,12.27,0,0,0-15,3.49c-7.91,9.82-13.75,21-20.28,31.66-1.94,3.17-3.68,5.73-8.13,6.06-3.89.3-7.34,2.85-10.26,5.67-4.06,3.93-8.07,7.91-12.22,11.75-2.37,2.19-4.61,4.74-8.59,5.26,1-14.12,5.25-26.59,15.05-38.36-1.27,7.76-.62,8.39,6,7.48,6.82-.93,9.64-4.55,9.46-12-.1-4.48-2.44-7.29-6.71-7.91-8-1.16-15.26,0-20.46,7.13a89.54,89.54,0,0,0-15.31,31.91c-1.53,6.33-2.81,12.6-1,19.1,1,3.64,3.08,5.59,7,5.55,6.39-.08,12.11-2,16.77-6.33,5.22-4.86,10.11-10.08,15.22-15.06,1.66-1.62,3.21-3.57,6.05-4-.21,4.13-2.19,7.2-3.63,10.49-1.77,4-4.16,7.88-4.76,12.4-.27,2,.07,3.67,2.24,4.39,4.52,1.51,11.86-2.13,13.34-6.8,2.07-6.54,3.6-13,12.43-14.09,3.42-.43,6.44-3.83,9.7-5.79s5.59-2.72,5.65,2.72a30.51,30.51,0,0,0,2.61,11c1.25,3.09,3.23,4.37,6.61,3.61,2.55-.57,5.7-1.87,7.68-.95,6.52,3,11.21-.3,16.13-3.37,8.71-5.43,17.43-10.77,27-14.68,2.48-1,5.12-2.21,7.09-5.17C776.45,655.1,766.94,664.72,755.67,666.11Zm-37.2-11.91c-4.86,2.21-8.91,6.09-15,7.47,3.37-9.46,7.92-17.53,13.41-26.11,2,6.21,1.58,11.7,2.39,17A2,2,0,0,1,718.47,654.2Z" transform="translate(-479.2 -197.48)"/><path class="cls-1" d="M1106.83,629.62c-8.66,1.28-16.9,4.66-25.72,5.23a4.65,4.65,0,0,0-2.94,1.68c-4.09,4.16-9.59,4.64-15.6,6.16a109.57,109.57,0,0,1,16.4-24.77c1.2-1.39,1.84-1.2,3.48,0,2.51,1.82,5.76,1.23,8.36-.56s1.14-4.57,1.18-6.9c.06-3.07-2.4-4.16-4.85-4.71-7.27-1.65-13.11,1.1-17.6,6.62-7.82,9.63-14.38,20.15-20.81,30.75-1.36,2.24-2.1,4.91-4.33,6.56-1,.75-2.29,2-3.46,1.24-1.65-1,0-2.36.43-3.45,4.63-10.59,10.62-20.48,16.18-30.58.47-.86,1.94-1.52.56-2.87-2-2-8.8-2.09-10.94,0-6.5,6.31-10.93,14-15,22-2.83,5.56-5.87,11-8.81,16.52-.74-7.59-.49-14.83-.87-22-.15-2.75,1.48-6.43-2.77-8.14-4.43-1.79-8.23-.76-11.51,2.18a30.44,30.44,0,0,0-4.87,6.2c-9,13.84-14.43,29.2-18.94,44.94-1.76,6.16-.87,7.33,5.44,7.24,1.15,0,2.29-.36,3.45-.44,3.82-.29,5.79-1.7,5.82-6.14.06-8,2.66-15.57,5.95-22.84.69-1.52,1.08-3.44,3.46-4a66.79,66.79,0,0,0,3.75,24.63c2.33,6.54,13.62,8.7,18.11,3.44a3.06,3.06,0,0,0,.58-1.76c.24-5.24,2.66-9.85,4-14.76,1.16-4.15,3.53-5.14,7.58-4.66-.71,4.62-2.46,8.93-2.43,13.58,0,4.47.21,8.92,4.6,11.28,4.56,2.47,8.89.89,13.06-1.73,3-1.89,5.3-4.87,9-6a11.61,11.61,0,0,1,0,1.7c-1.34,7.49-5.1,14.32-6,21.92-.19,1.6-.73,3.23,1.1,4.45,3.76,2.5,11.08-.17,12.52-4.5,5.86-17.67,9-36.19,16.47-53.38a7.37,7.37,0,0,1,4.66-4.47,120.75,120.75,0,0,1,25.29-6.43C1115.62,629.73,1111.27,629,1106.83,629.62Zm-51.61,37c-2.74-9,2.49-16.06,13-17.54A190.1,190.1,0,0,1,1055.22,666.58Z" transform="translate(-479.2 -197.48)"/><path class="cls-1" d="M911.59,620.48c-4.44,6.56-8.73,13.22-13.22,19.74-3.85,5.59-6.69,12-12.78,16.86A177.53,177.53,0,0,1,890,632c.26-1.11.94-2.19-.24-3.18-3.28-2.76-11.79-.4-13.25,3.7-2,5.64-2.87,11.53-3.91,17.38-1.33,7.45-1.28,7.45-8.68,6.56-1-.11-2,0-3-.1-7.59-.85-15.19.21-24.17,0l25.44-20.22a24,24,0,0,0,6.54-8.62c1.45-3,.3-4.17-2.39-5-5.38-1.61-10.88-1.31-16.31-.74-4,.41-7.63.78-11.63-.86a12.74,12.74,0,0,0-10.17.27c-2.63,1.28-1.26,4.78-2.64,6.47-2.6,3.22-4.71,5.52-2.46,10.39,1.22,2.65-1,7-1.9,10.48-1.36,5.4-.87,11.72-7.66,14.44a1.68,1.68,0,0,0,.65,3.23c3.76.1,2.79,2.25,2.42,4.29-.48,2.6-1,5.19-1.54,7.78-2.06,10.29.38,12.56,10.73,10.5,12.78-2.54,24.23-8.47,35.94-13.73,7-3.13,6.71-3.33,6.85,4.21,0,2.7-1.81,6.29,2,7.94s7.53.48,10.85-1.55a18.1,18.1,0,0,0,5.9-6c4.15-6.72,8.15-13.53,12.24-20.28,1.49-2.45,2.73-5.11,5.78-7.68-.6,5.14-1.07,9.31-1.58,13.48-.59,4.81-.74,9.56,1.26,14.15,1.83,4.24,5.32,3.23,8.5,2.58,2.88-.59,5.62-1.15,5.09-5.61a78.75,78.75,0,0,1,.42-19.33c1.48-11.52,5.3-22.54,6.84-34,.15-1.1,1-2.18,0-3.25C923.83,617.57,913.2,618.11,911.59,620.48Zm-72.25,11.16c1.53-4.18,11.45-7.61,15-5,1.49,1.11.14,2-.36,2.87-3.14,5.81-9.8,12.11-18.33,17.09A98.09,98.09,0,0,1,839.34,631.64Zm19,36.69c-8.07,8.2-18.57,11.71-29.8,15.23.85-6.95,1.36-13.47,4-19.64.49-1.16,1.13-2.2,2.36-2.31,7.24-.6,14.48-2.3,21.74-.15C861.65,663,862.1,664.48,858.3,668.33Z" transform="translate(-479.2 -197.48)"/><path class="cls-1" d="M565.5,628.35c8.76-6.49,19.36-5.76,28.11-11-5.17-3.63-9.93-2.41-14.47-1-11.61,3.55-21.85,10-32.33,15.91C542,634.93,537.86,638.43,536,644a3.24,3.24,0,0,1-2.85,2.42c-7.26.79-13.24,4.72-19.5,8-2.51,1.32-4.83,3.61-8.11,2.83,3.19-10.88,6.67-21.36,18.45-25.91,3.23-1.25,6.45-2.54,9.61-3.95,2.16-1,4.63-1.66,5.72-4.65-6.83-.81-12.54,1.56-18.17,4.23-6.53,3.1-12.43,7.59-19.81,8.8-1.69.27-2.33,1.75-2.84,3.14-2.59,7-5.12,14.12-7.68,21.18-1.84,5.06-2.31,10.83-6.82,14.56-5.48,4.53.84,10.9-2.68,15.68a5.9,5.9,0,0,0-.73,1.83,39.08,39.08,0,0,0-1.16,4.3c-.78,4.52.66,6.14,5.17,5.93a20.46,20.46,0,0,0,11-4c7.56-5.4,15.7-9.79,23.77-14.35,7.21-4.08,14.73-7.84,20.9-14.26-9.37-2.12-16,2.75-23,6.72s-13.9,8.77-21.69,12.17c1.1-15,3.46-19,15.06-26,.84-.51,1.72-1,2.58-1.45,7.73-4.44,15.17-9.53,23.29-13.11,5.6-2.47,10.51-5,13.85-10.24a6.77,6.77,0,0,1,6.34-3.24c-1.07,3.59-2.05,7-3.08,10.37-4.49,14.65-10,29-12.1,44.33-.19,1.43-1.2,3.3.27,4.12,3.16,1.75,6.48.37,9.68-.42,2-.5,3.44-1.53,3.61-4,.63-9.66,3.82-18.71,6.78-27.83,2.74-8.46,5.89-16.79,7.53-25.62C570.06,631.93,570,629.49,565.5,628.35Z" transform="translate(-479.2 -197.48)"/><path class="cls-1" d="M617.65,644.21c-1.65-.82-.74-2.73-.21-4,1.25-3.05,2.8-6,4.09-9,1.59-3.78,3.23-7.49,3.61-11.74.44-4.75-2.74-5.09-5.83-5.57s-6.1-.47-7.16,3.36c-2.38,8.62-6.9,16.48-9.3,25-2.18,7.78-7.45,10.48-15.11,12.28.92-3.15,1.67-5.63,2.37-8.12s1.39-5.07,2-7.62c.25-1,1.13-1.93-.33-2.94-4.65-3.22-12.2-.56-13.65,4.88a39.93,39.93,0,0,1-1.93,6.12c-3,6.67-2.16,14.78-7.85,20.39,2.11,6.31-1.39,11.94-2.2,17.9-.29,2.12.87,3.11,2.59,3.63a15.52,15.52,0,0,0,12.43-1.2c1.15-.64,2.8-2.12,1.74-3.07-4.49-4-1.32-8.31-.63-12.3,1.35-7.79,6.31-12,14.59-13.19.34,1.76-.69,3.2-1.22,4.71-2.95,8.24-5.87,16.49-7.32,25.16-.24,1.45-1.35,3.37.68,4.42,3.48,1.8,12.07-2.07,12.94-5.83a290.68,290.68,0,0,1,10.31-33c.89-2.46,2-4.15,4.64-5.19C618.88,648.49,622.82,646.79,617.65,644.21Z" transform="translate(-479.2 -197.48)"/><path class="cls-1" d="M976.79,609.07a10.06,10.06,0,0,0-11,4.29c-6.2,10.49-10.89,21.73-16.29,32.63-1.41,2.85-2.45,3.42-4.07.31-1.75-3.37-3.43-6.78-5.31-10.07-2.37-4.14-6.48-5.16-11.57-2.82-4.35,2-.78,5.05-.55,7.46.26,2.73,1.81,5.27,3.55,7.51,2.84,3.67,5.57,7.44,8.66,10.88,2.22,2.46,2.25,4.76,1.12,7.62-2.65,6.75-4.93,13.66-7.73,20.35-1.71,4.11-.52,5.45,3.2,5.1,7.68.09,9.31-1,11.95-7.76,1.14-2.92,2.14-5.9,3.37-8.78,8.63-20.29,16.08-41.1,26.59-60.58C980.1,612.67,980.61,610.18,976.79,609.07Z" transform="translate(-479.2 -197.48)"/><path class="cls-1" d="M995.44,625.28c.85-3.18-2.22-3.12-4.3-3.21-3.21-.15-7.29-1.28-8.51,3.36-1.38,5.27-2.86,10.48-4.7,15.62-4.83,13.47-11.19,26.36-15,40.2-.38,1.42-1.26,2.81.2,4.08,3,2.61,13-.31,14.4-4.14,2.75-7.4,5.51-14.79,8.36-22.14C990.06,648.29,994,637.47,995.44,625.28Z" transform="translate(-479.2 -197.48)"/><path class="cls-1" d="M648.63,633.12c.52-1.32,2.24-2.81.76-4.44-2.46-2.74-11.89-1.35-13.28,2C631,643.17,626,655.7,621,668.19a63.16,63.16,0,0,0-5.05,20c-1,4.06,2,5,6,4.87a29.81,29.81,0,0,0,5.86-.93c1.47-.38,2.87-1.06,2-3.14-1.89-4.39-.21-8.45,1.39-12.44C636.93,662.07,642.87,647.63,648.63,633.12Z" transform="translate(-479.2 -197.48)"/><path class="cls-1" d="M643.84,473.86l.16,2.88c-.08.29-.08.67-.26.87-.46.48-.73.15-.74-.34C643,476.07,642.68,474.78,643.84,473.86Z" transform="translate(-479.2 -197.48)"/><path class="cls-1" d="M646.94,394.06l.78-2,2.62,6.8a1.06,1.06,0,0,1-1.52.18Z" transform="translate(-479.2 -197.48)"/><path class="cls-1" d="M648.82,399.06l1.52-.18.75,2c.21.93.94,2.11-1,2C649.68,401.6,649.25,400.33,648.82,399.06Z" transform="translate(-479.2 -197.48)"/><path class="cls-1" d="M738.85,553.68c-1.93-4.35-1.48-8.7,0-13.06C740.65,545,740.17,549.32,738.85,553.68Z" transform="translate(-479.2 -197.48)"/><path class="cls-1" d="M718.88,534.83c-1.26,4.41-1.18,9.6-6.63,11.64,3.79-4.2,4.26-9.65,5.69-14.73C720.25,532.17,719.13,533.63,718.88,534.83Z" transform="translate(-479.2 -197.48)"/><path class="cls-1" d="M736.64,554.28l1.06,2.35c.3,2.86-2.29,3.46-4.05,4.8C734.65,559,735.64,556.66,736.64,554.28Z" transform="translate(-479.2 -197.48)"/><path class="cls-1" d="M718.88,534.83c-.25-1.05.17-2.3-.94-3.09-.09-.83-.17-1.89.65-2.15,1.12-.35,1.23.71,1.16,1.51C719.64,532.38,719.78,533.73,718.88,534.83Z" transform="translate(-479.2 -197.48)"/><path class="cls-1" d="M711.63,218.42a4.13,4.13,0,0,1,.9,1l.09-.38c.71-3.12.36-6.29.53-9.42.06-1.13-.17-2.54,1-3.12s2.08.68,3,1.3c7.18,4.84,9.18,12.2,9.82,20.22,1,4.07-.21,8.32.92,12.39v-13c1.78,4.56.45,9.31.86,13.94h0c1.67-.08,3.17.19,4,1.89l-.09.48a1.74,1.74,0,0,0,1-.18c.09-.55.17-1.11.25-1.66h0c-4.24-3.57-4.06-7.88-3.34-13,1.47-10.47-.62-19.72-11.91-24.38a11,11,0,0,1-5.88-7h-1c-.29,2.31.79,4.78-.77,7-.51,8.64-2,17.25-1.08,25.95C712.24,226.63,709.41,222.18,711.63,218.42Z" transform="translate(-479.2 -197.48)"/><path class="cls-1" d="M711.83,197.48h-1c.08,2.31.15,4.63.23,7C711.92,202.18,710.65,199.69,711.83,197.48Z" transform="translate(-479.2 -197.48)"/><path class="cls-1" d="M768.19,337.25c-.23.09-.47.15-.7.22A4.71,4.71,0,0,0,768.19,337.25Z" transform="translate(-479.2 -197.48)"/><path class="cls-1" d="M715,310.13l.22.38A1.11,1.11,0,0,0,715,310.13Z" transform="translate(-479.2 -197.48)"/><path class="cls-1" d="M752.54,340.23c2.78-2.21,6.07-1.9,9.21-2.23,2-1.59,4.36-.56,6.55-.79h0c4.21,2.24,8.4,4.5,12.64,6.68.8.41,2.66.23,2.45-.14-2.56-4.32,2.83-1.41,2.9-3.28a12.29,12.29,0,0,1-2.11-1c-4.35-3-7.23-7.63-11.81-10.3-.88-.51-2.51-.31-2.1-1.81.18-.65,1.58-1,2.42-1.41l-2.43-1c.36-.25.72-.48,1.08-.7-.24-.08-.49-.14-.74-.21a12.06,12.06,0,0,0-6,1.1c-1.65.78-3.41.64-5.16.68a5.89,5.89,0,0,0-3.66,1,1.45,1.45,0,0,0-.14.45l.15-.06,1.34,1-.9.27.25.18c4.82,1.3,10.29.43,14.75,4.41-5.58-.93-10.63.3-15.67,1.07-5.2.79-10.48.43-15.83,1.64.76-1.54,2-2.22,2.78-3.25,4.74-6.1,11.24-10.78,14.57-18-.17-1-1-1.58-1.64-2.24L755,312c-.17.38-.33.77-.5,1.15l-1.72-1.95c-.07-.15-.11-.3-.16-.44a1.34,1.34,0,0,0-.2,0,2.69,2.69,0,0,0-1.5,1.23c-5.4,9.25-11.61,17.81-20.4,24.2-.28.2-.32.38-.21.44.59.29-.51.25,0-.23a10,10,0,0,1,1.21-1.54c2.67-3.19,5.25-6.44,8-9.58,1.43-1.66,4.29-3.86,2.21-5.82-2.51-2.36-4.15,1.24-5.94,2.63a16.62,16.62,0,0,0-3.12,3.25.89.89,0,0,0-.29.32l.46.48c-.76,1.43-1.54,2.84-4,3.36.87-1.91,1.29-3.51,2.92-4.46l.48.51c.14-.17.27-.36.41-.53,2.91-6.36,6.62-12.3,9.67-18.58a4.2,4.2,0,0,1-.47-.08l-1.14-2.4c-2.87.21-3.55,2.95-5.12,4.63s-2.76,4.21-5.33,5c-.12.52-.24,1-.37,1.56-1.46-1-2.14.28-3,1,0,1.24.88,2.93-.66,3.48-1.24.45-2.35-.83-3.32-1.77-2.48-2.38-2.16-6.37-4.91-8.57h-.18a2.7,2.7,0,0,1-.21.8c-.69,1.24,1.49,3.78-1.13,3.82-2.21,0-1.34-2.37-1.47-3.83-.57-6.4,1.35-11.47,7.13-15,2.09-1.27-.49-4.48,1.58-6.2v4.34a18.35,18.35,0,0,0,.87-3.56c.39-2.59,2.16-4.65,2.72-7.17a8.65,8.65,0,0,0-.24-2,5.56,5.56,0,0,1-.52,1.67c-.73-1.33-1.69-2.68.43-3.67a3.85,3.85,0,0,1,.07.49,2.22,2.22,0,0,1,1.41-1.5c1.22-3.06.62-6.28.78-9.44-.09-2.74-.06-5.48-.05-8.22-.71-5.8,2.46-10.76,3.53-16.17h-.12c-1.5-.6-3.1-1.06-4.15-2.36h-.5v-.17a1.14,1.14,0,0,0-.53.33,6.77,6.77,0,0,0-.88,3.71c-.06,1.6.15,3.24-.68,4.75-1.09,1.45-1.54.64-1.72-.54a76.46,76.46,0,0,1-1.09-9.81c-.06-2.61.66-6.76-3.29-6.39-3.23.31-1.94,4.26-2.14,6.72s1.11,4.77.65,7.35c-1.83-1.06-1.73-4.08-4.33-4.09-.09.83-.17,1.66-.25,2.5a4,4,0,0,1-.76-1.09c0,.16-.08.31-.11.48a6.17,6.17,0,0,0,.31,2.93,41.79,41.79,0,0,0,5.55,9.37c1,1.31,1.54,2.67.09,3.95s-2.67,3.28-4.78,3.26c-1.93,0-1.64-2.15-2.13-3.46-1.67-4.46-1.5-9.25-2.31-13.85l-.51.24-1.32-1.32c-2.06-.78-2.83-2.63-3.9-4.35-2.81-4.51-5.62-9-9.66-12.61a3.79,3.79,0,0,0-2.37,2.35l-.48-.42a6.36,6.36,0,0,0,2.14,4.84c8.46,8.67,11.91,19.72,14.83,31,.4,1.57,1,3.22-.59,4.59-1.29-.66-1.14-2-1.33-3a100.85,100.85,0,0,0-2.84-10.56c-.52-1.69-1.15-4.18-3.32-3.57-1.89.52-1,2.84-.68,4.41.8,3.73,1.88,7.39,2.47,11.17a12.25,12.25,0,0,1,.5,5.38,16.09,16.09,0,0,1-1.15,4.22l.84,1.38-1.62.27-.06-.05c-.05.13-.11.26-.15.4-.5,3.37-2,6.4-3.07,10.56a94.59,94.59,0,0,0-6.38-17.2c-1-2.14-3-4.28-5.36-3.68-2.72.71-1.38,3.54-1.32,5.57,0,.9.49,1.8-.11,3.18A173.41,173.41,0,0,0,651,244.85a2.16,2.16,0,0,0-1.87-.66c-.1.49-.19,1-.28,1.46.36,2.06-.19,3.43-2.51,2.42a14,14,0,0,0-6.92-1.24c2.29,2.86,5.25,3.12,7.52,4.53a21.42,21.42,0,0,0,1.41,1.74c.3,0,.66.14,1.1.68,0,.14.07.27.1.4l.17.14C662.65,265,675.44,275.87,685,289.86c-1.88-2.09-4.25-3.7-6.08-5.84-.65-.76-1.5-1.43-2.6-1-1.3.56-1.37,1.77-1.28,2.95a7.66,7.66,0,0,0,2,4.45,55,55,0,0,0,7.5,7.28,1.33,1.33,0,0,0,.72.32.42.42,0,0,1-.58-.07,134,134,0,0,1-15-10.39c-3.73-3-6.85-6.69-11.34-8.65a1.64,1.64,0,0,0-.46.12v0l-1,1.18c6.74,8.92,15.56,15.28,26.23,20.32-4.3,2.06-7.72,3.58-10.51,6.15l1.38,1.56-.43.34c1.76.36,3.2-.67,4.73-1.26a9.58,9.58,0,0,1,7.36-.16c-1.5,1.07-3.5,1.33-3.15,3.23s2.15,1.76,3.58,2c4.42.61,8.57,2,13.9,3.74a21.45,21.45,0,0,1-3.27.38c-.73.21-1.51.31-2.25.5a20.17,20.17,0,0,1,2.26.39l-5,1.8c.46,1.06,2.52.75,2.22,2.23-.24,1.2-1.67,1.62-2.69,1.55-3.94-.27-5.71,2.39-7.46,5.16l1,2-.51.42.11.09c2.69.82,3.78-1.36,5.31-2.78,4.3-4,8.28-3.86,11.76.27a1.4,1.4,0,0,0,.71.2,2,2,0,0,0,0-.24l.72-2.07c.25.52.47,1,.67,1.55l.08-.07c2.27.07,2.47,2.33,3.59,3.58,1.74,1.95,2.37,4.77,4.78,6.25a1.43,1.43,0,0,1,.74,0c.92-1.17,2.17,1.12,3.08-.2,1.5-.66,2.9-.84,3,1.34.07,1.24.71,3.29-2,2.53-2.21-.18-2.07,1.29-2.06,2.81,0,6.79,0,13.59,0,20.39,0,1.78.2,3.63-1.4,5-.07.06-.32,0-.44-.1a1.31,1.31,0,0,1-.33-.37c.07-.37.13-.73.19-1.1a3.88,3.88,0,0,1-.55.71c-2.45,2.73-4.57,5.62-5,9.43a2.35,2.35,0,0,1,.15.42l.41-.16c-.1.15-.21.29-.32.43a5.45,5.45,0,0,1-.79,4,49.73,49.73,0,0,0-3.84,10.12,11.32,11.32,0,0,1-4.1,6.22.46.46,0,0,1,.07.07l-.06,1-.22,0a2,2,0,0,0,.19.52,5.3,5.3,0,0,0,5.69,1.23c.07,0,.13-.1.19-.14l-.06-.16.23-.32a5.13,5.13,0,0,1,.71-.5c1.72-5.73,2.77-11.73,6.65-16.57-.1-.27-.2-.54-.29-.81,4.27-7.53,3.42-16.09,4.9-24.19,0-.27.18-.69.37-.75s.53.19.8.31c2.27-4.59,1.08-11.46,8.92-13.07v11.68c.33-.4.67-.8,1-1.21a17.53,17.53,0,0,1,0-4.4c.63-2.52,0-5.7,2.69-7.31,6.37-3.81,19.53-1,24.15,5h0l1.1,0c-.64-1.87.31-2.11,1.83-1.79,0-.76.07-1.53.11-2.29C756.85,342.6,753.68,342.6,752.54,340.23ZM759.23,327c1.73-1,3.66-.47,5.5-.69C763.06,327.86,761.1,327.1,759.23,327Zm-31.32-58.15-.06-9.66A14.68,14.68,0,0,1,727.91,268.87Zm-.21-24c-.1,1.83.73,3.8-.75,5.44A9.43,9.43,0,0,1,727.7,244.9Zm-37.83,50.94c-.29-.29-.75-.54-.83-.88s.33-.65.52-1l1.16.91Zm13.86-19.08q-.33-3.22-.64-6.43C704.57,272.35,703.72,274.59,703.73,276.76ZM705.61,310c-3.37-8,1-14.09,3.32-20.49a2.56,2.56,0,0,0-1.27-2.32c-2.65,3.53-3.86,7.7-5.42,11.74-.29.75.35,2.78-1.66,2.3-1.39-.33-1.53-1.54-1.44-2.79a26.89,26.89,0,0,1,3.77-11.8A77.9,77.9,0,0,1,722.52,264C723,281.69,715.29,295.84,705.61,310Zm2.7,7.66c-1.11-3,1.21-5.43,4.44-8.74-.51,3.7,3.08,5.66.79,8.22C712.26,318.59,708.73,318.82,708.31,317.66Zm12.17,16.18c-.56.54-1,.8-1.66.33a36.68,36.68,0,0,1-10.11-12.12c-1.2-2.25,2-1.41,3-1.73a11.81,11.81,0,0,1,6.9,1.73C724.35,325.09,725.07,329.48,720.48,333.84Z" transform="translate(-479.2 -197.48)"/><path class="cls-1" d="M713.53,346.16c-.12,5.5,0,11-.07,16.52v.47A94.53,94.53,0,0,0,713.53,346.16Z" transform="translate(-479.2 -197.48)"/><path class="cls-1" d="M658.82,424.91c.26-.22.54-.43.81-.65l-.37-.05c-3.8.86-6.63,3.42-9.46,5.77-2.63,2.18-4.93,2.64-7.6.43a2.13,2.13,0,0,0-2.17,1.52c2.37,3.86-.53,7.18-1.1,10.74-3.3,20.69.71,40,10.53,58.37a7,7,0,0,0,4.49,3.51c5.86,1.76,11.66,3.78,17.63,5.07,3.91.85,4.61,2.87,4.21,6.26-.55,4.61-1,9.23-1.34,13.85-1.31,18.45,6.8,31,22.42,34.8a43.87,43.87,0,0,1,12.59,2.3,56,56,0,0,0,15,2.81c10.94.66,21.92,2.09,31.42,7.52,9.84,5.62,19.94,8.29,31,7.39,5.38-.45,10.85-3.08,16-2.45,10.39,1.27,20.58,3.94,31.19,4.13,5.39.09,10.73.67,16.78.32a8.6,8.6,0,0,0-4.83-3.1c-4.44-1-9,.27-13.43-.7a35.21,35.21,0,0,0-7.71-.88c-5.17-.3-9.94-2.78-15.15-2.32-2.61-1.14-5.46.22-8.08-.81-3.92.81-7.79,1.93-11.85,1.79a7.76,7.76,0,0,0-3.1-.33c-9.47.88-17.94-2.11-26.14-6.48-6.16-3.28-12.68-6.15-19.52-7.2-10.33-1.59-20.56-3.65-30.84-5.43-4.23-.74-8.54-1.07-12.55-2.72-6.31-2.6-11.9-6.24-14.26-13-2-5.62-3.49-11.42-3.22-17.52.09-2.11.33-4.34-1.11-6.23a1.3,1.3,0,0,0-.43-.15v.23h-.37l-.37,0h0v7.85s0,0,0,0v.81c0-.23-.11-.45-.16-.67-.2.13-.49.21-.49-.2a8.14,8.14,0,0,0,.13-1.21c-.56-2.25-.95-4.49.48-6.66h0c.56-1.56-1.13-3.63,1.09-4.82-.07,1.16-.15,2.32-.23,3.48.29-1.33,0-2.91,1.34-3.78,1.11-4.55,3.15-8.89,3.08-13.71l-1.43-.18.28-.44-.23,0c-3.56,1.53-7.1,1.13-10.66,0s-7-2.49-10.66-2.08-5.51-1.27-7-4.16c-1.15-2.2-2.15-4.47-3.2-6.71-2-4.15-2.84-8.78-5.54-12.61-.39-.1-.65.2-.83.21-.79,0-.13-.44-.09-.52a13.48,13.48,0,0,0,1.16-3.26,121.61,121.61,0,0,0-1.31-15.25c-.88-6.76-.19-13.2,3.56-19.07.62-1,1.33-2.14,2.61-2s1.5,1.55,1.88,2.61c.66,1.82.75,4,2.86,5a2.64,2.64,0,0,0,.4,0l-.15-.3,1.19-1.16c-1.94-1.5-.1-4-2.7-6,4.82.57,2.88,5.12,5.62,6h0a3.59,3.59,0,0,0,.48-.14c1.15-2.1.42-4.26-.24-6.18-1.39-4-1-7.52,2.1-10.58,0-.08,0-.15,0-.23s-.19.07-.29.09Z" transform="translate(-479.2 -197.48)"/><path class="cls-1" d="M818.83,466.29c8.09,13.32,16.7,26.24,30.31,34.78,6.14,3.86,12.45,7.48,18.35,11.67,9.6,6.82,20.29,9.7,31.86,10l14.36,0h0l2.7-.21v-1.08c-10.1-.29-20.16-.91-30.06-3.1-2.5-.55-5.46-.66-7.34-2.1-8.26-6.34-17.49-11.1-26.24-16.6-13.48-8.48-22.76-20.55-30.56-34-.44-.76-3.89-2.82.19-3.78.53-2.57-2-4.33-1.78-6.82-2-1.37-3.22-3.43-4.52-5.41L811.26,451C812.64,456.67,815.88,461.43,818.83,466.29Z" transform="translate(-479.2 -197.48)"/><path class="cls-1" d="M712.52,383.54l-.29.37c2.76,7.81,8.1,13.95,14.69,20.67-6-1.61-10.8-2.35-15.48-3.81-1.94-.61-3.94-1.39-5.86-.29v.06a2.64,2.64,0,0,1-.87.92c.57,1.79,2.3,2,3.72,2.6a66.9,66.9,0,0,0,10.74,3.64c1.3.29,2.62.49,1.68,2.54-2.88,6.25-.14,12.24,1.21,18.24.31,1.33,1,3.34,3.24,1.86L725,430c-.07-1.8-.08-3.6-.22-5.4-.12-1.59.08-3.36,1.81-3.44,2.12-.09.94,1.93,1.17,3,.16.74-.22,1.68,1,1.77V426a2.54,2.54,0,0,0,.39-.21,5.11,5.11,0,0,0,.86-2.76,25.59,25.59,0,0,1,.48-5.09c-.75-4.48.35-7.72,5.49-8.37.61-.08.92-.71,1-1.38-2.51.12-2.8-1.28-2.13-3.34a71,71,0,0,1-12.74-12.16c-4.31-5.08-7.55-10.91-6-18.07a71.43,71.43,0,0,0,1.9-16.15,158,158,0,0,0-2.57,17A14.36,14.36,0,0,1,712.52,383.54ZM729.64,418a9.65,9.65,0,0,1-.73,5.38C729,421.54,728.19,419.61,729.64,418Z" transform="translate(-479.2 -197.48)"/><path class="cls-1" d="M648.74,244.31a2,2,0,0,1,.37-.12l0-.24c1.3-2.1-.16-3.79-.85-5.59-1-2.68-2.48-5.24-2.93-8.59,18.64,6.44,34.32,15.68,43.91,33,.75,1.33,1.47,3,3.54,2.64,0-.05,0-.1,0-.15l.14,0c-.88-4.55-1.88-9.11-4.57-13-5.6-8-11.7-15.51-21.07-19.53-1.93-.83-3.57-2.31-5.35-3.5-1.92.49-1.44-1.43-2.15-2.15-3.56,1.92-6.47-.29-9.58-1.45-5.35-2-10.69-2.26-16.36.63,6.46-2.13,7.17,2.71,8.59,6.39a73.39,73.39,0,0,0,6.37,12.91A1.51,1.51,0,0,1,648.74,244.31Z" transform="translate(-479.2 -197.48)"/><path class="cls-1" d="M803.91,436.5c2.44,4.85,4.18,10.05,7.35,14.52a3.53,3.53,0,0,1,4.84-1.29c-.32-1.27-2-2.07-1.49-4,4.59,1.07,8.82,3.12,13.47,2.27H835c6,.48,11.18-2.1,16.47-4.3l-1.17-.95c-6.77,1.34-13.43,3.44-20.47,3.05-1.76-.08-3.63.68-5.21-.71-12.88-.64-17.29-11.16-23.54-19.74,1.83-.89,3.14.28,4.58.34a1.19,1.19,0,0,1,.36-.17c1.14-.51,2.62-.9,1.68-2.11a1.09,1.09,0,0,1-1-.9h0L790.67,417h0l-3.1,2A40.8,40.8,0,0,1,803.91,436.5Z" transform="translate(-479.2 -197.48)"/><path class="cls-1" d="M758.87,412.15a6.37,6.37,0,0,0-.83.54c-.35,7.57,2.67,14.31,6,20.7,5.14,9.86,7.15,20.63,10,31.13a35.4,35.4,0,0,1,1.13,13.31c-1.08,9.38-1.91,18.77-3.36,28.11-1.63,10.46-3.28,21-2.41,31.64.22,2.65-.09,5.79,3.1,7.29,2-1.35,1-3.57,1.55-5.34a21.57,21.57,0,0,1-1.3-6c-.82-13.91,2.5-27.36,4.72-40.86,3.41-20.7-.6-40.06-8.93-58.75a129.77,129.77,0,0,1-7-19C760.56,414.18,760.29,412.55,758.87,412.15Z" transform="translate(-479.2 -197.48)"/><path class="cls-1" d="M859.51,369.6c-3.89-2.64-7.69-5.55-12.73-5.59-1.75,0-3.59.67-5.16-.69l-5-.08a6.81,6.81,0,0,1-7,0l-1,.08c-3.71,1.58-7.56.55-11.35.63H812c-2.79-.1-5.69,1-8.34-.74-3.24-1-6.87,1-9.95-1.27l-.16,2.43c5.8,1.69,11.75.43,17.61.84l5.66-.06h0l.31.11.3-.12,17.71,0h2.14c2.44.06,5-.91,7.27.71,8,3.8,15.91,7.65,20,16.29a22.78,22.78,0,0,0,2.94,3.86l1.08-1.1-4.35-7.15,13.3,4.17,3.33-2.08C873.63,376.71,866.13,374.08,859.51,369.6Z" transform="translate(-479.2 -197.48)"/><path class="cls-1" d="M734.05,243.33a1.79,1.79,0,0,1-.34.22h0c-1.14,1.92,0,3.57.8,5.12,3.58,6.7,5,14,6.07,21.39.84,5.57.67,11.26,2.19,16.74a14.67,14.67,0,0,1,.69,5.22c.55,4.32-2.89,7.72-2.78,11.94v0h.18a2.8,2.8,0,0,1,1.53,2.31l-.1.18c1.32.16,2.61-.41,2.8-1.49,1-5.61,4.9-9.72,7.1-14.67l-.37.14-1.21-1.25c-2.66,1-1.4-1.28-1.8-2.17l-1.64.13c-2.77-2.45-.92-5.61-1.3-8.44h0c-.92-9.83-1.77-19.65-5.2-29.07-.91-2.48-2.89-4.53-2.88-7.35l-3.84-.41A1.17,1.17,0,0,1,734.05,243.33Zm9.88,43.95c1.44,1.59.68,3.48.74,5.26C743.64,290.9,743.94,289.07,743.93,287.28Z" transform="translate(-479.2 -197.48)"/><path class="cls-1" d="M687,398.29a1.7,1.7,0,0,0,.31-.06H687A.09.09,0,0,0,687,398.29Z" transform="translate(-479.2 -197.48)"/><path class="cls-1" d="M687,398.14a.25.25,0,0,0,0,.08l1.84-2.07.32.1a2.48,2.48,0,0,0-.08-.83c-2.38-5.3-2.81-11.07-4.76-16.95,2.54.27,3.86,1.88,5.68,2a2.8,2.8,0,0,0,1.15-.34l-.29-.16c.36-1,.71-1.95,1.07-2.92a35.32,35.32,0,0,0-10.56-6.1c-3.85-1.55-8.41-2.94-8.37-8.53,0-3.44-1-6.94.69-10.26l.26-6.84c-.08-.52-.15-1-.23-1.55h0c-3.47,7.43-1.32,15.33-1.94,23-.73,1.79-2.34,2.08-4,2.36l-.16.14a1.63,1.63,0,0,0,.53,1.33c9,5.52,13.32,13.89,14.93,24,.47.7.91,1.42,1.42,2.09A7.63,7.63,0,0,0,684,395C686.2,395,685.57,397.55,687,398.14Z" transform="translate(-479.2 -197.48)"/><path class="cls-1" d="M737,408.05a.65.65,0,0,1,0,.14h.16a2.73,2.73,0,0,0,2.19,1.82c6.34,1.22,12.69,2.27,19.18,2.06a2,2,0,0,1,.37.08c2.3-1.24,2,1.69,2.75,2.81-.13-3.91,2.67-3,4.84-2.82,7.59.58,14.11,4.48,21.11,6.88.37-1.7,2-1.49,3.1-2h0a87.46,87.46,0,0,0-24.94-7.72c-10.3-1.4-20.59-3-30.89-4.46C735,406.26,735.05,407.8,737,408.05Z" transform="translate(-479.2 -197.48)"/><path class="cls-1" d="M943.47,418.87a9,9,0,0,0-1.73-1c-9.42-3.81-17.47-9.42-23.67-17.59a5.64,5.64,0,0,0-3.61-2.4,3.4,3.4,0,0,1-2.08,2.14c6.81,11.34,17.68,17.54,29.22,22.83,1.43.66,3.59,2.56,4.79.36C947.67,420.87,945.05,420,943.47,418.87Z" transform="translate(-479.2 -197.48)"/><path class="cls-1" d="M747.51,231.71c-2.43,7.92.11,15.33,2,22.83,2,7.93,3.26,15.89,1.13,24-.7,2.67-2.4,5.11-1.95,8.06,5.48-6.63,6.83-14.53,5.58-22.58-1.89-12.1-7.38-23.71-4-36.81-2.62.68-4.42,1.15-4.56,3.63C746.64,230.5,748,230,747.51,231.71Z" transform="translate(-479.2 -197.48)"/><path class="cls-1" d="M752.23,290.24l0,.07c3.57-1.23,5.93-3.87,7.89-6.95a107.5,107.5,0,0,1-6.42,23.21c-.55,1.35-1.55,2.65-1,4.22A3.3,3.3,0,0,1,755,312c1.22-2.73,2.41-5.47,3.67-8.18,2.18-4.66,2.85-10.09,7-13.76l-.08-1.33c-2,1.16-2.54.7-2.19-1.65.59-3.87.82-7.79,1.31-12.74-5.39,5.29-10.8,9-14.08,14.83C751.62,288.83,752,289.44,752.23,290.24Zm8-8c0,.2-.07.4-.1.6a.3.3,0,0,0-.17,0C759.34,282.86,760.3,282.19,760.28,282.24Z" transform="translate(-479.2 -197.48)"/><path class="cls-1" d="M914.46,397.9c-4.44-5.54-8.71-11-16.48-12.54-5.84-1.15-11.42-3.59-17.12-5.46-.49,1.7-2.05,1.66-3.33,2.08,1.93,1.26,4.19,1.54,6.32,2.22,10.58,3.34,21.87,5.44,28.53,15.84C912.51,398.78,913.66,398.51,914.46,397.9Z" transform="translate(-479.2 -197.48)"/><path class="cls-1" d="M694.14,229.29c-7.2-7.37-16.18-10.42-26.25-10.87.77,1.41,2.11,1.76,3.55,2.07,7.68,1.62,14.14,5.49,19.85,10.73v0C691.76,229.84,692.44,228.79,694.14,229.29Z" transform="translate(-479.2 -197.48)"/><path class="cls-1" d="M823.19,462.13c0,.05-.25.08-.37.05a2.41,2.41,0,0,1-.42-.22c4.2,4.86,8.65,9.45,14.13,12.9l2-.9c-6.64-5.64-11.72-12.76-17.93-18.82C821.54,457.45,824.08,459.16,823.19,462.13Z" transform="translate(-479.2 -197.48)"/><path class="cls-1" d="M672.72,306.75h0c-8,5-14.08,15.73-9.85,24.92l4-4.34c-2.72.28-4.11.54-3.29-3.6,1.33-6.74,5.22-11.12,10.12-15.08l-.41-.09C672.65,308.08,672.11,307.58,672.72,306.75Z" transform="translate(-479.2 -197.48)"/><path class="cls-1" d="M807.73,423.42c.75.15,1.68,0,2,.95-.7,1.86-2.45.76-3.67,1.16a3,3,0,0,0-.36.17c10.17,2.4,20.31,1.85,30.44-.16-3.85-.18-7.66-1.35-11.52-.43-3.22,1.7-6.58.38-10.66,1,2.14-1.93,4.39-.37,5.65-2.05-4.28-.5-8.65-.29-12.84-1.57h0A4.87,4.87,0,0,1,807.73,423.42Z" transform="translate(-479.2 -197.48)"/><path class="cls-1" d="M772.35,288.1c-.54,4-1.11,8.1-1.66,12.15a5.43,5.43,0,0,0,5.1-2.8c0-.38,0-.75-.08-1.12-4.51.73-.72-2.74-1.87-3.71,0-3,0-5.95-.05-8.93h0c.27-.95-.09-2-1-1.47-1.28.68-3.47.87-3,3.26C772.16,284.78,772.61,286.1,772.35,288.1Z" transform="translate(-479.2 -197.48)"/><path class="cls-1" d="M793.72,362c-4.44-4.24-10.83-3.62-15.88-6.33h0c0,.48-.09,1-.13,1.43,2.76,1.93,7.64,2.3,5.29,8,2.81-5.11,4.26-5.37,9-1.83.52.39,1,.8,1.52,1.2A1.91,1.91,0,0,1,793.72,362Z" transform="translate(-479.2 -197.48)"/><path class="cls-1" d="M735.86,364.82c6.85,1.06,13.37,4.79,20.62,2.74-6-.28-11.49-3.4-17.52-3.55C737.91,364.22,736.71,363.86,735.86,364.82Z" transform="translate(-479.2 -197.48)"/><path class="cls-1" d="M653.46,270.43l0-.06c-1.09-5.46-2.67-10.79-4-16.19a8.25,8.25,0,0,1-1.2-1.08c-.48.06-.83.66-1.19,1.23-.6,6.26,1.36,11.84,4.6,17.07l1.26-1.25Z" transform="translate(-479.2 -197.48)"/><path class="cls-1" d="M757.79,345a1.62,1.62,0,0,1-.11,2.29,22.35,22.35,0,0,0,12.14,6.37l.11-.35C766.71,349.35,761.65,348.05,757.79,345Z" transform="translate(-479.2 -197.48)"/><path class="cls-1" d="M711.72,240.54a2.89,2.89,0,0,0-.41.75s0,0,0,0a1.61,1.61,0,0,0,.73.24c0-.08,0-.15-.05-.23l.92-2.28a3.06,3.06,0,0,1,.69,1.07,5.38,5.38,0,0,0,.24-1.85c-.7-4.6-.51-9.25-.6-13.88,0-1.68.17-3.47-.75-4.94-.51,2.16-.16,4.38-.39,6.55-.18,1.67.42,3.84-2.16,4.37l-.3,7.81C710,239.33,711.73,239.16,711.72,240.54Z" transform="translate(-479.2 -197.48)"/><path class="cls-1" d="M836.53,474.86c3,2.16,6,4.44,10,4.57a18,18,0,0,0-8-5.47C838.47,475.58,837.62,475.48,836.53,474.86Z" transform="translate(-479.2 -197.48)"/><path class="cls-1" d="M658,279.07c.55-4-1.37-6.69-4.55-8.64-.31.77-.74,1.34-1.72,1a29.35,29.35,0,0,0,5.26,8.88A1.9,1.9,0,0,1,658,279.07Z" transform="translate(-479.2 -197.48)"/><path class="cls-1" d="M780.81,322.52c3.8-1.57,6.64-4.09,8-8.1,0-.48-.11-1-.17-1.44l-8,8h0C780.68,321.49,780.75,322,780.81,322.52Z" transform="translate(-479.2 -197.48)"/><path class="cls-1" d="M775.79,297.45l11.86-2.1h0c0-.33,0-.66,0-1a19.41,19.41,0,0,0-12,2C776.29,296.66,776.32,297,775.79,297.45Z" transform="translate(-479.2 -197.48)"/><path class="cls-1" d="M662,229.32l1-7.78-1.11-1.14a9.94,9.94,0,0,0-2.06,6.77C661.09,227.32,660.91,228.94,662,229.32Z" transform="translate(-479.2 -197.48)"/><path class="cls-1" d="M694.57,317a20.4,20.4,0,0,0-9.65,1.3h0l2.14,1h0l4.75-.07A3.58,3.58,0,0,1,694.57,317Z" transform="translate(-479.2 -197.48)"/><path class="cls-1" d="M687.06,319.29l-.9.29C686.44,319.51,686.75,319.4,687.06,319.29Z" transform="translate(-479.2 -197.48)"/><path class="cls-1" d="M671.8,366.75c-3.65.25-7.3.38-10.82,1.49l2.15,1a2.56,2.56,0,0,1-.15.95l.21.06c1.6.12,3.2.23,4.49-1h0C668.45,367.43,670.9,368.37,671.8,366.75Z" transform="translate(-479.2 -197.48)"/><path class="cls-1" d="M756.88,365.76c.67-4.6,2.09-9.21-.09-13.73l-.89,1.06Z" transform="translate(-479.2 -197.48)"/><path class="cls-1" d="M817.44,365.16a57.85,57.85,0,0,0,17.72,0h0A83.21,83.21,0,0,1,817.44,365.16Z" transform="translate(-479.2 -197.48)"/><path class="cls-1" d="M777.84,355.63c-2.46-1.37-4.91-2.8-7.91-2.31l-.11.35a14.36,14.36,0,0,0,7.89,3.39A1,1,0,0,1,777.84,355.63Z" transform="translate(-479.2 -197.48)"/><path class="cls-1" d="M661,368.24l-6.06,2c.33.58.66,1.17,1,1.76,1.35.31,2.77-2.38,4.07.09l1.14-.08.07.23a5.68,5.68,0,0,0,1.8-2.08C662,369.89,661,369.65,661,368.24Z" transform="translate(-479.2 -197.48)"/><path class="cls-1" d="M815.51,425.57a11.29,11.29,0,0,0,2.24-.09C816.91,425.35,816,425,815.51,425.57Z" transform="translate(-479.2 -197.48)"/><path class="cls-1" d="M818.91,425.32a13.39,13.39,0,0,1,4.73-.14,2.15,2.15,0,0,0,1-.07,5.37,5.37,0,0,0-5-1A1.81,1.81,0,0,1,818.91,425.32Z" transform="translate(-479.2 -197.48)"/><path class="cls-1" d="M684.92,318.33h0c-2.51.48-5,.89-7.16,2.49.06.48.11,1,.17,1.46l8.23-2.7C685.48,319.75,684.94,319.63,684.92,318.33Z" transform="translate(-479.2 -197.48)"/><polygon class="cls-1" points="207.86 121.81 207.86 121.81 207.86 121.81 207.86 121.81"/><path class="cls-1" d="M795.61,298.28c-3.22,2.42-3.61,5.74-2.89,9.41,1.26-3.08,3-6,3-9.5l0,0-.06.13A.21.21,0,0,1,795.61,298.28Z" transform="translate(-479.2 -197.48)"/><path class="cls-1" d="M709.49,247.07c0,.08,0,.17,0,.26,2.4-1.32,1.08-4.07,1.78-6-.9-.84-2.12-1.51-1.63-3.1-1.85,2.4-1,5.46-2,8.06C708.57,245.92,709.06,246.41,709.49,247.07Z" transform="translate(-479.2 -197.48)"/><path class="cls-1" d="M899.35,522.77a28.29,28.29,0,0,0,14.36,0A51.93,51.93,0,0,1,899.35,522.77Z" transform="translate(-479.2 -197.48)"/><path class="cls-1" d="M787.89,295c-.08.22-.16.32-.24.32h0c-.25,1-.5,2-.76,2.94l1.14.08h0c1.22-1.35,2.45-2.7,3.67-4.06-.06-.49-.11-1-.17-1.46h0l-3.85,1.51A.59.59,0,0,1,787.89,295Z" transform="translate(-479.2 -197.48)"/><path class="cls-1" d="M739,364a10.26,10.26,0,0,0-8.46-.52l5.36,1.33C736.41,362.7,737.8,363.79,739,364Z" transform="translate(-479.2 -197.48)"/><path class="cls-1" d="M828.59,363.33c-3.78.21-7.63-.77-11.35.63C821,363,824.84,364.14,828.59,363.33Z" transform="translate(-479.2 -197.48)"/><path class="cls-1" d="M654.92,370.23c-1.81.72-3.8,1.27-3.84,3.79,1.92.07,3.3-1.15,4.82-2C655.18,371.62,654.53,371.21,654.92,370.23Z" transform="translate(-479.2 -197.48)"/><path class="cls-1" d="M772.69,326l5-1.94L776.36,323a8.19,8.19,0,0,0-5,1.31A1.59,1.59,0,0,1,772.69,326Z" transform="translate(-479.2 -197.48)"/><path class="cls-1" d="M745.33,231.37c-3,.35-4,2.46-4.55,5C743.8,236.08,743.79,233,745.33,231.37Z" transform="translate(-479.2 -197.48)"/><path class="cls-1" d="M663,221.54c1.37-.72.69-3.69,3.32-3a2.49,2.49,0,0,0-.73-2.64c-.26-.18-1.46.58-1.89,1.17a25.85,25.85,0,0,0-1.81,3.37C662.84,220.18,663.37,220.41,663,221.54Z" transform="translate(-479.2 -197.48)"/><path class="cls-1" d="M740.82,237.16a4.4,4.4,0,0,0-3,4.17C740.74,241.34,740.55,239.08,740.82,237.16Z" transform="translate(-479.2 -197.48)"/><path class="cls-1" d="M795.51,293.56h0a3.7,3.7,0,0,0,.1,4.72l.1-.07c.89-2.07,1.85-4.12,0-6.22-.07.52-.15,1-.22,1.57Z" transform="translate(-479.2 -197.48)"/><path class="cls-1" d="M677.76,320.82,672.84,323c0,.4,0,.81.08,1.21a9.65,9.65,0,0,0,5-2A1,1,0,0,1,677.76,320.82Z" transform="translate(-479.2 -197.48)"/><path class="cls-1" d="M773.84,292.62a13.93,13.93,0,0,0-.05-8.93h0A22.56,22.56,0,0,1,773.84,292.62Z" transform="translate(-479.2 -197.48)"/><path class="cls-1" d="M765.66,290.09c1.78-.63,3.17-1.57,2.93-3.77-1.81-.19-2.51,1-3,2.44A.8.8,0,0,1,765.66,290.09Z" transform="translate(-479.2 -197.48)"/><path class="cls-1" d="M812,364c-2.69-1.25-5.55-.64-8.34-.74C806.39,364.21,809.29,363,812,364Z" transform="translate(-479.2 -197.48)"/><path class="cls-1" d="M777.68,324.06a3.35,3.35,0,0,0,3.13-1.54h0a1.12,1.12,0,0,1-.2-1.54c-1.5.49-3.08.84-4.25,2C777.41,322.59,777.77,323,777.68,324.06Z" transform="translate(-479.2 -197.48)"/><path class="cls-1" d="M788.76,314.42c2.56-.39,2.57-2.51,3-4.37-2.24-.29-2.21,1.83-3.14,2.93A1,1,0,0,1,788.76,314.42Z" transform="translate(-479.2 -197.48)"/><path class="cls-1" d="M672.6,323.45q.1-.42.24-.42c-1.91.44-4,.49-5,2.69,2,.56,3.57-.3,5.06-1.48A.78.78,0,0,1,672.6,323.45Z" transform="translate(-479.2 -197.48)"/><path class="cls-1" d="M851.5,443.71l4.49-2.4c-2.65-.85-4.2.14-5.66,1.45C851.34,442.31,851.6,442.78,851.5,443.71Z" transform="translate(-479.2 -197.48)"/><path class="cls-1" d="M791.7,294.31c1.31-.07,2-3,3.81-.75a1.08,1.08,0,0,1,.22-1.57c-1.85-1.92-3-.41-4.2.86A.93.93,0,0,1,791.7,294.31Z" transform="translate(-479.2 -197.48)"/><path class="cls-1" d="M836.59,363.24h-7A14,14,0,0,0,836.59,363.24Z" transform="translate(-479.2 -197.48)"/><path class="cls-1" d="M847.36,479.65c.88,2.46,2.31,2.85,4.38,3.07C850.58,481.17,849.78,479.92,847.36,479.65Z" transform="translate(-479.2 -197.48)"/><path class="cls-1" d="M683.88,328.16a5.76,5.76,0,0,0-2,4.49l2.5-2.08C683.46,329.93,683.11,329.17,683.88,328.16Z" transform="translate(-479.2 -197.48)"/><path class="cls-1" d="M837.29,365.2c2.35,1,4.85.41,7.27.71C842.2,365,839.64,366.12,837.29,365.2Z" transform="translate(-479.2 -197.48)"/><path class="cls-1" d="M828.08,448a9.87,9.87,0,0,0,6.94,0A14.06,14.06,0,0,1,828.08,448Z" transform="translate(-479.2 -197.48)"/><path class="cls-1" d="M761.75,338a12.8,12.8,0,0,0,5.74-.53C765.6,337.9,763.59,337.25,761.75,338Z" transform="translate(-479.2 -197.48)"/><path class="cls-1" d="M768.3,337.21h0l-.11,0Z" transform="translate(-479.2 -197.48)"/><path class="cls-1" d="M754.75,349.13c.38,1.32.77,2.64,1.15,4a2,2,0,0,1,.89-1.06c-.25-1,.69-2.38-.94-2.94A.71.71,0,0,1,754.75,349.13Z" transform="translate(-479.2 -197.48)"/><path class="cls-1" d="M811.17,365.23a6.46,6.46,0,0,0,5.66-.06A9.66,9.66,0,0,1,811.17,365.23Z" transform="translate(-479.2 -197.48)"/><path class="cls-1" d="M916.65,522.24q-.12.36-.24.36c1.22.2,2.66-.15,2.46-1.38-.14-.83-1.68-.54-2.46.3A.68.68,0,0,1,916.65,522.24Z" transform="translate(-479.2 -197.48)"/><path class="cls-1" d="M846.78,364c-1.6-1.1-3.41-.71-5.16-.69C843.27,364,845.15,363.13,846.78,364Z" transform="translate(-479.2 -197.48)"/><path class="cls-1" d="M751.24,356.27c-.56,1.45.54,2.34,1.08,4.06C752.89,358.17,752.49,357.12,751.24,356.27Z" transform="translate(-479.2 -197.48)"/><path class="cls-1" d="M829.86,445.81c-1.61-1.14-3.43-.77-5.21-.71C826.31,445.87,828.21,444.94,829.86,445.81Z" transform="translate(-479.2 -197.48)"/><path class="cls-1" d="M726.93,357.08c0,.9-.15,2.42,1.09,1.91,1.6-.67.53-2.06-.09-3.12C728.41,357,727.89,357.2,726.93,357.08Z" transform="translate(-479.2 -197.48)"/><path class="cls-1" d="M867.5,386.06c.66.89,1,2.93,2.46,1.77.87-.69-.47-2.08-1.38-2.87C869,386.05,868.46,386.29,867.5,386.06Z" transform="translate(-479.2 -197.48)"/><path class="cls-1" d="M674,345.3c1.59-.91,1.18-2.75,1.89-4.06-2.2-.42-2,1.14-2.12,2.51h0A1,1,0,0,1,674,345.3Z" transform="translate(-479.2 -197.48)"/><path class="cls-1" d="M728.3,241.18a1.28,1.28,0,0,1-.37-.73v.76A.77.77,0,0,1,728.3,241.18Z" transform="translate(-479.2 -197.48)"/><path class="cls-1" d="M728.8,241.36a1.22,1.22,0,0,0-.5-.18,2.14,2.14,0,0,0,.13.19h.37Z" transform="translate(-479.2 -197.48)"/><path class="cls-1" d="M723,305.14a1.09,1.09,0,0,0,.25-.58Z" transform="translate(-479.2 -197.48)"/><path class="cls-1" d="M722.51,314.85c1,.94,1.22,4.23,3.63,1.31a6.19,6.19,0,0,1,.46-.8l-.87-2c-1.17-.66-.93-1.84-1.07-2.88-1.22-1.57-1.26-3.5-1.66-5.33-.32-1.36-.63-2.72-1-4.08-.37-1.52.13-2.09,1.67-1.6h0c0-2,0-4.11,0-6.17a11.09,11.09,0,0,1-3,4.51,13.67,13.67,0,0,0-4.57,11.86c.14.54-.19,1.62.31,1.54a.47.47,0,0,0,.29-.19c0-.79-.07-1.57,1.1-1.8l.16.13C721.32,309.51,720.77,313.22,722.51,314.85Z" transform="translate(-479.2 -197.48)"/><path class="cls-1" d="M732.41,283.6c-2.34-.47-3,1.54-3,3.5-.25,5.92-.46,11.85-.68,17.78a15.82,15.82,0,0,1-1.48,9.76,3.47,3.47,0,0,1,2.65-.89c.14,0,.25-.09.38-.13,1.93-8.66,1.6-17.58,2.75-26.33C733.15,286.11,734.78,284.07,732.41,283.6Z" transform="translate(-479.2 -197.48)"/><path class="cls-1" d="M727.09,315.08c0-.06,0-.11,0-.17-.12.22-.23.43-.37.64a.42.42,0,0,0,.18.65A1.12,1.12,0,0,0,727.09,315.08Z" transform="translate(-479.2 -197.48)"/><path class="cls-1" d="M713.46,363.15c-.15,1.48-.36,3-.62,4.46C713.67,366.25,713.49,364.67,713.46,363.15Z" transform="translate(-479.2 -197.48)"/><path class="cls-1" d="M715.91,340.17c.2-.11.44-.2.65-.32l-.42-1.57-.44,0c-1.2.58-2-.62-2.94-.89a.7.7,0,0,0-.08.1c.33,2.91.63,5.81.85,8.71,0-.43,0-.86,0-1.29C713.6,343.06,713,340.67,715.91,340.17Z" transform="translate(-479.2 -197.48)"/><path class="cls-1" d="M701.2,350.94c3.18-7.64,5.51-15.33,2.37-23.35a2.19,2.19,0,0,1-1.35.76C703.83,335.94,702.49,343.44,701.2,350.94Z" transform="translate(-479.2 -197.48)"/><path class="cls-1" d="M700.48,281.33a4.93,4.93,0,0,1,.41-.83,6.52,6.52,0,0,0,.43-.77l-3.39-5.54-1.14,1.14C696.2,278.46,698.69,279.68,700.48,281.33Z" transform="translate(-479.2 -197.48)"/><path class="cls-1" d="M710.38,284.14c-1.94.15-2.26,1.67-2.72,3.05,1.91-.42,2-.26,1.27,2.32C710.07,287.91,711.22,286.31,710.38,284.14Z" transform="translate(-479.2 -197.48)"/><path class="cls-1" d="M717,339.05a.79.79,0,0,1-.48.8c.11.39.21.78.31,1.17,1.21-1.7.67-2.94-1-3.87l.3,1.13C716.59,338.35,717,338.53,717,339.05Z" transform="translate(-479.2 -197.48)"/><path class="cls-1" d="M717.71,309.34h.08s0-.09,0-.13A.64.64,0,0,0,717.71,309.34Z" transform="translate(-479.2 -197.48)"/><path class="cls-1" d="M716.36,312.53c-.4-.71-.78-1.36-1.16-2,.34,1-.29,2.54,1.38,2.82,1.28-1.25.22-2.89,1.13-4h-.23c-.42.45-.47,1.31-.77,1.68A1.88,1.88,0,0,1,716.36,312.53Z" transform="translate(-479.2 -197.48)"/><path class="cls-1" d="M698.64,399l.2-.16c-1.77-1.77-3.94-.82-6-.86a.91.91,0,0,1,.08.13h0c1.66,1.32,3.68,1.51,5.68,1.78A1.79,1.79,0,0,1,698.64,399Z" transform="translate(-479.2 -197.48)"/><path class="cls-1" d="M755.63,327.38c-1.58.6-3.63.35-4.91,2.92l5.5-1.67A1.3,1.3,0,0,1,755.63,327.38Z" transform="translate(-479.2 -197.48)"/><path class="cls-1" d="M713.64,240.13a3,3,0,0,1-.79,1.24,1.48,1.48,0,0,1-.77.2,13.34,13.34,0,0,0,.83,3.08,3,3,0,0,1,.83-1.42h.18v-.11A7.5,7.5,0,0,0,713.64,240.13Z" transform="translate(-479.2 -197.48)"/><path class="cls-1" d="M731.72,326c.33.07.46-.13.6-.34l-.1-.11A2,2,0,0,1,731.72,326Z" transform="translate(-479.2 -197.48)"/><path class="cls-1" d="M727,279.06a3.67,3.67,0,0,0,0,1.51A5.1,5.1,0,0,0,727,279.06Z" transform="translate(-479.2 -197.48)"/><path class="cls-1" d="M691.17,380.11c6.79,4,12.69,3.4,16.4-1.67a1.43,1.43,0,0,0-.09-.27c-5.33,2.08-10.57,2.76-15.53-1.14C692.15,378.31,692.22,379.52,691.17,380.11Z" transform="translate(-479.2 -197.48)"/><path class="cls-1" d="M689.05,354.5c2.54,1.28,5,2.44,7.43,3.75s2.62-.08,2.48-2l-1-1.14C695,355.27,692.36,350.71,689.05,354.5Z" transform="translate(-479.2 -197.48)"/><path class="cls-1" d="M689.61,343.14c0-3,.79-4.94-.76-6.81C688,338.31,687.17,340.3,689.61,343.14Z" transform="translate(-479.2 -197.48)"/><path class="cls-1" d="M673,362.4c.92-3.38.46-6.84.69-10.26C672.81,355.51,674,359,673,362.4Z" transform="translate(-479.2 -197.48)"/><path class="cls-1" d="M684,342.22h1.73c-.22-1.5.91-3.32-.84-4.68C683.43,339.1,683.83,340.68,684,342.22Z" transform="translate(-479.2 -197.48)"/><path class="cls-1" d="M684,342.22c-.52,1.55,1,2.51,1.13,3.87l1.67,0c1.24-1.73-1.68-2.33-1.07-3.89A1.19,1.19,0,0,1,684,342.22Z" transform="translate(-479.2 -197.48)"/><path class="cls-1" d="M686.58,331.09c-1.13,1.83-2.08,3.07-1.23,4.91C686.81,334.8,686.93,333.41,686.58,331.09Z" transform="translate(-479.2 -197.48)"/><path class="cls-1" d="M700,353.18c-1.3-.88-1.44,1.15-2,2,.9-.12,1.52,0,1,1.14C699.94,355.42,701.05,353.9,700,353.18Z" transform="translate(-479.2 -197.48)"/><path class="cls-1" d="M685.14,346.09c.62,1.24.13,2.91,1.48,3.94.85-1.34.15-2.64.19-3.91A1,1,0,0,1,685.14,346.09Z" transform="translate(-479.2 -197.48)"/><path class="cls-1" d="M659.63,424.26a1.69,1.69,0,0,1,1.56,1.4c3.26-1,5.17-4.53,8.85-4.74,5.2-5.95,6.68-6,10.8-.83.7-1.41,3.29-1,3.1-3.27-.35-1.66-3.85-2.64-1.07-5h0l-3.2-2A226.33,226.33,0,0,0,659.63,424.26Z" transform="translate(-479.2 -197.48)"/><polygon class="cls-1" points="190.87 223.44 190.87 223.44 190.86 223.44 190.87 223.44"/><path class="cls-1" d="M670.06,420.92h0L670,421Z" transform="translate(-479.2 -197.48)"/><path class="cls-1" d="M656.42,443.13a1.83,1.83,0,0,1-.08.25,1.64,1.64,0,0,1-1.41.9c1.61,3.39,3.68,6.21,8,6.35-.31-.53-.63-1.06-.95-1.58-2.54-.83-2.9-2.92-3-5.16A3.08,3.08,0,0,1,656.42,443.13Z" transform="translate(-479.2 -197.48)"/><path class="cls-1" d="M656,440.07c-.13.78.58,1.67.52,2.65,1,0,1.65.72,2.44,1.17,0-.37,0-.73-.05-1.1C656.64,443.32,656.81,441.06,656,440.07Z" transform="translate(-479.2 -197.48)"/><path class="cls-1" d="M656.5,442.72a1.76,1.76,0,0,0-.53.1l.45.31A2,2,0,0,0,656.5,442.72Z" transform="translate(-479.2 -197.48)"/><path class="cls-1" d="M677.36,525.54a20.63,20.63,0,0,1,.39-3.57h0A10,10,0,0,0,677.36,525.54Z" transform="translate(-479.2 -197.48)"/><path class="cls-1" d="M677.76,529.65a17.51,17.51,0,0,1-.35-2.25c0,.32,0,.64,0,1l.36,1.41a.79.79,0,0,0,.16-.14v0A.34.34,0,0,0,677.76,529.65Z" transform="translate(-479.2 -197.48)"/><path class="cls-1" d="M678.67,521.49c0-.37.05-.75.07-1.12a2.65,2.65,0,0,1-.55,1.19A.79.79,0,0,1,678.67,521.49Z" transform="translate(-479.2 -197.48)"/><polygon class="cls-1" points="198.68 324.23 198.72 324.26 198.72 324.26 198.68 324.23 198.68 324.23"/><path class="cls-1" d="M683.16,502.88h.09l1.63-2.12-1.12-1.26L682,502.26a2.12,2.12,0,0,1,1.15.54Z" transform="translate(-479.2 -197.48)"/><path class="cls-1" d="M786.89,298.29a4.32,4.32,0,0,0-2.26,3.37l.15,1.74a15.22,15.22,0,0,0,3.25-5C787.61,298.88,787.23,298.85,786.89,298.29Z" transform="translate(-479.2 -197.48)"/><path class="cls-1" d="M765.18,304.27c2.49-.2,4.63-.8,4.45-4C768,301.48,766.16,302.38,765.18,304.27Z" transform="translate(-479.2 -197.48)"/><path class="cls-1" d="M784.63,301.66l-3.06,4.48c2.5.05,3-1.17,3.21-2.74A1.36,1.36,0,0,1,784.63,301.66Z" transform="translate(-479.2 -197.48)"/><path class="cls-1" d="M781.13,311.36A4.59,4.59,0,0,0,782,307C780.53,308.66,780.23,309.77,781.13,311.36Z" transform="translate(-479.2 -197.48)"/><path class="cls-1" d="M750.08,329.67a4,4,0,0,0-4,1.51C747.69,331.12,749.11,331.9,750.08,329.67Z" transform="translate(-479.2 -197.48)"/><path class="cls-1" d="M692.82,265.41c0,3,1.95,5.28,3,7.87l.66-1.35a1.2,1.2,0,0,1,.29-.61h0c-1.2-2.06-.76-5.21-3.87-6l0,.09Z" transform="translate(-479.2 -197.48)"/><path class="cls-1" d="M696.53,271.93c-.12.5-.12,1.06-.66,1.35.09.78-.2,1.73.92,2.05a1.38,1.38,0,0,1,1.14-1.14l-1.11-2.87h0C696.72,271.53,696.62,271.73,696.53,271.93Z" transform="translate(-479.2 -197.48)"/><path class="cls-1" d="M660,372.08c-1.1,4.23,1.06,7.56,3,11,.88-.42.86-1.28,1-2.06-.92-2.92-1.84-5.83-2.77-8.75l0,0A1,1,0,0,1,660,372.08Z" transform="translate(-479.2 -197.48)"/><path class="cls-1" d="M665.85,390.19c.82,3.32,2.53,6.15,5,9.49.12-1.76.18-2.71.25-3.67-2.09-2.3-3.07-5.2-4.32-7.95C666,388.55,666,389.39,665.85,390.19Z" transform="translate(-479.2 -197.48)"/><path class="cls-1" d="M647.05,404.74c0,.46-.09.91-.13,1.36l3,3.95h3.25C650.9,408.35,650.16,405.09,647.05,404.74Z" transform="translate(-479.2 -197.48)"/><path class="cls-1" d="M663,383l2.89,7.15c-.42-1-.88-2.1,1-2.13A19.36,19.36,0,0,0,664,381C664.5,382.09,664.8,383.08,663,383Z" transform="translate(-479.2 -197.48)"/><path class="cls-1" d="M661.8,408.9c-1.63.43-3.63-.81-4.92,1.1l6-.22Z" transform="translate(-479.2 -197.48)"/><path class="cls-1" d="M662.85,409.78c1.34-.24,2.67-.5,3.46-1.79-1.81-1.23-3.09.21-4.51.91C662.86,408.35,663,409,662.85,409.78Z" transform="translate(-479.2 -197.48)"/><path class="cls-1" d="M651.3,404.48c1.37-1.1.42-2.4-.21-3.58l-1,2C650.1,403.75,650.91,404.79,651.3,404.48Z" transform="translate(-479.2 -197.48)"/><path class="cls-1" d="M747.18,287.16c-1.33-2.67.6-5.85-1.3-8.44C747,281.43,745.15,284.59,747.18,287.16Z" transform="translate(-479.2 -197.48)"/><path class="cls-1" d="M726.38,424.32c-.61,2.05,0,4.19-1,6l-.07,0,.6.77.84-.21c.41-1.46-.87-3.79,2.06-3.93v-1C727.62,426.48,727.32,425.06,726.38,424.32Z" transform="translate(-479.2 -197.48)"/><path class="cls-1" d="M686.16,398.26a7.4,7.4,0,0,1-1.6-1.61,23.11,23.11,0,0,1,.18,5.06l2,4.24c1.25-2.51.07-5.11.32-7.66A2.22,2.22,0,0,1,686.16,398.26Z" transform="translate(-479.2 -197.48)"/><path class="cls-1" d="M692.87,397.94c-.79-1.49-2.39-1.27-3.69-1.69a2.5,2.5,0,0,1-1.65,1.94l-.21,0,5.63-.16c-.06-.05-.12-.08-.17-.13Z" transform="translate(-479.2 -197.48)"/><path class="cls-1" d="M687,398.24v0Z" transform="translate(-479.2 -197.48)"/><path class="cls-1" d="M727,314.53a37.64,37.64,0,0,0,1.74-9.65c-1.93,2.1.76,5.35-1.82,7.3h0l-.63.64A5.69,5.69,0,0,1,727,314.53Z" transform="translate(-479.2 -197.48)"/><path class="cls-1" d="M726.6,315.36l.08.19c0-.16.09-.32.13-.48Z" transform="translate(-479.2 -197.48)"/><path class="cls-1" d="M727,314.83l0,.08.16-.27Z" transform="translate(-479.2 -197.48)"/><path class="cls-1" d="M727,314.83c0-.1,0-.2-.08-.3,0,.18-.09.36-.14.54A2.5,2.5,0,0,1,727,314.83Z" transform="translate(-479.2 -197.48)"/><path class="cls-1" d="M723.8,304.93a30.65,30.65,0,0,0,1.26,5v0l.58-.7c-.68-2-.48-4.31-1.76-6.16h0l-.31.72A4.85,4.85,0,0,1,723.8,304.93Z" transform="translate(-479.2 -197.48)"/><path class="cls-1" d="M723.48,303.52a1,1,0,0,1,.41-.42h0l-.18-3.64C722.37,300.84,723,302.18,723.48,303.52Z" transform="translate(-479.2 -197.48)"/><path class="cls-1" d="M723.48,303.52a3.94,3.94,0,0,0-.23,1l.33-.74C723.54,303.72,723.51,303.62,723.48,303.52Z" transform="translate(-479.2 -197.48)"/><path class="cls-1" d="M725.89,312.21a1.49,1.49,0,0,1,1,0h0c-.41-1-.81-1.95-1.22-2.92-.2.28-.31.62-.52.89A13.75,13.75,0,0,0,725.89,312.21Z" transform="translate(-479.2 -197.48)"/><path class="cls-1" d="M726.23,312.79a4.88,4.88,0,0,1-.34-.58c-.29.15-.38.49-.16,1.14l.51-.53Z" transform="translate(-479.2 -197.48)"/><path class="cls-1" d="M725.13,310.15l-.06-.19-.41.51A.9.9,0,0,0,725.13,310.15Z" transform="translate(-479.2 -197.48)"/><path class="cls-1" d="M680.84,420.09c4,5,5.54,11.15,8.08,16.84,1.75,1.88.71,4.14.87,6.23-.14-1-.27-1.91-.4-2.86a5.4,5.4,0,0,0,.4,2.86q-1,6.76-2,13.52l3.4,1.33c8.76-.19,17.44.05,26.14,4.82-2-2.33-.82-3.42.59-4.68a14.58,14.58,0,0,0,3.92-6.2l-1-1c-2,2.19-3.48,4.76-5.94,6.58-1.4,1-2.32,1.48-3.84.4-4.41-3.16-9.78-2.73-14.64-2.83s-6.47-1-4.48-5.67c.08-1.85-.75-3.82.76-5.46a19.91,19.91,0,0,0-.77-11c-2-5.66-2.53-12.18-8-16.13C685,419.93,682.78,419.85,680.84,420.09Z" transform="translate(-479.2 -197.48)"/><path class="cls-1" d="M684.74,401.71l-5.07,8.18c1.74-.43,3-.16,3.2,2h0c2.44-1.21,3.21-3.5,3.82-5.9C684.27,405.35,684.64,403.47,684.74,401.71Z" transform="translate(-479.2 -197.48)"/><path class="cls-1" d="M727.05,431a1,1,0,0,1-1.16.16c.63,2.38-2.2,4.72-.08,7.12,1.66-2.15,1-4.9,1.82-7.26h-.45Z" transform="translate(-479.2 -197.48)"/><path class="cls-1" d="M723.81,445.93l2-6.18C722.26,440.85,723.21,443.45,723.81,445.93Z" transform="translate(-479.2 -197.48)"/><path class="cls-1" d="M721.84,452a8.08,8.08,0,0,0,2-5.05c-3-.17-1.83,2.76-2.93,4C721.76,450.74,722.31,450.87,721.84,452Z" transform="translate(-479.2 -197.48)"/><path class="cls-1" d="M692,449.39c1-1.72.91-3.59.76-5.46C691.9,445.67,692.75,447.64,692,449.39Z" transform="translate(-479.2 -197.48)"/><path class="cls-1" d="M735.77,499.11c-4.32,11.18-8.19,23.08-22.87,24.84l2.15.89h0a16.2,16.2,0,0,0,7.6-1.4c8.37-3.46,11.54-11.09,15.26-18.33q0-5.24-.07-10.47c-.43-2.68-.68-5.4-1.9-7.89l-1,.06C734.88,491,737.28,495.2,735.77,499.11Z" transform="translate(-479.2 -197.48)"/><path class="cls-1" d="M684.88,500.77c3.69-4.73,8.34-8.36,13.23-11.75,1.61-1.11,3-2.18,4.54,0h0a.36.36,0,0,1,.35-.33c0-2.17.83-3.44,3.11-4.31,3.81-1.46,7.38-3.55,11-5.38l-1.3-1a34.48,34.48,0,0,0-4.19,1.29c-10.7,4.8-21.53,9.45-27.91,20.22A1.45,1.45,0,0,1,684.88,500.77Z" transform="translate(-479.2 -197.48)"/><path class="cls-1" d="M770.54,456c-1.34,11.27-.31,22.36,1.69,33.4C772.9,478.23,774.32,467,770.54,456Z" transform="translate(-479.2 -197.48)"/><path class="cls-1" d="M730.66,478.07c2.17,2.51,1.24,5.11.23,7.71-.09,1.51-.37,3,.71,4.36l1.06-1.31c.08-1.53.15-3.06.23-4.68,1.77.33,1.53,1.74,2,2.66.32-.48.66-.51,1-.06-.06-8.79-1.8-11.08-8.15-10.74a4.29,4.29,0,0,0,0,.8Z" transform="translate(-479.2 -197.48)"/><path class="cls-1" d="M737.7,556.63c.38-1,.77-2,1.15-3-.21-4.35,0-8.7,0-13.06-1.81-4.17-1.35-9.08-4.2-12.91-.3,0-.61,0-.91,0h0c2.78,8.65,3.3,17.54,2.94,26.54C736.45,555.31,735.71,556.58,737.7,556.63Z" transform="translate(-479.2 -197.48)"/><path class="cls-1" d="M710.41,502c.84-.26,1.88-.11,2.38-1.11-3.88-.83-5.68-3.81-7.22-7l-.76,2.05C705.79,498.74,706.9,501.47,710.41,502Z" transform="translate(-479.2 -197.48)"/><path class="cls-1" d="M662.89,450.63c2.94-.23,6,.91,9.92-.61-4.18-1.93-7.65-.24-10.87-1C662.62,449.36,663.13,449.77,662.89,450.63Z" transform="translate(-479.2 -197.48)"/><path class="cls-1" d="M689.64,460.86a4.09,4.09,0,0,0-.46.25A2.94,2.94,0,0,0,689.64,460.86Z" transform="translate(-479.2 -197.48)"/><path class="cls-1" d="M687.79,456.68c-1.74.95-.53,2.8-1.24,4.07l3.09.11,1.55-2.85C688.33,458.42,688.33,458.42,687.79,456.68Z" transform="translate(-479.2 -197.48)"/><path class="cls-1" d="M702.65,489a14.65,14.65,0,0,0,2.16,6.86c-.49-1-.85-1.87.76-2.05h0c-.91-1.68-.2-4.18-2.57-5.14l-.35.33Z" transform="translate(-479.2 -197.48)"/><path class="cls-1" d="M727.8,476.81c-.32-.17-.43-.35-.32-.53s.2-.27.31-.27c-2.37-.11-4.82-.91-7,.73l0,1.05Z" transform="translate(-479.2 -197.48)"/><path class="cls-1" d="M686.55,460.75c-1,.92-2,1.77-2.34,3.19l.61.64h0c2-.43,2.75-2.51,4.36-3.47A2.11,2.11,0,0,1,686.55,460.75Z" transform="translate(-479.2 -197.48)"/><path class="cls-1" d="M737.91,505.11a16.45,16.45,0,0,0-.07-10.47A29.24,29.24,0,0,1,737.91,505.11Z" transform="translate(-479.2 -197.48)"/><path class="cls-1" d="M686.88,471.94c2.93-2.24,1.77-4.68,2.86-6.74l-1.54-.26Z" transform="translate(-479.2 -197.48)"/><path class="cls-1" d="M705.4,526.27c1.65,1.05,3.08.57,4.44-.55v-.85C708.24,524.87,706.44,524.22,705.4,526.27Z" transform="translate(-479.2 -197.48)"/><path class="cls-1" d="M710.41,502c2,1.38,4,.91,6.77.61a5.73,5.73,0,0,0-4.39-1.72C712.76,502.88,711.4,502,710.41,502Z" transform="translate(-479.2 -197.48)"/><path class="cls-1" d="M670.7,431.24l1.11-1.27h0c.1-2.15.28-4.31-.7-6.35-.49,1.39.34,3.12-1.08,4.28A3.94,3.94,0,0,0,670.7,431.24Z" transform="translate(-479.2 -197.48)"/><path class="cls-1" d="M730.66,478.07l.23,7.71C731.41,483.19,731.9,480.6,730.66,478.07Z" transform="translate(-479.2 -197.48)"/><path class="cls-1" d="M684.21,463.94a7,7,0,0,0-4.44,4.17c2.52-.93,4-1.86,5.05-3.53h0A.59.59,0,0,1,684.21,463.94Z" transform="translate(-479.2 -197.48)"/><path class="cls-1" d="M731.6,490.14l.34,6.17a12.71,12.71,0,0,0,.72-7.48C732.33,489.28,732.26,489.94,731.6,490.14Z" transform="translate(-479.2 -197.48)"/><path class="cls-1" d="M670.7,431.24c.16,1.48-.25,3.14,1.91,5.2-.35-2.86-.58-4.67-.8-6.47h0C671.45,430.4,671.37,431.08,670.7,431.24Z" transform="translate(-479.2 -197.48)"/><path class="cls-1" d="M717.16,479a5.86,5.86,0,0,0,3.65-1.22q-.52-.33-.36-.69t.33-.36a8.37,8.37,0,0,0-4.92,1.26C716.32,478.3,717,478.36,717.16,479Z" transform="translate(-479.2 -197.48)"/><polygon class="cls-1" points="190.87 223.44 190.86 223.44 190.87 223.44 190.87 223.44"/><path class="cls-1" d="M670,427.9c1-1.27-.35-3.12,1.08-4.28-.05-1,.58-2.3-1.07-2.58A19.76,19.76,0,0,0,670,427.9Z" transform="translate(-479.2 -197.48)"/><path class="cls-1" d="M670,421h0l.09,0s0-.08,0-.12l-.11.1Z" transform="translate(-479.2 -197.48)"/><path class="cls-1" d="M688.92,436.93c.16,1.12.32,2.25.47,3.37A5.76,5.76,0,0,0,688.92,436.93Z" transform="translate(-479.2 -197.48)"/><path class="cls-1" d="M727.13,430.59c.18,0,.34.08.5.38.39-1.34.77-2.67,1.16-4C727.61,427.9,727.42,429.27,727.13,430.59Z" transform="translate(-479.2 -197.48)"/><path class="cls-1" d="M727.05,431c0-.12.05-.24.08-.36a.72.72,0,0,0-.4.31l.32.05Z" transform="translate(-479.2 -197.48)"/><path class="cls-1" d="M707.09,492.24c1-1.45,1.56-3.16-.89-4.93C706.58,489.39,706.83,490.81,707.09,492.24Z" transform="translate(-479.2 -197.48)"/><path class="cls-1" d="M712.9,524l-3.06.92c.34.19.46.38.34.57s-.23.28-.34.28c1.8.08,3.62.29,5.21-.88C714.1,525.1,713,525.78,712.9,524Z" transform="translate(-479.2 -197.48)"/><path class="cls-1" d="M731.52,521.92c-1.08.38.19,2,1,2.89l1.15-.07C732.86,523.78,733.46,521.24,731.52,521.92Z" transform="translate(-479.2 -197.48)"/><path class="cls-1" d="M734.61,527.71c.3-1.19-.46-2-1-3h0c-.35.54-.74.57-1.15.07.41,1-.18,2.36,1.21,2.93h0A.57.57,0,0,1,734.61,527.71Z" transform="translate(-479.2 -197.48)"/><path class="cls-1" d="M674.08,443c-.18-1.78-.29-2.92-.41-4.06l-1.39.3C672.71,440.28,672.38,441.58,674.08,443Z" transform="translate(-479.2 -197.48)"/></svg>